<svg width="103" height="36" viewBox="0 0 103 36" fill="none" xmlns="http://www.w3.org/2000/svg">
<path d="M8 17.7853C8.04225 16.0918 8.48149 14.4073 9.88566 13.1283C11.221 11.9124 12.8149 11.5028 14.4755 12.2176C15.7745 12.7768 16.8977 12.7246 18.1741 12.1841C20.1001 11.3679 22.1577 11.9409 23.5402 13.465C23.778 13.7269 23.7987 13.8421 23.4783 14.0794C20.779 16.0869 21.0689 19.9867 24.0227 21.5926C24.2025 21.69 24.3489 21.7393 24.2418 22.0208C23.6965 23.4563 23.0116 24.8081 21.9513 25.9364C20.8331 27.1268 19.8623 27.3463 18.3765 26.6975C17.1266 26.1521 15.8983 26.1304 14.6819 26.729C13.4035 27.3581 12.3186 27.1199 11.3527 26.1097C9.74514 24.4281 8.82246 22.393 8.27612 20.163C8.09728 19.4275 8.00983 18.6802 8 17.7853Z" fill="white"/>
<path d="M61.0857 25.0345C62.0064 25.5209 62.9546 25.7818 63.9824 25.6332C64.7892 25.516 65.3149 25.0887 65.4495 24.4546C65.6057 23.7182 65.2952 23.0851 64.5691 22.645C64.1603 22.3979 63.7053 22.2571 63.2671 22.0769C62.7797 21.8771 62.3218 21.627 61.9081 21.3011C60.4489 20.1511 60.4833 18.0146 62.0192 16.971C63.4636 15.9904 65.0181 16.1203 66.5815 16.6786C66.7702 16.7455 66.7652 16.8666 66.7043 17.0291C66.6119 17.2742 66.5196 17.5224 66.4626 17.7764C66.4007 18.052 66.3073 18.0914 66.0332 17.9841C65.2942 17.6937 64.5298 17.5342 63.7299 17.7232C63.1256 17.866 62.6667 18.1751 62.5596 18.8259C62.4574 19.4472 62.7561 19.8961 63.2533 20.2387C63.7299 20.5666 64.2772 20.7478 64.797 20.9841C65.2903 21.2085 65.7669 21.4567 66.1806 21.8131C67.7194 23.1383 67.4717 25.6135 65.6608 26.533C64.1367 27.3079 62.5625 27.1976 61.0031 26.5734C60.7702 26.4799 60.6759 26.3411 60.7663 26.0821C60.8842 25.7464 60.9766 25.3998 61.0857 25.0345Z" fill="white"/>
<path d="M70.872 17.4492C70.872 18.0153 70.8819 18.5224 70.8671 19.0294C70.8603 19.2628 70.933 19.3484 71.1717 19.3396C71.5962 19.3238 72.0227 19.3445 72.4482 19.3317C72.6604 19.3258 72.7204 19.3986 72.7341 19.6123C72.799 20.5998 72.8068 20.5988 71.8311 20.5988C70.872 20.5988 70.872 20.5988 70.872 21.5735C70.872 22.4921 70.8622 23.4107 70.8779 24.3283C70.8976 25.4212 71.2287 25.7205 72.3195 25.6388C72.5238 25.624 72.5995 25.6457 72.6231 25.8751C72.7312 26.9266 72.7204 26.9492 71.6473 27.0329C70.1773 27.1471 69.4256 26.5485 69.2733 25.0707C69.1387 23.7642 69.2261 22.4488 69.2291 21.1374C69.2301 20.7337 69.176 20.524 68.7083 20.587C68.5265 20.6116 68.2042 20.7288 68.1502 20.4777C68.0755 20.1361 68.0853 19.7501 68.1679 19.4105C68.2091 19.2401 68.5285 19.3228 68.7112 19.3435C69.1092 19.3878 69.2468 19.2716 69.2291 18.8453C69.1937 17.971 69.2202 17.9701 70.0506 17.7072C70.2982 17.6294 70.5458 17.5516 70.872 17.4492Z" fill="white"/>
<path d="M84.0305 20.6319C84.1887 20.5433 84.2005 20.3631 84.283 20.2332C84.564 19.7901 84.9207 19.4524 85.4297 19.287C86.2994 19.0044 86.4831 19.1295 86.4831 20.0195C86.4831 20.0855 86.4762 20.1514 86.4841 20.2154C86.5332 20.6122 86.4772 20.8062 85.9633 20.7806C84.9109 20.7274 84.2299 21.5279 84.2083 22.7655C84.1877 23.9774 84.1838 25.1894 84.2132 26.4014C84.2231 26.8189 84.0963 26.9154 83.6974 26.9075C82.5015 26.8839 82.5045 26.9006 82.5005 25.7172C82.4936 23.7352 82.4946 21.7533 82.4612 19.7724C82.4543 19.3845 82.5723 19.3175 82.9231 19.3244C83.9096 19.3441 83.9076 19.3284 83.9637 20.31C83.9696 20.4153 83.9165 20.5384 84.0305 20.6319Z" fill="white"/>
<path d="M20.177 7.5199C20.1004 9.56778 18.538 11.3488 16.6376 11.6019C16.2583 11.6521 16.1217 11.5694 16.1335 11.1578C16.1885 9.24288 17.8787 7.32495 19.783 7.01383C20.3293 6.92424 20.1495 7.29049 20.177 7.5199Z" fill="white"/>
<path d="M44.5661 10.0928C44.3528 10.848 44.1209 11.5992 43.9342 12.3623C43.8527 12.696 43.6522 12.6832 43.3948 12.699C43.1039 12.7157 43.0076 12.5956 42.9339 12.3298C42.6617 11.3354 42.3542 10.3508 42.0761 9.35836C42.0407 9.23332 41.8078 8.98521 42.1449 8.9606C42.3905 8.94189 42.7512 8.76861 42.8475 9.23825C43.0145 10.0564 43.2042 10.8697 43.3997 11.7528C43.7878 10.9356 43.9362 10.1017 44.1887 9.30224C44.2566 9.08564 44.3086 8.92516 44.5995 8.93303C44.8717 8.93992 44.9975 9.00195 45.0653 9.29043C45.2578 10.0997 45.4927 10.8992 45.7944 11.7095C45.9968 10.9209 46.2356 10.1381 46.3879 9.33966C46.4842 8.83458 46.8074 8.94288 47.116 8.95076C47.3155 8.95568 47.2398 9.09155 47.2084 9.19591C46.8752 10.2917 46.5382 11.3856 46.211 12.4834C46.1176 12.7964 45.872 12.6635 45.6823 12.6872C45.4917 12.7108 45.3532 12.6803 45.2922 12.4361C45.0957 11.6475 44.8677 10.8667 44.6525 10.082C44.6231 10.0869 44.5946 10.0899 44.5661 10.0928Z" fill="white"/>
<path d="M86.3599 9.44636C86.6419 9.12638 86.8777 8.94029 87.1951 8.88713C88.0323 8.7483 88.6553 9.23763 88.73 10.1897C88.7889 10.939 88.7467 11.6951 88.7545 12.4483C88.7585 12.8352 88.4696 12.66 88.2966 12.6865C88.0883 12.719 87.9173 12.7023 87.9262 12.3971C87.9448 11.7424 87.9458 11.0866 87.9232 10.4329C87.9026 9.84806 87.6147 9.55663 87.1361 9.57534C86.6782 9.59306 86.3834 9.89433 86.3667 10.4181C86.3471 11.0561 86.3343 11.6971 86.3687 12.3331C86.3903 12.7348 86.1594 12.6806 85.9108 12.6964C85.6298 12.7141 85.5099 12.6541 85.5138 12.3282C85.5325 10.7568 85.5364 9.18348 85.5119 7.61213C85.506 7.23504 85.6799 7.2439 85.9511 7.23208C86.2646 7.21732 86.3854 7.30002 86.3687 7.63871C86.3392 8.20089 86.3599 8.76603 86.3599 9.44636Z" fill="white"/>
<path d="M76.3605 9.46802C76.5895 9.25831 76.7447 9.09192 76.9521 8.99445C77.8492 8.57405 78.7424 9.11457 78.821 10.1799C78.876 10.9291 78.8318 11.6862 78.8436 12.4394C78.8495 12.8244 78.5695 12.6669 78.3926 12.6905C78.1872 12.7181 78.0123 12.7121 78.0221 12.403C78.0418 11.7483 78.0418 11.0925 78.0221 10.4378C78.0025 9.80671 77.6242 9.47295 77.0906 9.59405C76.6632 9.69152 76.4676 9.99181 76.4617 10.4152C76.4529 11.0541 76.4391 11.6931 76.4647 12.3311C76.4784 12.661 76.3379 12.7121 76.0618 12.6984C75.8063 12.6856 75.597 12.723 75.6088 12.3292C75.6363 11.38 75.599 10.4299 75.6137 9.47984C75.6167 9.29179 75.3985 8.96393 75.8574 8.9403C76.1964 8.92258 76.4342 8.96984 76.3605 9.46802Z" fill="white"/>
<path d="M49.0935 9.4771C49.6074 8.90704 50.1429 8.72981 50.759 8.96316C51.3663 9.19354 51.5294 9.74293 51.5618 10.315C51.6012 11.0179 51.5697 11.7239 51.5835 12.4278C51.5903 12.8059 51.3182 12.6769 51.1364 12.6868C50.9565 12.6966 50.7305 12.7606 50.7394 12.4259C50.7551 11.8036 50.7482 11.1804 50.7423 10.5572C50.7364 9.89061 50.4829 9.56964 49.9818 9.57457C49.462 9.58047 49.18 9.92901 49.1731 10.5887C49.1672 11.1459 49.1515 11.7042 49.179 12.2604C49.1957 12.6001 49.0984 12.7064 48.7496 12.7045C48.4145 12.7035 48.3477 12.5922 48.3506 12.2811C48.3605 11.2818 48.3428 10.2825 48.3241 9.28314C48.3202 9.08524 48.3005 8.90113 48.5786 8.94839C48.7653 8.97989 49.0797 8.78889 49.0709 9.20634C49.0689 9.26542 49.0797 9.3235 49.0935 9.4771Z" fill="white"/>
<path d="M82.6618 10.7471C82.6618 10.5009 82.655 10.2548 82.6638 10.0086C82.6736 9.74675 82.6913 9.51045 82.3002 9.56264C82.0703 9.59316 82.1125 9.39132 82.1096 9.25151C82.1067 9.1058 82.0821 8.91676 82.3101 8.94827C82.7188 9.00537 82.65 8.7356 82.6667 8.49045C82.6972 8.0533 83.1021 8.14388 83.3418 8.10253C83.6042 8.05626 83.4823 8.35163 83.4696 8.46879C83.4224 8.87049 83.5826 8.98864 83.9628 8.95221C84.121 8.93645 84.3785 8.82422 84.3991 9.16783C84.4158 9.43956 84.3755 9.63352 84.0405 9.56854C83.5413 9.47206 83.4283 9.7054 83.4715 10.1593C83.5148 10.6151 83.4843 11.0769 83.503 11.5347C83.5167 11.8547 83.6631 12.0772 84.0238 12.0358C84.2655 12.0083 84.3313 12.1018 84.3402 12.3322C84.349 12.5646 84.3077 12.6896 84.0464 12.7329C83.2318 12.8678 82.7375 12.5075 82.6756 11.6804C82.652 11.3703 82.6717 11.0572 82.6717 10.7461C82.6697 10.7471 82.6658 10.7471 82.6618 10.7471Z" fill="white"/>
<path d="M53.8612 9.96211C53.8612 10.7478 53.8454 11.5335 53.869 12.3172C53.8788 12.6293 53.7777 12.7238 53.4822 12.6943C53.2465 12.6706 53.0059 12.7602 53.0118 12.3447C53.0354 10.7586 53.0354 9.17151 53.0118 7.5844C53.0059 7.17286 53.2396 7.2526 53.4782 7.23094C53.7679 7.20535 53.8788 7.28707 53.869 7.60508C53.8454 8.39174 53.8612 9.17742 53.8612 9.96211Z" fill="white"/>
<path d="M84.3791 27.6262C84.3964 27.6262 84.4105 26.3562 84.4105 24.7896C84.4105 23.2231 84.3964 21.9531 84.3791 21.9531C84.3617 21.9531 84.3477 23.2231 84.3477 24.7896C84.3477 26.3562 84.3617 27.6262 84.3791 27.6262Z" fill="white"/>
<path d="M56.8968 20.7074C56.319 19.6027 55.3413 19.1154 54.0884 19.1961C53.1313 19.2581 52.3895 19.7012 51.7753 20.5311C51.734 20.096 51.8235 19.6352 51.6358 19.4255C51.4049 19.1675 50.9253 19.3733 50.5578 19.33C50.2739 19.2965 50.2011 19.4058 50.212 19.6884C50.3299 22.6893 50.2493 25.6912 50.2689 28.6922C50.2778 29.9888 50.2699 29.9741 51.5749 29.975C51.9129 29.975 51.9836 29.8687 51.9787 29.5566C51.962 28.4253 51.9718 27.2941 51.9718 26.0841C53.3711 27.5215 55.6311 27.3345 56.6973 25.7001C57.7428 24.1012 57.7782 22.391 56.8968 20.7074ZM55.3314 24.8475C54.8834 25.58 54.1503 25.8842 53.3082 25.705C52.6007 25.5544 52.0622 24.94 52.0013 24.112C51.9551 23.4937 51.9502 22.8636 52.0092 22.2463C52.1025 21.2578 52.7216 20.6306 53.6059 20.5321C54.4775 20.4347 55.2096 20.9368 55.5506 21.8573C55.7009 22.262 55.7717 22.6785 55.7717 23.1087C55.7677 23.7231 55.6567 24.3158 55.3314 24.8475Z" fill="white"/>
<path d="M48.2529 20.7812C47.6624 19.6391 46.6837 19.1124 45.3886 19.201C44.4364 19.266 43.6965 19.711 43.1148 20.5006C42.9929 20.093 43.1954 19.5781 42.9193 19.3959C42.6539 19.2207 42.1911 19.3585 41.8177 19.3319C41.5377 19.3122 41.4984 19.4373 41.5121 19.6795C41.6743 22.6932 41.5495 25.7099 41.5937 28.7246C41.5996 29.1293 41.409 29.6796 41.6752 29.8972C41.9239 30.1001 42.4545 29.9376 42.8583 29.976C43.2131 30.0095 43.2917 29.8775 43.2858 29.5398C43.2641 28.4165 43.2779 27.2931 43.2779 26.1283C44.9238 27.7834 47.4855 27.0647 48.3099 25.2324C48.9791 23.7398 49.0076 22.2403 48.2529 20.7812ZM46.4744 25.1142C45.9752 25.6981 45.3306 25.8527 44.6094 25.6991C43.9088 25.5504 43.5403 25.0522 43.3585 24.3906C43.2484 23.9889 43.275 23.5773 43.275 23.1048C43.2563 22.6578 43.2759 22.1517 43.4646 21.6683C43.9707 20.3726 45.6008 20.1058 46.496 21.1711C47.3312 22.1645 47.3204 24.1267 46.4744 25.1142Z" fill="white"/>
<path d="M40.0132 26.5249C39.0954 23.6746 38.1806 20.8233 37.252 17.976C37.0859 17.467 37.0918 16.7551 36.687 16.51C36.288 16.2688 35.6385 16.4637 35.103 16.4204C34.7522 16.3918 34.6245 16.5346 34.5252 16.8457C33.4964 20.0731 32.4568 23.2966 31.4103 26.519C31.3189 26.8006 31.312 26.9384 31.6707 26.9069C31.9792 26.8794 32.2937 26.8803 32.6022 26.9069C32.9137 26.9335 33.0611 26.836 33.1476 26.517C33.3598 25.7274 33.6251 24.9526 33.8541 24.1669C33.9229 23.9326 34.0152 23.8203 34.2864 23.8262C35.2022 23.845 36.12 23.8459 37.0358 23.8262C37.3267 23.8203 37.423 23.9316 37.4977 24.1945C37.7246 24.9969 37.987 25.7904 38.2307 26.5879C38.2788 26.7455 38.2946 26.9079 38.5265 26.904C39.0443 26.8941 39.5622 26.901 40.1134 26.901C40.0721 26.7405 40.0476 26.6313 40.0132 26.5249ZM36.8137 22.5394C36.0611 22.5345 35.3093 22.5316 34.5567 22.5414C34.311 22.5444 34.2923 22.4548 34.3552 22.247C34.7787 20.8558 35.1934 19.4617 35.6543 17.9248C36.1269 19.4676 36.5524 20.8736 36.9916 22.2756C37.0555 22.4764 37.023 22.5404 36.8137 22.5394Z" fill="white"/>
<path d="M80.9788 22.2266C80.6605 20.225 78.8515 18.8998 76.8548 19.1981C74.8915 19.4915 73.6455 21.056 73.6563 23.3028C73.6701 23.4416 73.6887 23.67 73.7163 23.8974C73.9138 25.5003 75.034 26.7261 76.5551 27.0047C78.2324 27.3129 79.8429 26.5774 80.5799 25.1439C81.0516 24.2243 81.14 23.2388 80.9788 22.2266ZM78.8122 25.011C78.0251 26.156 76.5413 26.1314 75.8024 24.9568C75.4614 24.4133 75.3572 23.8049 75.3572 23.1728C75.3582 22.4728 75.4791 21.8043 75.9046 21.2253C76.7015 20.1423 78.1243 20.1886 78.8554 21.3189C79.4961 22.3074 79.4754 24.0461 78.8122 25.011Z" fill="white"/>
<path d="M89.2666 23.5095C89.9859 23.5272 90.7061 23.5154 91.4254 23.5154C91.8833 23.5154 92.3412 23.5154 92.7991 23.5154C94.0569 23.5154 94.0795 23.5124 93.9468 22.2473C93.8103 20.9545 93.3297 19.8558 91.9993 19.3743C90.2807 18.7531 88.4952 19.522 87.7357 21.182C87.4094 21.8958 87.2699 22.648 87.3092 23.4277C87.4065 25.3644 88.454 26.6709 90.1618 26.9751C90.9941 27.1238 91.8253 27.0499 92.6458 26.8668C93.597 26.6541 93.5941 26.6384 93.3808 25.6942C93.3258 25.45 93.2502 25.4225 93.0242 25.5002C92.3176 25.7424 91.5826 25.7897 90.8437 25.7218C89.7844 25.6253 89.0406 24.879 88.9345 23.8669C88.903 23.5813 88.9836 23.5026 89.2666 23.5095ZM88.9325 22.1311C88.9079 21.0254 90.1362 20.0842 91.2191 20.3923C91.8951 20.5843 92.4562 21.4498 92.3805 22.1439C92.354 22.3861 92.1997 22.3319 92.0661 22.3329C91.5767 22.3378 91.0874 22.3349 90.5981 22.3349C90.1411 22.3349 89.6842 22.3378 89.2273 22.3329C89.0917 22.3309 88.9384 22.3802 88.9325 22.1311Z" fill="white"/>
<path d="M34.2354 7.51179C33.7304 7.46453 33.2233 7.49603 32.7173 7.54034C32.4186 7.56692 32.3007 7.66341 32.3134 7.98733C32.34 8.69129 32.3213 9.39623 32.3213 10.1012C32.3213 10.8219 32.335 11.5436 32.3144 12.2643C32.3066 12.5527 32.3793 12.6906 32.6829 12.6866C33.1241 12.6817 33.5682 12.729 34.0055 12.6935C35.3458 12.5833 36.181 11.896 36.4444 10.7274C36.8433 8.95712 35.9659 7.67325 34.2354 7.51179ZM32.5463 8.23839C32.5522 9.62662 32.5493 11.0158 32.5493 12.4041C32.5168 12.4041 32.4844 12.4041 32.452 12.4041C32.452 10.9341 32.4549 9.46318 32.45 7.99323C32.449 7.69885 32.6131 7.689 32.8499 7.7402C32.5394 7.79337 32.5443 8.00603 32.5463 8.23839ZM35.5158 10.8662C35.3281 11.58 34.7916 11.9266 34.0881 12.0221C33.1202 12.154 33.1084 12.1372 33.1084 11.1832C33.1084 10.8238 33.1084 10.4645 33.1084 10.1041C33.1084 9.56459 33.1192 9.02505 33.1035 8.4865C33.0966 8.25119 33.1752 8.17833 33.4041 8.17144C34.0153 8.15273 34.6432 8.12713 35.1159 8.57806C35.7919 9.22492 35.729 10.0529 35.5158 10.8662Z" fill="white"/>
<path d="M67.3386 12.1739C67.3494 10.6517 67.3288 9.12961 67.3426 7.60748C67.3455 7.28848 67.2364 7.22153 66.9495 7.23137C66.6783 7.24122 66.4847 7.23531 66.5083 7.6124C66.5427 8.15588 66.5172 8.70231 66.5172 9.28713C65.4245 8.53395 64.3799 8.86082 63.9623 10.0265C63.7982 10.4844 63.7687 10.9501 63.8837 11.4256C64.0262 12.0153 64.3102 12.5116 64.9184 12.6868C65.5218 12.8611 66.0858 12.7469 66.6026 12.1817C66.4641 12.7774 66.8277 12.6976 67.1224 12.6878C67.546 12.674 67.3376 12.3501 67.3386 12.1739ZM65.5846 12.0843C65 12.0557 64.603 11.4748 64.6443 10.7079C64.658 10.4617 64.7091 10.2264 64.8398 10.0088C65.0697 9.62386 65.4127 9.487 65.8372 9.55887C66.2292 9.62484 66.4071 9.91036 66.4769 10.2717C66.5113 10.446 66.5132 10.6271 66.5162 10.6635C66.5152 11.6589 66.1831 12.1138 65.5846 12.0843Z" fill="white"/>
<path d="M72.6207 8.88283C71.5634 8.87791 70.7979 9.68919 70.7911 10.8224C70.7842 11.9517 71.5084 12.7522 72.5509 12.7669C73.621 12.7817 74.4071 11.9497 74.4081 10.7988C74.4081 9.68427 73.6643 8.88677 72.6207 8.88283ZM72.5362 12.1585C71.9722 12.1378 71.6086 11.5786 71.6302 10.7633C71.6499 10.0003 72.0695 9.46274 72.6256 9.48637C73.1631 9.50902 73.5346 10.0387 73.5365 10.787C73.5405 11.6061 73.1218 12.1791 72.5362 12.1585Z" fill="white"/>
<path d="M56.922 8.88301C55.8598 8.86825 55.0884 9.66475 55.0687 10.798C55.0491 11.945 55.7949 12.7671 56.8542 12.7681C57.9036 12.7681 58.675 11.9489 58.6858 10.8216C58.6946 9.70414 57.9616 8.89778 56.922 8.88301ZM56.8178 12.1586C56.2528 12.1409 55.8873 11.5827 55.9079 10.7665C55.9266 10.0034 56.3442 9.46489 56.8994 9.48556C57.4369 9.50526 57.8103 10.0349 57.8142 10.7832C57.8191 11.6024 57.4025 12.1773 56.8178 12.1586Z" fill="white"/>
<path d="M39.3437 8.88292C38.2864 8.87209 37.5111 9.67647 37.4944 10.8048C37.4777 11.9449 38.2333 12.7709 39.2887 12.767C40.344 12.7631 41.1016 11.9508 41.1075 10.8156C41.1134 9.69124 40.3853 8.89375 39.3437 8.88292ZM39.2602 12.1595C38.6962 12.1507 38.3169 11.5875 38.3326 10.7802C38.3473 10.024 38.764 9.47464 39.3152 9.48547C39.8675 9.49532 40.2467 10.0427 40.2399 10.8195C40.233 11.618 39.8311 12.1684 39.2602 12.1595Z" fill="white"/>
<path d="M92.4598 9.06231C91.8909 8.72953 91.0969 8.82208 90.5938 9.2799C89.9747 9.84405 89.7615 10.8513 90.0868 11.6763C90.3747 12.4078 90.9908 12.7544 91.9518 12.7101C92.2112 12.6983 92.4686 12.6451 92.7281 12.6185C92.9914 12.591 93.0199 12.4472 92.9845 12.2119C92.9423 11.9323 92.7988 11.9884 92.6062 12.0189C92.3016 12.0682 91.9931 12.1154 91.6806 12.0692C91.0822 11.9815 90.8257 11.7118 90.7402 11.0364C91.4595 11.0364 92.1758 11.0334 92.8912 11.0383C93.068 11.0393 93.1919 11.0285 93.2341 10.804C93.3471 10.2093 92.9894 9.37245 92.4598 9.06231ZM92.1041 10.4466C91.9272 10.4279 91.7464 10.4436 91.5666 10.4436C91.4526 10.4436 91.3376 10.4515 91.2246 10.4417C91.0684 10.4279 90.8444 10.5254 90.7717 10.3865C90.6793 10.2113 90.8247 10.0134 90.9249 9.84897C91.1274 9.51718 91.4398 9.40986 91.8093 9.47287C92.1316 9.52801 92.3085 9.74264 92.4067 10.0479C92.5011 10.3442 92.4372 10.482 92.1041 10.4466Z" fill="white"/>
<path d="M62.6297 12.2086C62.6445 11.6031 62.6258 10.9957 62.615 10.3892C62.6042 9.82502 62.502 9.28647 61.9281 9.02556C61.3101 8.74397 60.6822 8.84341 60.0729 9.09546C59.8391 9.19195 59.9678 9.36917 59.9973 9.51488C60.0474 9.75906 60.1899 9.64977 60.3255 9.59562C60.6026 9.48338 60.8934 9.44104 61.1912 9.47058C61.4584 9.49716 61.654 9.62122 61.7365 9.89C61.8063 10.1165 61.8475 10.2887 61.4899 10.2917C60.9966 10.2966 60.5131 10.3941 60.1044 10.7092C59.6927 11.0262 59.5295 11.5391 59.6848 12.0265C59.8214 12.4548 60.2331 12.7344 60.745 12.758C61.1617 12.7767 61.5125 12.633 61.8387 12.3071C61.9792 12.6714 62.1885 12.7767 62.5187 12.6911C62.8567 12.6034 62.6268 12.3642 62.6297 12.2086ZM61.8308 11.2448C61.8495 11.7233 61.6373 12.0206 61.198 12.1279C60.9298 12.1939 60.6684 12.1525 60.5279 11.869C60.3884 11.5894 60.4345 11.3196 60.6586 11.1079C60.9406 10.8421 61.3071 10.8076 61.6677 10.8371C61.9615 10.8608 61.7748 11.1227 61.8308 11.2448Z" fill="white"/>
<rect x="0.5" y="0.5" width="102" height="35" rx="7.5" stroke="white"/>
</svg>
