<svg width="103" height="36" viewBox="0 0 103 36" fill="none" xmlns="http://www.w3.org/2000/svg">
<path d="M36.0797 21.2101C35.132 21.2101 34.1881 21.1923 33.2459 21.219C32.8879 21.2289 32.8192 21.1148 32.8247 20.793C32.8421 19.8554 32.8275 19.8554 33.8081 19.8554C34.9068 19.8554 36.0055 19.8626 37.1033 19.8501C37.3643 19.8474 37.465 19.8982 37.4888 20.1825C37.6426 22.0372 37.0878 23.5951 35.3728 24.5407C33.5407 25.5505 31.6665 25.4409 29.9241 24.3045C27.5317 22.7449 27.0034 19.6611 28.6926 17.4535C30.4579 15.1452 33.7147 14.7254 35.9835 16.499C36.2472 16.7049 36.2463 16.8261 35.9991 17.0248C35.7656 17.2138 35.5926 17.5418 35.3353 17.6166C35.0579 17.6968 34.8482 17.3377 34.5927 17.1942C33.3823 16.5159 31.7755 16.6175 30.6282 17.466C29.4526 18.3359 28.9426 19.8608 29.3473 21.2966C29.7236 22.6343 30.9551 23.6628 32.3633 23.8063C32.8357 23.8545 33.3073 23.8464 33.7742 23.7413C35.1073 23.4383 35.8984 22.5835 36.0797 21.2101Z" fill="white"/>
<path d="M94.9994 18.8124C94.5755 19.7571 94.1818 20.6341 93.7881 21.5111C92.8872 23.52 91.9825 25.5279 91.0917 27.5413C90.9754 27.8042 90.8472 27.9396 90.5267 27.9093C90.1495 27.8746 89.7668 27.9013 89.3154 27.9013C89.6414 27.2231 89.8886 26.5502 90.2695 25.9584C90.7849 25.1572 90.7346 24.4567 90.3033 23.6233C89.558 22.1831 88.9391 20.6804 88.267 19.2036C88.2194 19.0994 88.1755 18.9942 88.0977 18.8142C88.6141 18.8142 89.0673 18.8257 89.5187 18.8097C89.7576 18.8008 89.7805 18.9701 89.8437 19.1127C90.4068 20.3756 90.9681 21.6394 91.5321 22.9068C91.7253 22.88 91.7015 22.708 91.7454 22.6046C92.2197 21.4656 92.6912 20.3248 93.1417 19.176C93.2497 18.9006 93.3825 18.7776 93.702 18.8044C94.1076 18.8382 94.5178 18.8124 94.9994 18.8124Z" fill="white"/>
<path d="M59.7183 20.3787C59.7183 18.9697 59.7321 17.5615 59.7092 16.1524C59.7037 15.8066 59.8108 15.7371 60.1432 15.7425C61.1549 15.7585 61.1549 15.7442 61.1549 16.7424C61.1549 19.352 61.1467 21.9616 61.1641 24.5721C61.1668 24.9508 61.0487 25.0364 60.6806 25.0284C59.7183 25.0061 59.7183 25.0221 59.7183 24.0703C59.7183 22.8404 59.7183 21.6095 59.7183 20.3787Z" fill="white"/>
<path d="M80.411 20.4223C80.411 21.8465 80.4018 23.2707 80.4183 24.694C80.422 24.989 80.335 25.0586 80.0411 25.0568C78.979 25.0505 78.979 25.0621 78.979 24.0238C78.979 21.4579 78.9854 18.8911 78.9708 16.3252C78.9689 15.9785 79.0184 15.8359 79.4276 15.8484C80.4101 15.8787 80.411 15.8564 80.411 16.8172C80.411 18.0195 80.411 19.2209 80.411 20.4223Z" fill="white"/>
<path d="M54.6666 11.3827C54.6666 10.3364 54.6684 9.39081 54.6647 8.4443C54.6638 8.25536 54.6501 8.11098 54.9357 8.10563C55.258 8.09939 55.2223 8.27764 55.2223 8.4746C55.2205 9.63323 55.2242 10.791 55.2168 11.9496C55.2159 12.0761 55.3194 12.2865 55.0868 12.3105C54.8762 12.3319 54.651 12.3854 54.4908 12.1225C53.9387 11.2179 53.3591 10.3284 52.7887 9.43359C52.6944 9.28564 52.5982 9.13858 52.4224 9.00311C52.4224 9.83732 52.4224 10.6715 52.4224 11.5048C52.4224 11.6982 52.4105 11.8916 52.4252 12.0842C52.4407 12.2936 52.3355 12.3257 52.1523 12.3248C51.9701 12.3239 51.8712 12.29 51.8731 12.0815C51.8804 10.8489 51.8758 9.61629 51.8777 8.38459C51.8777 8.27051 51.8484 8.11632 52.0324 8.12345C52.2723 8.13326 52.5341 8.02274 52.7173 8.32309C53.2694 9.2286 53.8489 10.1181 54.4184 11.0129C54.4807 11.1091 54.5475 11.2054 54.6666 11.3827Z" fill="white"/>
<path d="M31.4552 10.0776C31.6081 10.0776 31.7601 10.0776 31.913 10.0776C32.5832 10.0776 32.6189 10.1222 32.487 10.788C32.2682 11.8895 31.2931 12.5286 30.0635 12.3771C28.897 12.2336 28.0665 11.2487 28.1526 10.0946C28.2158 9.24343 28.6241 8.58658 29.4244 8.22384C30.1797 7.8816 30.9406 7.92884 31.6438 8.38605C31.7564 8.45913 32.0402 8.51706 31.8278 8.7773C31.6749 8.96536 31.5632 8.96892 31.3545 8.82276C30.6385 8.32277 29.7485 8.4315 29.1662 9.05537C28.5829 9.68103 28.5454 10.6115 29.0764 11.2621C29.5965 11.8993 30.5396 12.0821 31.2611 11.6703C31.4158 11.5821 31.5559 11.4573 31.674 11.3254C31.8379 11.1436 31.9899 10.8913 31.913 10.6801C31.8324 10.46 31.5385 10.6115 31.3416 10.5883C31.1457 10.5651 30.9452 10.5839 30.7474 10.583C30.5689 10.5821 30.3903 10.6249 30.3793 10.3334C30.3693 10.042 30.5387 10.0741 30.7227 10.075C30.9662 10.0785 31.2107 10.0776 31.4552 10.0776Z" fill="white"/>
<path d="M33.1992 10.2221C33.1992 9.61431 33.2056 9.00648 33.1955 8.39865C33.1919 8.19277 33.2514 8.10899 33.4784 8.11345C34.1487 8.12504 34.8189 8.12504 35.4882 8.11345C35.7015 8.10988 35.7326 8.19812 35.7363 8.37726C35.7409 8.58046 35.6557 8.6277 35.4671 8.62413C34.9956 8.61522 34.5222 8.63216 34.0507 8.617C33.8081 8.60898 33.7476 8.69365 33.7394 8.9227C33.7018 9.97527 33.6945 9.97527 34.785 9.97527C34.9681 9.97527 35.1512 9.98329 35.3334 9.97348C35.5303 9.96279 35.5504 10.0697 35.5514 10.2239C35.5523 10.3826 35.5193 10.4744 35.3289 10.4708C34.9022 10.4628 34.4755 10.4806 34.0498 10.4646C33.8053 10.4548 33.7467 10.5412 33.7394 10.7703C33.7064 11.7827 33.6982 11.7827 34.7273 11.7827C34.9553 11.7827 35.1851 11.7916 35.4122 11.78C35.6255 11.7685 35.7381 11.8014 35.74 12.0599C35.7418 12.3353 35.598 12.3273 35.4003 12.3255C34.7758 12.3192 34.1514 12.3121 33.527 12.3282C33.266 12.3353 33.1845 12.256 33.1919 12.0011C33.2111 11.4084 33.1992 10.8148 33.1992 10.2221Z" fill="white"/>
<path d="M37.4048 10.4297C37.4048 9.92612 37.3948 9.42257 37.4094 8.91901C37.4158 8.69442 37.3572 8.5946 37.1082 8.61688C36.8967 8.63649 36.6824 8.61332 36.47 8.62223C36.2832 8.63025 36.1935 8.57945 36.1953 8.37535C36.1972 8.18908 36.2475 8.11154 36.4517 8.11333C37.273 8.12135 38.0952 8.12046 38.9165 8.11333C39.1079 8.11154 39.1903 8.16235 39.1857 8.36288C39.182 8.55004 39.1271 8.64451 38.9238 8.62045C38.8936 8.61688 38.8634 8.61956 38.8323 8.62045C37.9606 8.64184 37.9606 8.64184 37.9606 9.48139C37.9606 10.3254 37.9551 11.1703 37.9643 12.0143C37.967 12.23 37.9286 12.3352 37.6695 12.3298C37.4305 12.3245 37.3984 12.2211 37.4012 12.0295C37.4103 11.4965 37.4048 10.9626 37.4048 10.4297Z" fill="white"/>
<path d="M43.4193 10.4537C43.4193 9.9484 43.4065 9.44306 43.4248 8.93862C43.434 8.69263 43.368 8.58658 43.0998 8.6151C42.9038 8.63649 42.7033 8.60886 42.5055 8.62223C42.2968 8.63559 42.2052 8.57766 42.2071 8.35218C42.2089 8.13917 42.3078 8.11243 42.4872 8.11421C43.2957 8.12045 44.1051 8.12224 44.9136 8.11332C45.1104 8.11154 45.1791 8.1668 45.1763 8.36376C45.1736 8.55003 45.126 8.64896 44.9191 8.62133C44.9044 8.61955 44.8888 8.62044 44.8733 8.62133C43.9705 8.66233 43.9705 8.66233 43.9705 9.53843C43.9705 10.3111 43.9797 11.083 43.9632 11.8557C43.9595 12.0321 44.1262 12.3164 43.7041 12.3307C43.2792 12.345 43.4312 12.0633 43.4248 11.8806C43.4092 11.4047 43.4193 10.9288 43.4193 10.4537Z" fill="white"/>
<path d="M41.6238 10.2549C41.6238 10.8485 41.6183 11.4421 41.6275 12.0356C41.6302 12.2299 41.5982 12.3378 41.3583 12.3306C41.1504 12.3244 41.0607 12.2789 41.0625 12.0561C41.0717 10.8396 41.0699 9.62301 41.0644 8.40646C41.0634 8.20949 41.1028 8.11681 41.3372 8.10968C41.6036 8.10255 41.6302 8.22286 41.6275 8.43052C41.6174 9.03836 41.6238 9.64708 41.6238 10.2549Z" fill="white"/>
<path d="M58.6197 19.9468C58.6197 19.0921 58.6196 19.1055 57.7398 19.0868C57.4083 19.0797 57.1657 19.0984 57.2545 19.5297C55.7712 18.5565 54.2779 18.7338 53.2048 19.9834C52.1162 21.2516 52.1876 23.1001 53.3714 24.2801C54.4702 25.3754 56.0175 25.4824 57.2691 24.5056C57.249 24.8505 57.2591 25.1589 57.2078 25.4565C57.1007 26.0742 56.7701 26.5305 56.1118 26.6856C55.4325 26.846 54.8181 26.7524 54.298 26.2435C54.1222 26.0715 54.1057 25.7105 53.8256 25.7141C53.5848 25.7177 53.3476 25.8879 53.1078 25.9841C53.0519 26.0064 52.996 26.0332 52.9374 26.0492C52.7159 26.1098 52.714 26.2203 52.8074 26.4084C53.3476 27.4904 54.5223 28.0893 55.9369 27.9886C57.1648 27.9012 58.0703 27.1918 58.4365 26.0305C58.5858 25.5572 58.6215 25.0706 58.6206 24.5787C58.6178 23.035 58.6197 21.4905 58.6197 19.9468ZM55.6357 23.945C54.635 23.9361 53.864 23.1161 53.8604 22.0582C53.8576 20.9584 54.613 20.1429 55.6403 20.1385C56.6594 20.134 57.3589 20.904 57.3653 22.0359C57.3717 23.1322 56.6273 23.9539 55.6357 23.945Z" fill="white"/>
<path d="M77.6667 18.0237C77.4277 16.8223 76.3363 15.9195 74.9849 15.8722C73.8724 15.8339 72.7582 15.8606 71.6448 15.8606C71.5642 15.8606 71.4534 15.8241 71.4324 15.9587C72.5 15.9587 73.5666 15.9587 74.6342 15.9587C74.637 15.9515 74.636 15.9426 74.6296 15.9319C74.604 15.8909 74.6525 15.9239 74.6406 15.9587C74.6663 15.9587 74.6928 15.9587 74.7184 15.9587C74.7184 15.9881 74.7194 16.0175 74.7194 16.0478C73.8642 16.0478 73.009 16.0674 72.1548 16.0398C71.7455 16.0264 71.6082 16.128 71.6118 16.5522C71.6329 19.136 71.6228 21.7197 71.6201 24.3034C71.6201 24.4621 71.6631 24.6278 71.5761 24.7918C71.49 24.627 71.5331 24.4621 71.5331 24.3025C71.5294 21.7188 71.5322 19.1351 71.5276 16.5514C71.5276 16.382 71.599 16.1913 71.4351 16.0469C71.4269 16.2091 71.4122 16.3713 71.4113 16.5344C71.4095 19.0281 71.4104 21.5227 71.4104 24.0164C71.4104 25.1109 71.4104 25.1038 72.5512 25.0556C72.7701 25.0467 72.8369 24.9906 72.8323 24.7776C72.8186 24.1688 72.8232 23.5601 72.8287 22.9514C72.8332 22.479 72.6629 21.8427 72.9083 21.5789C73.1912 21.2759 73.855 21.4924 74.3522 21.4906C74.984 21.4871 75.602 21.4416 76.1788 21.168C77.3636 20.6065 77.9386 19.39 77.6667 18.0237ZM74.8659 20.1244C74.2735 20.1609 73.6765 20.1288 73.0823 20.1404C72.8808 20.144 72.8177 20.0727 72.8232 19.8811C72.8351 19.4657 72.8268 19.0504 72.8268 18.6342C72.8268 18.2483 72.8387 17.8615 72.8222 17.4765C72.8131 17.2572 72.8955 17.1975 73.1107 17.202C73.6747 17.2144 74.2396 17.1913 74.8027 17.2118C75.6047 17.2412 76.2493 17.8829 76.2713 18.6449C76.2933 19.4105 75.6862 20.0745 74.8659 20.1244Z" fill="white"/>
<path d="M87.5412 21.1524C87.5119 19.8663 86.805 18.9777 85.58 18.6105C84.2066 18.1988 82.7672 18.5963 82.021 19.5633C81.8022 19.8476 81.8315 19.9831 82.1748 20.0909C82.3763 20.1542 82.5686 20.2513 82.7535 20.3538C82.9339 20.4545 83.0419 20.4643 83.2067 20.287C83.757 19.6952 84.6754 19.5731 85.3767 19.9724C85.807 20.2175 86.079 20.565 86.0661 21.1069C85.3465 20.8075 84.6213 20.7549 83.8898 20.8627C82.9119 21.0071 82.0494 21.3547 81.6951 22.3556C81.3444 23.3466 81.7647 24.3502 82.7013 24.8751C83.7909 25.4856 85.0251 25.36 85.7613 24.5685C85.8611 24.4607 85.9187 24.2985 86.0973 24.2477C86.1467 25.0525 86.1467 25.0525 86.9772 25.0516C87.0687 25.0516 87.1612 25.0418 87.2509 25.0534C87.4899 25.0846 87.5613 24.9945 87.5586 24.7584C87.5439 23.5561 87.5686 22.3538 87.5412 21.1524ZM86.0588 22.6345C85.8144 23.2958 84.9812 23.8742 84.1672 23.8751C84.0711 23.8573 83.8861 23.8413 83.714 23.7878C83.3898 23.688 83.1408 23.4981 83.0978 23.1443C83.0547 22.7887 83.2058 22.5089 83.5006 22.3012C84.0445 21.9188 85.3355 21.8894 85.916 22.2308C86.0954 22.3368 86.1275 22.45 86.0588 22.6345Z" fill="white"/>
<path d="M41.3645 18.8906C39.5378 18.8933 38.1141 20.2765 38.1113 22.051C38.1086 23.8192 39.5433 25.2042 41.3736 25.2007C43.2112 25.1962 44.6295 23.8174 44.6222 22.0421C44.6157 20.264 43.1929 18.888 41.3645 18.8906ZM41.3516 23.9476C40.339 23.9351 39.5296 23.0724 39.5497 22.0278C39.5717 20.9173 40.3555 20.1268 41.4203 20.1419C42.4742 20.1571 43.2295 20.9895 43.2048 22.108C43.1819 23.1178 42.3341 23.96 41.3516 23.9476Z" fill="white"/>
<path d="M48.4555 18.8907C46.628 18.8996 45.217 20.2837 45.2207 22.0644C45.2244 23.8362 46.6628 25.2141 48.4931 25.1998C50.3124 25.1856 51.7251 23.8228 51.7352 22.0724C51.7453 20.2855 50.2995 18.8818 48.4555 18.8907ZM48.4802 23.9467C47.4804 23.9512 46.6207 23.0671 46.6381 22.0519C46.6564 20.9521 47.4539 20.1349 48.4995 20.142C49.5716 20.1491 50.3032 20.9396 50.2977 22.084C50.2922 23.1027 49.4727 23.9423 48.4802 23.9467Z" fill="white"/>
<path d="M63.9763 22.8175C65.1986 22.3603 66.3999 21.8523 67.6094 21.363C67.755 21.3042 67.9225 21.289 67.8484 21.0323C67.5032 19.8238 66.2717 18.8827 64.8773 18.8907C64.7939 18.9005 64.5788 18.9094 64.3718 18.954C63.0854 19.2338 62.1799 20.2195 61.9959 21.527C61.7981 22.9325 62.4051 24.182 63.589 24.8077C64.8022 25.4476 66.3047 25.2809 67.343 24.3906C67.9656 23.8567 67.9656 23.8567 67.2926 23.4351C67.2413 23.4031 67.1846 23.3772 67.1397 23.338C66.9016 23.1312 66.746 23.1179 66.4942 23.3942C65.7965 24.1597 64.5064 24.1232 63.8573 23.3719C63.654 23.1339 63.5478 22.9779 63.9763 22.8175ZM63.3784 21.9325C63.3784 20.7641 64.3773 19.9147 65.4092 20.142C65.6207 20.1883 65.8121 20.2766 65.9787 20.412C66.3166 20.6865 66.3047 20.7632 65.8963 20.9272C65.0686 21.2587 64.2391 21.5894 63.3784 21.9325Z" fill="white"/>
<path d="M49.0182 8.0196C47.762 8.0098 46.7557 8.9875 46.7539 10.2192C46.7521 11.4286 47.7446 12.3947 48.9898 12.3956C50.2497 12.3965 51.2156 11.4554 51.2174 10.2254C51.2184 8.99106 50.2597 8.02941 49.0182 8.0196ZM48.9742 11.8876C48.0595 11.8805 47.361 11.1764 47.349 10.2504C47.3362 9.29409 48.0669 8.51246 48.9797 8.50623C49.8944 8.49999 50.6598 9.27537 50.6635 10.2112C50.6681 11.1595 49.9255 11.8956 48.9742 11.8876Z" fill="white"/>
<path d="M11.237 10.2108C10.5595 9.84629 9.76476 9.8552 9.0918 10.2162L16.9778 17.298L19.6276 14.7187L11.237 10.2108Z" fill="white"/>
<path d="M8.30306 10.9414C8.11079 11.248 8 11.5983 8 11.9699V24.7602C8 25.1203 8.10072 25.4634 8.282 25.7637L16.2129 18.0438L8.30306 10.9414Z" fill="white"/>
<path d="M23.1407 16.6074L20.6136 15.25L17.7734 18.0129L21.2536 21.1376L23.1416 20.1233C23.821 19.757 24.2275 19.1002 24.2275 18.3649C24.2266 17.6296 23.821 16.9728 23.1407 16.6074Z" fill="white"/>
<path d="M17.0086 18.7578L9.05664 26.4983C9.40182 26.6899 9.77996 26.7906 10.1609 26.7906C10.5289 26.7906 10.8988 26.6997 11.2376 26.5179L20.2562 21.6731L17.0086 18.7578Z" fill="white"/>
<rect x="0.5" y="0.5" width="102" height="35" rx="7.5" stroke="white"/>
</svg>
