<svg width="20" height="20" viewBox="0 0 20 20" fill="none" xmlns="http://www.w3.org/2000/svg">
<path fill-rule="evenodd" clip-rule="evenodd" d="M9.96182 20L9.97076 20H9.96768L9.96182 20ZM10.0324 20H10.0293L10.0382 20L10.0324 20ZM9.93127 19.9998L9.94092 19.9998H9.93537L9.93127 19.9998ZM10.0647 19.9998H10.0591L10.0688 19.9998L10.0647 19.9998ZM9.90182 19.9996L9.90826 19.9996L9.90311 19.9996H9.90182ZM10.0969 19.9996L10.0918 19.9996L10.0982 19.9996H10.0969ZM10.1292 19.9992L10.1269 19.9993L10.1356 19.9991L10.1292 19.9992ZM9.8644 19.9991L9.87311 19.9993L9.87084 19.9992L9.8644 19.9991ZM10.1614 19.9988L10.1562 19.9988L10.1669 19.9987L10.1614 19.9988ZM9.83315 19.9987L9.84389 19.9988L9.83861 19.9988L9.83315 19.9987ZM10.1936 19.9982L10.1865 19.9983L10.1964 19.9981L10.1936 19.9982ZM9.80361 19.9981L9.81354 19.9983L9.80643 19.9982L9.80361 19.9981ZM9.76701 19.9974L9.7758 19.9976L9.77424 19.9975L9.76701 19.9974ZM10.2258 19.9975L10.2242 19.9976L10.233 19.9974L10.2258 19.9975ZM9.7349 19.9966L9.74697 19.9969L9.74209 19.9968L9.7349 19.9966ZM10.258 19.9968L10.2531 19.9969L10.2651 19.9966L10.258 19.9968ZM10.2901 19.9959L10.2822 19.9961L10.2946 19.9958L10.2901 19.9959ZM9.70545 19.9958L9.71779 19.9961L9.70994 19.9959L9.70545 19.9958ZM9.67733 19.9949L9.68611 19.9952L9.67783 19.9949L9.67025 19.9947L9.67733 19.9949ZM10.3222 19.9949L10.3139 19.9952L10.3227 19.9949L10.3298 19.9947L10.3222 19.9949ZM10.3543 19.9939L10.3499 19.994L10.3634 19.9936L10.3543 19.9939ZM9.63666 19.9936L9.65014 19.994L9.64576 19.9939L9.63666 19.9936ZM9.6074 19.9925L9.62154 19.993L9.61369 19.9927L9.6074 19.9925ZM10.3864 19.9927L10.3785 19.993L10.3926 19.9925L10.3864 19.9927ZM9.57869 19.9913L9.59252 19.9919L9.5817 19.9914L9.57869 19.9913ZM10.4183 19.9914L10.4075 19.9919L10.4214 19.9913L10.4183 19.9914ZM9.53846 19.9895L9.5533 19.9902L9.54967 19.9901L9.53846 19.9895ZM10.4504 19.9901L10.4467 19.9902L10.4616 19.9895L10.4504 19.9901ZM9.50959 19.9882L9.52498 19.9889L9.51772 19.9886L9.50959 19.9882ZM10.4823 19.9886L10.4751 19.9889L10.4905 19.9882L10.4823 19.9886ZM9.48115 19.9868L9.49666 19.9875L9.48576 19.987L9.48115 19.9868ZM10.5143 19.987L10.5034 19.9875L10.5189 19.9868L10.5143 19.987ZM10.5462 19.9854L10.5321 19.9861L10.5446 19.9854L10.5594 19.9846L10.5462 19.9854ZM9.45541 19.9854L9.46795 19.9861L9.45381 19.9854L9.44064 19.9846L9.45541 19.9854ZM10.5781 19.9836L10.5719 19.9839L10.5877 19.983L10.5781 19.9836ZM9.41232 19.983L9.42818 19.9839L9.42193 19.9836L9.41232 19.983ZM9.38412 19.9813L9.39994 19.9823L9.39006 19.9817L9.38412 19.9813ZM10.61 19.9817L10.6001 19.9823L10.6159 19.9813L10.61 19.9817ZM9.35721 19.9796L9.37146 19.9805L9.35818 19.9797L9.34482 19.9789L9.35721 19.9796ZM10.6419 19.9797L10.6286 19.9805L10.6428 19.9796L10.6552 19.9789L10.6419 19.9797ZM10.6737 19.9777L10.6689 19.978L10.684 19.977L10.6737 19.9777ZM9.31604 19.977L9.33115 19.978L9.32639 19.9777L9.31604 19.977ZM9.28787 19.975L9.30272 19.9761L9.29459 19.9755L9.28787 19.975ZM10.7055 19.9755L10.6973 19.9761L10.7122 19.975L10.7055 19.9755ZM9.25978 19.973L9.27342 19.974L9.26283 19.9732L9.25978 19.973ZM10.7372 19.9732L10.7266 19.974L10.7403 19.973L10.7372 19.9732ZM9.22201 19.9702L9.23396 19.9711L9.23107 19.9709L9.22201 19.9702ZM10.769 19.9709L10.7661 19.9711L10.778 19.9702L10.769 19.9709ZM10.8006 19.9684L10.7949 19.9688L10.8071 19.9679L10.8006 19.9684ZM9.19295 19.9679L9.2051 19.9688L9.19939 19.9684L9.19295 19.9679ZM9.16463 19.9655L9.17494 19.9664L9.16768 19.9658L9.16463 19.9655ZM10.8324 19.9658L10.8251 19.9664L10.8354 19.9655L10.8324 19.9658ZM9.13346 19.9629L9.13654 19.9632L9.13603 19.9632L9.13346 19.9629ZM10.864 19.9632L10.8635 19.9632L10.8666 19.9629L10.864 19.9632ZM10.8956 19.9604L10.8928 19.9606L10.8999 19.96L10.8956 19.9604ZM9.10014 19.96L9.10721 19.9606L9.10439 19.9604L9.10014 19.96ZM9.07084 19.9573L9.07611 19.9579L9.07283 19.9575L9.07084 19.9573ZM10.9272 19.9575L10.9239 19.9579L10.9292 19.9573L10.9272 19.9575ZM8.43752 19.8784C3.65942 19.1274 0 14.9877 0 10C0 4.48087 4.48087 0 10 0C15.5192 0 20 4.48087 20 10C20 14.9877 16.3406 19.1274 11.5625 19.8784V12.8907H13.8926L14.336 10H11.5625V8.1242C11.5625 7.33337 11.9499 6.56251 13.1922 6.56251H14.4532V4.10157C14.4532 4.10157 13.3088 3.90626 12.2147 3.90626C9.93045 3.90626 8.43752 5.29064 8.43752 7.79689V10H5.89845V12.8907H8.43752V19.8784Z" fill="white"/>
</svg>
