<svg width="21" height="20" viewBox="0 0 21 20" fill="none" xmlns="http://www.w3.org/2000/svg">
<path fill-rule="evenodd" clip-rule="evenodd" d="M4.29845 0.0574947C3.17837 0.224476 2.2926 0.672573 1.48383 1.48139C0.652008 2.31321 0.195475 3.2419 0.0443526 4.40964C-0.0147842 4.86664 -0.0147842 15.1309 0.0443526 15.5879C0.195475 16.7557 0.652008 17.6843 1.48383 18.5162C2.31565 19.348 3.24434 19.8045 4.41207 19.9556C4.86908 20.0148 15.1333 20.0148 15.5903 19.9556C16.7581 19.8045 17.6868 19.348 18.5186 18.5162C19.3504 17.6843 19.8069 16.7557 19.958 15.5879C20.0172 15.1309 20.0172 4.86664 19.958 4.40964C19.8069 3.2419 19.3504 2.31321 18.5186 1.48139C17.6868 0.649567 16.7581 0.193033 15.5903 0.0419098C15.0899 -0.0228517 4.74151 -0.00859485 4.29845 0.0574947ZM16.0059 1.82406C16.4454 1.9771 16.5439 2.02651 16.9053 2.27524C17.4856 2.67459 17.9415 3.29444 18.1713 3.99631L18.3014 4.39366V9.99878C18.3014 15.3634 18.2983 15.6139 18.2284 15.8383C17.9638 16.6877 17.5141 17.3141 16.8435 17.7677C16.5572 17.9614 16.3055 18.0783 15.8975 18.2071L15.6063 18.299H10.0012H4.3961L3.99874 18.1689C2.90397 17.8105 2.13859 17.0087 1.77397 15.8383C1.70409 15.6139 1.70096 15.3634 1.70096 9.99878C1.70096 4.63412 1.70409 4.38363 1.77397 4.1593C2.05184 3.26729 2.53524 2.61979 3.26094 2.16748C3.56549 1.97769 4.08784 1.77379 4.41243 1.71801C4.51086 1.7011 7.07854 1.68981 10.1184 1.6929L15.6454 1.69852L16.0059 1.82406ZM15.1571 3.37478C14.8787 3.43509 14.7196 3.52161 14.5325 3.71441C14.2774 3.97732 14.2 4.1813 14.2009 4.58896C14.2016 4.89293 14.2156 4.96695 14.3049 5.13581C14.5203 5.54305 14.8846 5.78123 15.3373 5.8108C15.6676 5.83236 15.8436 5.78444 16.1229 5.59679C16.9002 5.07452 16.8109 3.88284 15.9642 3.47997C15.675 3.34229 15.4452 3.31237 15.1571 3.37478ZM9.36199 5.04069C7.47461 5.30228 5.86643 6.6179 5.27901 8.38091C5.07832 8.98322 5.02325 9.33163 5.02325 9.99878C5.02325 10.6664 5.07812 11.0133 5.27979 11.6198C5.74988 13.0335 6.96921 14.2499 8.39103 14.7236C8.98545 14.9216 9.33621 14.9767 10.0012 14.9767C10.6662 14.9767 11.017 14.9216 11.6114 14.7236C13.0332 14.2499 14.2525 13.0335 14.7226 11.6198C14.9243 11.0133 14.9792 10.6664 14.9792 9.99878C14.9792 9.12333 14.8088 8.40868 14.4302 7.69584C13.7098 6.33936 12.4644 5.407 10.9582 5.09651C10.5823 5.01902 9.7327 4.98929 9.36199 5.04069ZM11.0062 6.82957C11.4228 6.96792 11.5354 7.02209 11.8565 7.23856C12.5118 7.68037 12.9557 8.29209 13.209 9.10212C13.2879 9.35452 13.3 9.47405 13.3 9.99878C13.3 10.6435 13.2536 10.8798 13.0261 11.3942C12.7364 12.0494 12.0502 12.7347 11.3929 13.0253C10.8824 13.2511 10.6449 13.2976 10.0012 13.2976C9.35753 13.2976 9.11997 13.2511 8.60946 13.0253C7.95219 12.7347 7.26603 12.0494 6.97628 11.3942C6.7488 10.8798 6.70243 10.6435 6.70243 9.99878C6.70243 9.47405 6.71454 9.35452 6.79344 9.10212C6.92636 8.67703 7.04323 8.43173 7.26743 8.10741C7.70905 7.46863 8.32729 7.02471 9.08501 6.80234C9.46842 6.68985 9.52803 6.68379 10.1184 6.69754C10.5829 6.70836 10.6886 6.7241 11.0062 6.82957Z" fill="white"/>
</svg>
