<svg width="242" height="59" viewBox="0 0 242 59" fill="none" xmlns="http://www.w3.org/2000/svg">
<path fill-rule="evenodd" clip-rule="evenodd" d="M17.1985 2.07574C8.83669 2.07574 2.07348 8.82393 2.07348 17.1293V41.8741C2.07348 50.1795 8.83669 56.9277 17.1985 56.9277H224.801C233.163 56.9277 239.926 50.1795 239.926 41.8741V17.1293C239.926 8.82393 233.163 2.07574 224.801 2.07574H17.1985ZM0.167969 17.1293C0.167969 7.74902 7.80125 0.160156 17.1985 0.160156H224.801C234.199 0.160156 241.832 7.74902 241.832 17.1293V41.8741C241.832 51.2544 234.199 58.8433 224.801 58.8433H17.1985C7.80125 58.8433 0.167969 51.2544 0.167969 41.8741V17.1293Z" fill="white"/>
<path d="M225.093 43.555H228.846L228.617 44.5954H228.344C228.192 44.5878 228.04 44.609 227.896 44.6579C227.81 44.6974 227.739 44.7611 227.689 44.8409C227.616 45.0048 227.565 45.1774 227.537 45.3544L226.586 49.5514C226.561 49.6408 226.541 49.7318 226.528 49.8238C226.528 49.8669 226.54 49.9091 226.564 49.9449C226.588 49.9808 226.623 50.0086 226.663 50.0247C226.808 50.0686 226.96 50.0853 227.111 50.0738H227.438L227.192 51.1187H223.475L223.721 50.0738H223.999C224.151 50.0821 224.303 50.0639 224.448 50.0203C224.53 49.9864 224.6 49.9289 224.65 49.8551C224.724 49.6997 224.776 49.5342 224.802 49.3639L225.739 45.2338C225.766 45.13 225.784 45.0239 225.793 44.9168C225.796 44.8704 225.788 44.8239 225.768 44.7817C225.749 44.7395 225.719 44.703 225.681 44.6757C225.54 44.6145 225.386 44.5884 225.232 44.5998H224.905L225.093 43.555ZM217.92 43.3094H218.606L218.646 43.5505H222.74L222.829 43.305H223.515L224.026 46.0375L222.928 46.2474L222.883 46.0866C222.775 45.6401 222.699 45.3812 222.659 45.2829C222.583 45.0828 222.46 44.9037 222.3 44.7606C222.192 44.6455 222.045 44.574 221.888 44.5596C221.859 44.5581 221.83 44.5639 221.805 44.5764C221.779 44.5889 221.756 44.6077 221.74 44.6311C221.686 44.7365 221.657 44.8524 221.655 44.9704L220.641 49.3773C220.592 49.6363 220.57 49.7747 220.57 49.8015C220.568 49.8471 220.58 49.8922 220.604 49.9311C220.628 49.97 220.663 50.001 220.704 50.0203C220.819 50.0622 220.941 50.079 221.063 50.0694H221.412L221.17 51.1142H217.498L217.745 50.0694H218.153C218.233 50.0776 218.314 50.07 218.391 50.047C218.468 50.024 218.539 49.9861 218.601 49.9354C218.726 49.7691 218.806 49.574 218.834 49.3684L219.825 44.9927C219.848 44.9021 219.862 44.8093 219.866 44.7159C219.867 44.6937 219.862 44.6715 219.853 44.6513C219.844 44.6311 219.83 44.6134 219.812 44.5998C219.761 44.5635 219.699 44.5475 219.637 44.5552C219.465 44.5538 219.294 44.592 219.139 44.6668C218.855 44.8142 218.598 45.0073 218.377 45.2383C218.061 45.5894 217.775 45.9657 217.521 46.3635L216.391 45.8723L217.92 43.3094ZM208.505 44.5909L208.738 43.5461H214.871L215.602 45.8187L214.521 46.1447C214.456 45.9266 214.356 45.7202 214.225 45.533C214.088 45.3377 213.913 45.1721 213.71 45.0463C213.503 44.924 213.275 44.8407 213.037 44.8007C212.787 44.7571 212.533 44.7377 212.28 44.7427H211.195L210.746 46.676H210.993C211.213 46.6837 211.433 46.6642 211.647 46.618C211.781 46.5874 211.903 46.521 212.002 46.426C212.104 46.3113 212.181 46.1757 212.226 46.0286C212.276 45.8837 212.312 45.7341 212.333 45.5821H213.351L212.625 48.7924H211.643C211.699 48.597 211.737 48.3967 211.755 48.1941C211.758 48.116 211.739 48.0386 211.702 47.9696C211.665 47.9007 211.611 47.8426 211.544 47.8012C211.331 47.7164 211.101 47.6828 210.872 47.7029H210.553L210.15 49.4889L210.101 49.6675C210.085 49.7136 210.076 49.7617 210.074 49.8104C210.073 49.8401 210.083 49.8689 210.102 49.8918C210.121 49.9147 210.148 49.9301 210.177 49.9354C210.298 49.9444 210.419 49.9444 210.54 49.9354H211.168C211.603 49.9491 212.039 49.8979 212.459 49.7836C212.881 49.6539 213.266 49.4241 213.58 49.1139C213.903 48.7902 214.156 48.4043 214.324 47.9798L215.382 48.395L213.921 51.1142H207.012L207.258 50.0694H207.527C207.719 50.0884 207.911 50.0428 208.074 49.9399C208.213 49.7683 208.3 49.5607 208.325 49.3416L209.249 45.2696C209.278 45.1477 209.297 45.0238 209.307 44.899C209.31 44.8371 209.293 44.776 209.258 44.7248C209.23 44.678 209.188 44.6418 209.137 44.6221C209.045 44.595 208.95 44.5844 208.854 44.5909H208.505ZM199.65 43.5416H203.371L203.129 44.5864H202.833C202.688 44.5765 202.544 44.5963 202.407 44.6445C202.325 44.6891 202.256 44.7555 202.21 44.8365C202.137 44.9767 202.087 45.1274 202.062 45.2829L201.717 46.801L203.909 45.1803C204.124 44.9972 204.227 44.8633 204.227 44.765C204.23 44.7313 204.222 44.6976 204.204 44.6687C204.186 44.6399 204.16 44.6173 204.129 44.6043C204.026 44.5704 203.918 44.5567 203.81 44.5641L204.061 43.5193H207.648L207.397 44.5641C207.183 44.5568 206.969 44.5855 206.765 44.6489C206.529 44.7498 206.306 44.8755 206.097 45.024L203.855 46.6537L205.528 49.4041C205.633 49.6117 205.786 49.7909 205.976 49.9265C206.19 50.0153 206.421 50.0549 206.653 50.0426L206.424 51.0829H202.64L202.878 50.0381H203.124C203.258 50.05 203.392 50.0269 203.514 49.9712C203.545 49.9488 203.57 49.9192 203.587 49.8848C203.603 49.8505 203.611 49.8127 203.609 49.7747C203.59 49.6404 203.544 49.5114 203.474 49.3952L202.42 47.6628L201.362 48.3593L201.111 49.4845C201.082 49.5864 201.064 49.6912 201.058 49.797C201.056 49.8357 201.067 49.8738 201.087 49.9065C201.108 49.9392 201.138 49.9648 201.174 49.9801C201.34 50.0297 201.513 50.0493 201.685 50.0381H201.954L201.703 51.0829H197.973L198.206 50.0381H198.502C198.653 50.0481 198.805 50.03 198.95 49.9846C199.03 49.9523 199.098 49.8981 199.148 49.8283C199.219 49.6952 199.271 49.5522 199.3 49.4041L200.259 45.1445C200.284 45.051 200.299 44.9553 200.304 44.8588C200.307 44.8138 200.298 44.7688 200.279 44.7281C200.259 44.6875 200.229 44.6525 200.192 44.6266C200.051 44.5664 199.897 44.5433 199.744 44.5596H199.399L199.65 43.5416ZM193.176 46.7385H194.072C194.427 46.756 194.782 46.7122 195.121 46.6091C195.337 46.5319 195.524 46.3899 195.655 46.2027C195.782 46.0189 195.849 45.8008 195.848 45.5777C195.859 45.4459 195.83 45.3139 195.767 45.198C195.703 45.0821 195.606 44.9874 195.489 44.9258C195.126 44.7805 194.736 44.718 194.346 44.7427H193.642L193.176 46.7385ZM191.086 43.5416H194.736C195.359 43.5142 195.983 43.5865 196.583 43.7559C196.939 43.8781 197.251 44.1017 197.48 44.3989C197.691 44.6829 197.803 45.0279 197.798 45.3812C197.798 45.9489 197.574 46.4939 197.175 46.8993C196.696 47.3678 196.078 47.6686 195.413 47.7565L196.493 49.4979C196.593 49.6861 196.734 49.8495 196.906 49.9756C197.138 50.0518 197.383 50.0822 197.628 50.0649L197.394 51.1052H195.332L193.539 47.8503H192.902L192.508 49.5649C192.485 49.6434 192.473 49.7244 192.472 49.806C192.47 49.8509 192.483 49.8952 192.508 49.9328C192.533 49.9703 192.569 49.9993 192.611 50.0158C192.745 50.0542 192.884 50.0693 193.023 50.0605H193.346L193.117 51.1052H189.387L189.616 50.0605H189.876C190.08 50.0804 190.285 50.0416 190.468 49.9488C190.593 49.8301 190.675 49.6729 190.701 49.5023L191.665 45.2383C191.694 45.1335 191.711 45.0256 191.714 44.9168C191.716 44.853 191.697 44.7903 191.66 44.7382C191.645 44.7117 191.624 44.6885 191.599 44.6701C191.575 44.6516 191.547 44.6384 191.517 44.6311C191.401 44.6103 191.284 44.6028 191.167 44.6087H190.817L191.086 43.5416ZM186.275 47.6047L185.971 45.3097L184.675 47.6003L186.275 47.6047ZM185.72 43.5372H187.432L188.419 49.4309C188.434 49.5848 188.474 49.7353 188.535 49.8774C188.571 49.9399 188.628 49.9875 188.697 50.0114C188.842 50.0527 188.994 50.0693 189.145 50.0605L188.885 51.1052H185.24L185.482 50.0605H185.836C186.004 50.0709 186.173 50.0497 186.334 49.9979C186.399 49.9706 186.455 49.9247 186.494 49.8659C186.533 49.8071 186.554 49.7381 186.553 49.6675C186.546 49.5181 186.531 49.369 186.509 49.221L186.423 48.6183H184.07L183.563 49.4889C183.487 49.6025 183.436 49.7301 183.411 49.864C183.411 49.9017 183.424 49.9383 183.446 49.9686C183.469 49.999 183.5 50.0217 183.536 50.0337C183.682 50.0732 183.834 50.0868 183.984 50.0738H184.294L184.056 51.1187H180.792L181.048 50.0738C181.199 50.0821 181.35 50.0671 181.496 50.0292C181.592 49.994 181.68 49.941 181.756 49.8729C181.888 49.7202 182.008 49.5574 182.115 49.3862L185.72 43.5372ZM172.977 43.5372H176.031L176.102 47.8369L178.465 43.5372H182.052L181.823 44.5775H181.536C181.408 44.5714 181.28 44.585 181.155 44.6177C181.079 44.6425 181.011 44.6872 180.958 44.7471C180.89 44.821 180.836 44.9075 180.801 45.0017C180.801 45.0284 180.77 45.1267 180.738 45.2964L179.81 49.5291C179.785 49.6214 179.767 49.7154 179.757 49.8104C179.756 49.8455 179.765 49.88 179.783 49.9106C179.8 49.9411 179.825 49.9666 179.855 49.9846C179.943 50.0397 180.047 50.0648 180.151 50.056H180.546L180.299 51.1008H176.775L177.008 50.056H177.241C177.445 50.0758 177.651 50.0322 177.829 49.931C177.972 49.7925 178.065 49.6102 178.093 49.413L179.178 44.6266L175.914 51.1008H175.044L174.91 44.4793L173.767 49.5291C173.738 49.6145 173.72 49.703 173.713 49.7926C173.711 49.8311 173.719 49.8695 173.735 49.9044C173.752 49.9394 173.776 49.9699 173.807 49.9935C173.885 50.0417 173.975 50.0651 174.067 50.0605H174.515L174.269 51.1052H171.247L171.489 50.0605H171.7C171.863 50.069 172.027 50.0509 172.184 50.0069C172.272 49.9717 172.349 49.9148 172.408 49.8417C172.487 49.7037 172.541 49.5524 172.565 49.3952L173.524 45.1669C173.548 45.0715 173.563 44.9745 173.569 44.8767C173.572 44.7968 173.545 44.7188 173.493 44.6579C173.452 44.6223 173.405 44.5956 173.353 44.5795C173.301 44.5633 173.247 44.5581 173.193 44.5641H172.789L172.977 43.5372ZM166.4 46.7296H167.297C167.651 46.7481 168.006 46.7058 168.346 46.6046C168.563 46.5268 168.749 46.383 168.88 46.1938C169.009 46.0112 169.077 45.7922 169.072 45.5687C169.085 45.4368 169.057 45.3044 168.993 45.1882C168.929 45.0721 168.832 44.9776 168.714 44.9168C168.351 44.7709 167.961 44.7083 167.57 44.7338H166.871L166.4 46.7296ZM164.306 43.5327H167.956C168.579 43.5052 169.203 43.5776 169.803 43.747C170.16 43.8679 170.472 44.0918 170.7 44.39C170.914 44.6722 171.027 45.0184 171.018 45.3723C171.02 45.9405 170.796 46.4863 170.395 46.8904C169.917 47.3588 169.298 47.6597 168.633 47.7476L169.714 49.4889C169.813 49.6786 169.956 49.8423 170.13 49.9667C170.363 50.0433 170.608 50.0737 170.852 50.056L170.615 51.1008H168.602L166.808 47.8458H166.172L165.777 49.5604C165.755 49.639 165.743 49.7199 165.741 49.8015C165.74 49.8471 165.753 49.8921 165.778 49.9298C165.804 49.9676 165.841 49.9962 165.885 50.0114C166.017 50.0499 166.155 50.065 166.293 50.056H166.62L166.387 51.1008H162.657L162.89 50.056H163.15C163.352 50.0766 163.556 50.0378 163.737 49.9444C163.867 49.8286 163.949 49.6699 163.97 49.4979L164.939 45.2338C164.965 45.1286 164.98 45.0208 164.983 44.9124C164.986 44.8491 164.969 44.7866 164.934 44.7338C164.901 44.6822 164.85 44.6443 164.791 44.6266C164.674 44.6138 164.557 44.6138 164.441 44.6266H164.091L164.306 43.5327ZM155.842 44.573L156.075 43.5282H162.19L162.921 45.8009L161.841 46.1313C161.776 45.9128 161.676 45.7063 161.545 45.5196C161.409 45.3219 161.233 45.1546 161.029 45.0284C160.822 44.9061 160.594 44.8229 160.357 44.7829C160.106 44.7413 159.853 44.7234 159.599 44.7293H158.523L158.074 46.6626H158.321C158.541 46.6693 158.761 46.6483 158.976 46.6001C159.108 46.5692 159.23 46.5046 159.33 46.4126C159.431 46.2966 159.507 46.1614 159.554 46.0152C159.604 45.87 159.64 45.7205 159.662 45.5687H160.679L159.953 48.779H158.935C158.992 48.5837 159.03 48.3833 159.047 48.1807C159.05 48.1026 159.032 48.0252 158.995 47.9562C158.958 47.8872 158.903 47.8292 158.837 47.7878C158.623 47.7052 158.393 47.6716 158.164 47.6896H157.846L157.442 49.4756L157.393 49.6497C157.377 49.6958 157.368 49.7439 157.366 49.7926C157.366 49.8222 157.376 49.851 157.395 49.8739C157.413 49.8968 157.44 49.9123 157.469 49.9176C157.59 49.9252 157.711 49.9252 157.832 49.9176H158.46C158.896 49.929 159.33 49.8778 159.751 49.7658C160.174 49.6344 160.559 49.4031 160.872 49.0916C161.194 48.7687 161.447 48.3845 161.616 47.9619L162.674 48.3727L161.213 51.0963H154.349L154.595 50.0515H154.864C155.056 50.0727 155.249 50.027 155.411 49.922C155.552 49.7515 155.639 49.5434 155.662 49.3237L156.586 45.2562C156.615 45.1327 156.634 45.0074 156.644 44.8811C156.648 44.8206 156.63 44.7607 156.595 44.7114C156.566 44.6646 156.524 44.6272 156.474 44.6043C156.382 44.5816 156.286 44.5725 156.191 44.5775L155.842 44.573ZM150.596 46.9037H150.995C151.297 46.9178 151.599 46.8877 151.892 46.8144C152.143 46.7331 152.364 46.5773 152.524 46.3679C152.689 46.1609 152.779 45.9045 152.779 45.6401C152.787 45.4624 152.737 45.287 152.636 45.1401C152.538 45.0003 152.401 44.8929 152.241 44.832C151.976 44.757 151.701 44.7253 151.425 44.7382H151.116L150.596 46.9037ZM148.538 43.5238H151.892C152.457 43.4993 153.022 43.578 153.56 43.7559C153.907 43.8928 154.209 44.125 154.429 44.4257C154.637 44.7326 154.743 45.0962 154.734 45.466C154.736 45.7499 154.684 46.0315 154.582 46.2965C154.479 46.5712 154.327 46.8253 154.133 47.0466C153.936 47.2782 153.701 47.4758 153.439 47.6315C153.17 47.7869 152.878 47.8971 152.573 47.9575C152.121 48.0521 151.659 48.1 151.197 48.1003H150.331L150.018 49.4845C149.988 49.5876 149.971 49.6941 149.968 49.8015C149.967 49.838 149.975 49.8742 149.993 49.9064C150.01 49.9385 150.036 49.9655 150.067 49.9846C150.187 50.0363 150.318 50.0578 150.448 50.0471H150.861L150.605 51.0874H146.866L147.103 50.0426H147.39C147.583 50.0621 147.777 50.0216 147.946 49.9265C148.075 49.8005 148.159 49.6358 148.184 49.4577L149.157 45.149C149.179 45.0568 149.193 44.9625 149.197 44.8677C149.2 44.8065 149.185 44.7457 149.152 44.6936C149.119 44.6439 149.067 44.6088 149.009 44.5954C148.903 44.5712 148.794 44.5621 148.686 44.5686H148.305L148.538 43.5238ZM143.606 42.6754C143.942 42.1577 144.324 41.672 144.75 41.2243C144.924 41.0475 145.16 40.9437 145.409 40.9341C145.601 40.927 145.788 40.9961 145.929 41.1261C145.993 41.188 146.043 41.2623 146.077 41.3445C146.111 41.4267 146.128 41.515 146.126 41.6038C146.121 41.766 146.065 41.9223 145.965 42.0503C145.794 42.2367 145.588 42.3884 145.359 42.4968L144.064 43.1398L143.606 42.6754ZM140.67 43.5193H144.229L144.001 44.5641H143.629C143.511 44.5545 143.393 44.5713 143.283 44.6132C143.241 44.6396 143.206 44.6766 143.183 44.7204C143.159 44.7643 143.148 44.8135 143.149 44.8632C143.155 44.9587 143.178 45.0525 143.216 45.1401L143.862 46.9261L145.072 45.2829C145.146 45.1836 145.211 45.0792 145.27 44.9704C145.294 44.9233 145.308 44.8715 145.31 44.8186C145.311 44.7833 145.303 44.7483 145.286 44.717C145.27 44.6857 145.246 44.6592 145.216 44.64C145.093 44.5829 144.956 44.5597 144.821 44.573H144.575L144.821 43.5327H147.991L147.758 44.5775C147.607 44.5704 147.457 44.5839 147.31 44.6177C147.212 44.6536 147.12 44.7032 147.036 44.765C146.915 44.868 146.806 44.9832 146.709 45.1088L144.324 48.0735L144.014 49.4577C143.989 49.5515 143.971 49.647 143.96 49.7434C143.958 49.794 143.969 49.8443 143.993 49.8891C144.016 49.9339 144.052 49.9715 144.095 49.9979C144.219 50.0444 144.353 50.0627 144.485 50.0515H144.839L144.593 51.0963H140.93L141.167 50.056H141.387C141.55 50.0632 141.713 50.0466 141.871 50.0069C141.955 49.9761 142.029 49.9237 142.086 49.8551C142.158 49.7345 142.205 49.6009 142.225 49.4621L142.53 48.0914L141.324 45.2249C141.263 45.0689 141.186 44.9193 141.096 44.7784C141.034 44.7082 140.955 44.6545 140.867 44.6221C140.733 44.5809 140.594 44.5628 140.454 44.5686L140.67 43.5193ZM138.93 43.5193L139.141 46.1402L138.033 46.3054C137.857 45.8016 137.53 45.3637 137.096 45.0508C136.679 44.7382 136.17 44.5704 135.648 44.573C135.413 44.566 135.179 44.6039 134.958 44.6847C134.789 44.7402 134.641 44.8443 134.532 44.9838C134.444 45.0931 134.393 45.2278 134.388 45.3678C134.393 45.4608 134.417 45.5518 134.461 45.6344C134.504 45.7169 134.565 45.789 134.639 45.8455C134.948 46.0651 135.299 46.2172 135.67 46.292C136.333 46.4615 136.979 46.6871 137.603 46.9662C137.968 47.134 138.287 47.3885 138.531 47.7074C138.748 48.0139 138.859 48.3819 138.849 48.7567C138.847 49.1076 138.76 49.4527 138.596 49.7634C138.432 50.0741 138.196 50.3413 137.908 50.5427C137.281 51.0101 136.511 51.2482 135.729 51.2169C135.257 51.2235 134.787 51.1526 134.339 51.007C133.921 50.8604 133.534 50.6362 133.2 50.3462L132.734 51.0785H131.949V48.0378L133.057 47.9575C133.19 48.3502 133.401 48.7129 133.675 49.0247C133.95 49.3365 134.284 49.5914 134.657 49.7747C135.008 49.939 135.39 50.0258 135.778 50.0292C136.126 50.0513 136.472 49.9605 136.764 49.7702C136.87 49.7023 136.958 49.6092 137.019 49.4993C137.08 49.3895 137.113 49.2662 137.114 49.1407C137.113 49.0475 137.094 48.9555 137.056 48.8703C137.018 48.785 136.963 48.7084 136.894 48.6451C136.637 48.4511 136.34 48.3154 136.025 48.2477C135.128 47.9798 134.487 47.7655 134.124 47.6137C133.82 47.4942 133.54 47.3235 133.294 47.1091C133.102 46.9258 132.95 46.7055 132.846 46.4617C132.74 46.2224 132.685 45.964 132.685 45.7027C132.687 45.2993 132.81 44.9059 133.039 44.573C133.307 44.1944 133.677 43.8988 134.106 43.7202C134.607 43.4959 135.152 43.3846 135.702 43.3943C136.13 43.3927 136.556 43.4621 136.962 43.5997C137.267 43.704 137.554 43.8546 137.814 44.0461L138.154 43.5014L138.93 43.5193Z" fill="white"/>
<path fill-rule="evenodd" clip-rule="evenodd" d="M57.3016 5.82812H57.8575L58.0324 5.85044C58.4386 5.89608 58.817 6.07858 59.1048 6.36766C59.3926 6.65674 59.5727 7.03506 59.615 7.43997V7.92219C59.615 7.98024 59.615 8.03829 59.5926 8.1008C59.3281 9.62335 58.0682 10.5342 56.6694 9.70371C55.8041 9.18131 55.9879 8.90448 55.4992 8.97592C55.293 9.00717 55.1271 9.01165 54.9253 9.0429C53.9389 9.18925 53.01 9.5963 52.2352 10.2217C51.1612 11.1568 50.3825 12.382 49.9935 13.749C49.7205 14.6026 49.5136 15.4758 49.3748 16.361C49.2493 17.1111 49.182 17.8701 49.0968 18.647C49.0744 18.8614 49.0699 19.0667 49.0475 19.2632C49.0273 19.4665 49.0183 19.6707 49.0206 19.8749L48.922 22.3351C48.922 23.5898 48.8457 24.8623 48.8457 26.1303L48.8188 26.7465C48.8347 26.9545 48.8347 27.1635 48.8188 27.3716C48.765 27.7377 48.8188 28.2333 48.774 28.6084L48.7336 29.2067C48.7336 29.4076 48.7337 29.6219 48.6888 29.805C48.626 30.3988 48.5857 30.9525 48.5005 31.5374L48.1912 33.1492C48.3032 33.2073 48.4198 33.2341 48.5319 33.301C48.9243 33.5257 49.2649 33.83 49.5317 34.194C49.6663 34.3772 49.7877 34.5697 49.8949 34.77C49.9621 34.8861 49.989 34.9709 50.0473 35.087C50.944 36.873 51.0606 39.6949 50.6795 41.5791C50.5361 42.3124 50.2933 43.0229 49.9576 43.691C49.85 43.9008 49.7066 44.0839 49.6034 44.2848L49.3703 43.691C49.1295 43.164 48.8123 42.6751 48.4288 42.2399C47.4155 41.0611 45.6939 40.1414 43.9857 40.3557C43.3719 40.4312 42.7968 40.6949 42.3402 41.1103L41.9591 41.5166C41.808 41.494 41.6583 41.4627 41.5108 41.4228L41.0848 41.329C40.7845 41.271 40.5334 41.2129 40.2195 41.1549C39.6232 41.0477 39.0628 40.954 38.4261 40.8602C38.0495 40.8066 36.4983 40.6191 36.0858 40.6057C35.9468 40.6057 35.745 40.6057 35.5926 40.5745L34.6376 40.5209C34.469 40.5073 34.2996 40.5073 34.131 40.5209C33.9606 40.5209 33.8351 40.4941 33.6378 40.4941H32.5976C32.23 40.4941 31.9386 40.5209 31.5844 40.5209L29.6296 40.6414C29.2664 40.6414 28.1769 40.8066 27.7734 40.8602L27.3699 40.9629L26.9754 41.0343C26.8857 41.0343 26.4329 40.7754 26.2849 40.7129C26.0397 40.6167 25.788 40.5376 25.5317 40.4762C24.935 40.3297 24.3128 40.319 23.7114 40.445C23.8986 40.3062 24.0965 40.1823 24.3032 40.0744C24.9482 39.7417 25.6183 39.4595 26.3073 39.2305C27.2985 38.9093 28.3113 38.6587 29.3381 38.4804C29.8806 38.3822 30.4321 38.2973 30.9881 38.2304L31.831 38.1321C32.1 38.1009 32.3869 38.1009 32.6963 38.0607L33.1446 38.0294H33.3957C33.4988 38.0294 33.4854 38.0294 33.593 38.0026C33.7006 37.9758 33.9113 38.0026 34.0413 38.0026C34.409 37.958 36.0365 37.9625 36.3682 37.9803L37.7133 38.0517C37.8632 38.0532 38.0129 38.0637 38.1616 38.083C39.8106 38.2094 41.4456 38.4768 43.0486 38.8823C44.4878 39.2394 46.4381 39.9985 47.6038 40.9451L48.1104 41.3916C48.0603 41.2586 47.9988 41.1301 47.9266 41.0075C47.8863 40.9272 47.8683 40.9049 47.828 40.8334L47.4245 40.1503C47.1829 39.7678 46.9131 39.4036 46.6175 39.0608C46.5323 38.9581 46.4426 38.8733 46.3574 38.7751L46.0884 38.4804L45.8149 38.208C45.5383 37.9354 45.2382 37.6874 44.9182 37.4668L44.6044 37.2391C43.4504 36.4612 42.1658 35.8956 40.8114 35.5692C39.8831 35.3393 38.9365 35.1899 37.9823 35.1227C37.6236 35.1227 37.3098 35.0736 36.9466 35.0736C36.76 35.0871 36.5727 35.0871 36.3862 35.0736H35.337C34.8528 35.0736 33.7723 35.154 33.2881 35.2031L32.7994 35.2567C32.4542 35.3058 32.1448 35.3281 31.8085 35.3772L29.921 35.6675C28.9974 35.8193 28.0604 35.9934 27.1681 36.2033C25.9935 36.4801 24.7919 36.7435 23.6307 37.0382L20.1694 37.9312C19.9632 37.9848 19.9318 38.016 19.7839 37.8821C18.1384 36.3283 22.7071 34.578 23.6576 34.261L25.2985 33.7252C25.581 33.6404 25.8724 33.5466 26.1594 33.4752C26.4463 33.4037 26.7288 33.3189 27.0202 33.2474C29.492 32.6371 32.0071 32.2162 34.5435 31.9883C34.8708 31.9616 35.2294 31.9169 35.5567 31.9124C35.6867 31.9124 35.6957 31.8901 35.8033 31.8856C35.9109 31.8812 35.9827 31.8856 36.0723 31.8856C36.162 31.8856 36.431 31.8856 36.5879 31.8588C36.7448 31.8321 36.9466 31.8588 37.1394 31.8588C37.5877 31.8231 39.4663 31.8053 39.8295 31.8588C40.0043 31.8812 40.1926 31.8588 40.3675 31.8588C40.6948 31.8588 41.0714 31.9348 41.3808 31.9348C41.6901 31.9348 42.5599 32.0464 42.8558 32.091C43.1517 32.1357 43.4835 32.1803 43.8018 32.2339C44.1202 32.2875 44.4788 32.3947 44.6985 32.4036C44.7144 32.3104 44.7399 32.2191 44.7747 32.1312C44.9547 31.5439 45.1044 30.9478 45.2231 30.3452C45.2545 30.1532 45.2948 29.9925 45.3262 29.8094L45.5773 28.1396C45.649 27.6573 45.8597 25.7017 45.8732 25.2016C45.8732 24.7551 45.9942 23.7594 45.9942 23.4156L46.0705 22.1833C46.1108 21.8172 46.1377 21.3706 46.1646 21.0001C46.1915 20.6295 46.1915 20.2187 46.2498 19.799L46.3619 18.6336C46.5165 16.45 46.969 14.2974 47.7069 12.2353C48.0413 11.3445 48.4937 10.5021 49.052 9.7305C49.1506 9.59655 49.2268 9.49386 49.33 9.36884L50.6346 8.10524C51.0043 7.81116 51.404 7.55676 51.8272 7.34622L52.2756 7.13189C52.7306 6.91666 53.2049 6.74476 53.6924 6.61843C54.4066 6.44053 55.1314 6.3078 55.8624 6.22104C56.3389 6.07647 56.8241 5.96164 57.315 5.87723" fill="white"/>
<path fill-rule="evenodd" clip-rule="evenodd" d="M12.1289 18.0164C12.1338 19.015 12.3364 20.0027 12.7252 20.9231C12.8664 21.2876 13.028 21.6439 13.2094 21.9903C13.8156 23.1598 14.5301 24.2705 15.3436 25.3077L15.6933 25.7542C15.9937 26.1427 16.3254 26.5668 16.6617 26.9285L16.9442 27.2366C16.989 27.2857 16.9845 27.2946 17.0338 27.3482L18.2399 28.6609C18.4192 28.8931 19.6387 30.0719 20.0019 30.4246L22.0643 32.2865C22.1091 32.3222 22.1271 32.349 22.1674 32.3802C22.3339 32.5474 22.5172 32.697 22.7144 32.8267L22.3109 32.1213C22.266 32.0364 22.2167 31.965 22.1719 31.8891C21.8984 31.4113 20.7999 29.4423 20.5399 29.0583L21.737 28.3528C22.0329 28.1787 22.6785 27.8438 22.9969 27.7099L25.6869 26.5713C25.8093 26.8049 25.9471 27.0302 26.0994 27.2455C26.2429 27.4866 26.3729 27.692 26.5209 27.9331L28.7626 31.9739L28.8119 32.0722L28.8702 32.1614C28.8268 31.894 28.7592 31.631 28.6684 31.3756L27.9914 29.0717C27.7762 28.326 27.4983 27.5983 27.2337 26.8705C27.1934 26.7454 27.153 26.6383 27.1037 26.5043C27.0437 26.3832 26.9971 26.256 26.9647 26.1248L28.8478 25.6069C29.1751 25.5265 29.4755 25.4506 29.8252 25.3792C30.1544 25.2899 30.4881 25.2184 30.825 25.1648C30.9929 25.5111 31.1425 25.8658 31.2733 26.2275C31.7217 27.2768 32.049 28.3618 32.4077 29.4378L32.466 29.5762V28.9601C32.466 28.6163 32.4211 27.7947 32.3763 27.4509L32.1969 26.0266C32.1431 25.656 32.0759 25.2854 31.9952 24.9461L34.1204 24.6692C34.6584 24.6023 35.7927 24.4996 36.3621 24.4996C36.3621 24.6291 36.658 25.7185 36.6984 25.9417C36.7387 26.165 36.7925 26.424 36.8373 26.6874C36.8373 26.808 36.8777 26.9419 36.8956 27.0714C36.9136 27.2009 36.8956 27.3616 36.9808 27.4554C36.9808 26.8437 37.0077 26.165 36.9584 25.5578C36.9584 25.3122 36.9584 25.0532 36.9225 24.8077C36.9225 24.705 36.8911 24.5353 36.8822 24.4505C37.2902 24.4505 37.6264 24.4505 38.0434 24.4505H39.2046C39.5767 24.4505 40.0385 24.4192 40.3927 24.4505C40.7469 24.4817 41.1549 24.4996 41.5584 24.4996C41.3891 24.3985 41.2122 24.3104 41.0294 24.2361C40.581 24.0084 40.0923 23.8522 39.6216 23.6691C38.7936 23.3796 37.9414 23.1645 37.075 23.0261C36.9539 22.9996 36.831 22.9817 36.7073 22.9726C36.5907 22.4591 36.5325 21.8786 36.4114 21.3696L36.0393 19.8203C36.4876 19.7131 37.3081 19.7489 37.8327 19.6774L40.6707 19.5971C41.2894 19.5971 41.953 19.6462 42.5762 19.6462C42.6508 19.6399 42.7258 19.6399 42.8004 19.6462C42.8825 19.6507 42.9648 19.6507 43.047 19.6462H43.4953C43.1932 19.6162 42.8936 19.5655 42.5986 19.4943C41.7826 19.3604 39.5454 19.0479 38.8056 19.0077C38.6576 19.0077 38.4693 18.9764 38.3348 18.963L37.595 18.9094C37.5054 18.9094 37.4157 18.9094 37.326 18.9094C37.2364 18.9094 36.9718 18.9094 36.8194 18.8737L35.7658 18.838C35.6223 18.2263 35.3174 17.4539 35.1291 16.8332C35.035 16.5475 34.4387 14.9937 34.4297 14.8731C35.3847 14.8731 36.2859 14.9356 37.2229 14.949C37.3664 14.949 37.3978 14.949 37.5457 14.949L38.2362 14.9758C38.6845 14.9758 39.1598 15.0249 39.6216 15.0249C39.7785 15.0249 39.8144 15.0249 39.9668 15.0517L40.9846 15.0964C41.1011 15.0964 41.2356 15.0964 41.3522 15.0964L42.0247 15.141L43.3967 15.2035C43.5072 15.2103 43.618 15.2103 43.7284 15.2035L45.3649 15.2973C45.5039 15.2973 45.2842 15.2973 45.4008 15.2973L44.1813 15.0562C43.7329 14.9803 43.3698 14.8999 42.9349 14.8151C40.4152 14.3418 37.9044 13.9221 35.3668 13.5604C34.497 13.4309 33.6541 13.3372 32.7663 13.2166C32.3494 13.163 31.9055 13.1273 31.4617 13.0693C30.565 12.9443 29.3768 12.8862 28.4263 12.788C28.0721 12.7478 27.7269 12.788 27.3817 12.721L26.6733 12.6853C26.5209 12.6853 26.485 12.6585 26.3326 12.6585C25.7228 12.6585 25.1624 12.6094 24.5392 12.6094H22.7458L21.0331 12.7031C20.9479 12.7031 20.8582 12.7031 20.7686 12.7031L20.3202 12.7523C18.7272 12.8678 17.1579 13.2029 15.6574 13.7479L14.9445 14.0694C13.4022 14.8374 12.1558 16.1501 12.1558 17.9941L12.1289 18.0164ZM27.2203 14.7927L31.4258 14.7704C31.6186 14.7704 31.7082 14.7927 31.8741 14.7927C31.9728 14.9401 32.0624 15.1098 32.1566 15.2705C32.6856 16.1635 33.3537 17.3512 33.811 18.2576C33.9007 18.4406 33.9814 18.6103 34.0755 18.7844H33.5285C33.2326 18.7844 33.1654 18.7844 33.0129 18.8112C32.7486 18.7955 32.4836 18.7955 32.2194 18.8112L30.3856 18.905C30.2063 18.905 30.0225 18.9362 29.8431 18.9362L29.2423 17.8334C28.9061 17.2262 28.4801 16.6011 28.0946 16.0206C28.0273 15.9268 27.9735 15.8554 27.9107 15.7616C27.7897 15.6054 27.301 14.9803 27.2113 14.8151L27.2203 14.7927ZM20.8627 15.3598L21.7101 15.2214C22.275 15.1365 23.9518 14.9401 24.4495 14.9401C24.917 15.4067 25.3445 15.9115 25.7273 16.4492C25.799 16.5475 25.8663 16.6189 25.938 16.7127C26.3415 17.2172 27.1441 18.3602 27.4938 18.8826C27.5582 18.9763 27.6152 19.0748 27.6641 19.1773L23.907 19.7444C23.8364 19.6634 23.7748 19.5751 23.7232 19.481C23.6604 19.3738 23.6111 19.2979 23.5438 19.1907C23.0327 18.3647 22.6068 17.7485 22.0643 16.9582L21.2707 15.8777L21.069 15.6098C20.9883 15.5518 20.9165 15.4759 20.8537 15.3821L20.8627 15.3598ZM17.5091 16.5876C17.7019 16.7171 19.2083 18.2397 19.3518 18.4272C19.4204 18.506 19.4938 18.5806 19.5715 18.6505L20.6654 19.8515C20.7865 20.0033 21.0017 20.2132 21.1138 20.3561C20.9346 20.4148 20.7519 20.4625 20.5668 20.499C19.8943 20.6374 17.8767 21.2134 17.2042 21.4366C17.0338 21.4947 16.8321 21.575 16.6617 21.6152C16.6034 21.3607 16.3748 20.8294 16.2672 20.2757C16.025 19.0791 16.0475 17.9852 16.9173 17.0788C17.0799 16.8776 17.281 16.7106 17.5091 16.5876ZM30.5963 20.4811C31.0447 20.3829 33.1609 20.0837 33.5868 20.0346L34.627 19.9096C34.6853 20.0167 34.7256 20.1284 34.7839 20.2444L35.2323 21.3295C35.4479 21.8229 35.635 22.3283 35.7927 22.8431L34.896 22.7672H33.1385C33.0443 22.7672 32.9412 22.7672 32.8426 22.7672C32.7439 22.7672 32.7081 22.7672 32.5736 22.7672C32.1969 22.7672 31.8203 22.8654 31.4572 22.8654C31.4079 22.6555 31.3227 22.4546 31.2599 22.2537L30.5963 20.4811ZM24.9292 21.6375C26.0635 21.3741 27.032 21.1508 28.1887 20.9187C28.3542 20.878 28.5218 20.8467 28.6909 20.8249C28.7827 21.0235 28.8876 21.2159 29.0047 21.4009C29.1123 21.6063 29.2154 21.767 29.3186 21.9769L29.7669 22.8431C29.8162 22.9502 29.8566 23.0619 29.9149 23.1646C29.6817 23.1646 28.2066 23.5173 27.9735 23.5753L26.5702 23.9504C26.425 24.006 26.2749 24.0478 26.1218 24.0754L25.5479 22.852C25.3372 22.4368 25.131 22.0394 24.9337 21.6375H24.9292ZM17.5853 23.7316L22.3154 22.3073C22.4259 22.2698 22.5401 22.2443 22.6561 22.2314C22.6561 22.2983 23.8039 23.7673 24.0012 24.0173L24.4495 24.6425L19.2218 26.7633C19.1685 26.6336 19.1024 26.5094 19.0245 26.3927L17.5853 23.7316Z" fill="white"/>
<path fill-rule="evenodd" clip-rule="evenodd" d="M24.2865 40.711C23.8078 40.7179 23.3408 40.8601 22.94 41.1209C22.5392 41.3817 22.221 41.7505 22.0224 42.1844C21.5023 43.3676 21.9551 44.8277 22.6366 45.7564C22.8911 46.1241 23.1925 46.4573 23.5333 46.7476C24.4444 47.6153 25.6623 48.0902 26.9228 48.0692C28.7162 47.9576 29.5636 46.5958 29.3618 44.9705C29.2055 44.038 28.7802 43.1708 28.1378 42.4746C27.6652 41.9195 27.0764 41.474 26.4127 41.1693C25.7489 40.8646 25.0263 40.7082 24.2955 40.711H24.2865ZM25.3357 42.6354C25.8817 42.5683 26.4326 42.7139 26.8735 43.0417C28.4875 44.2204 28.3306 46.3368 26.8735 46.6136C25.7168 46.819 24.7797 45.8546 24.439 45.167C23.9547 44.1802 24.0937 42.8988 25.3267 42.6354H25.3357Z" fill="white"/>
<path fill-rule="evenodd" clip-rule="evenodd" d="M44.1846 40.7188C43.6888 40.7511 43.2119 40.9213 42.8082 41.2099C42.6293 41.3387 42.4667 41.4886 42.324 41.6564C42.1846 41.8401 42.07 42.0412 41.9832 42.2547C41.4497 43.6612 42.1357 45.3802 43.1041 46.3446C43.4049 46.6716 43.7418 46.9637 44.1084 47.2153C45.31 47.9788 47.0003 48.5146 48.3722 47.5546C48.7453 47.2918 49.0323 46.9253 49.1972 46.5009C49.7217 45.1123 49.1165 43.7013 48.3005 42.6565C48.2361 42.5672 48.1641 42.4835 48.0853 42.4065C47.9239 42.2636 47.7938 42.0895 47.6055 41.96C47.5688 41.9234 47.5299 41.8892 47.489 41.8573C46.5751 41.079 45.3995 40.6739 44.1981 40.7232L44.1846 40.7188ZM45.3459 42.6387C45.8928 42.5681 46.4456 42.7157 46.8837 43.0494C47.2656 43.3195 47.5738 43.6801 47.7804 44.0987C48.3005 45.1926 47.9777 46.3982 46.8837 46.5946C45.7897 46.7911 44.7765 45.8133 44.4536 45.139C43.9022 44.0496 44.216 42.8485 45.3324 42.6342L45.3459 42.6387Z" fill="white"/>
<path d="M68.3702 21.8878C68.3702 25.3079 69.1638 27.9006 70.7509 29.6657C71.5182 30.4968 72.4503 31.1603 73.4883 31.6141C74.5263 32.068 75.6476 32.3023 76.7812 32.3023C77.9148 32.3023 79.0361 32.068 80.0741 31.6141C81.1121 31.1603 82.0443 30.4968 82.8115 29.6657C84.3747 27.9125 85.1563 25.2856 85.1563 21.785C85.1563 18.3247 84.3986 15.7395 82.8653 14.0428C81.3319 12.3461 79.3233 11.4844 76.7902 11.4844C75.6448 11.4424 74.5043 11.6524 73.4496 12.0992C72.395 12.546 71.4521 13.2188 70.6882 14.0696C69.1459 15.7961 68.3732 18.3946 68.3702 21.8654V21.8878ZM62.0665 22.0708C62.0665 18.993 62.5297 16.4092 63.4563 14.3196C64.1409 12.7835 65.096 11.3817 66.2764 10.1806C67.381 9.01852 68.7111 8.09193 70.186 7.45699C72.2627 6.62717 74.4857 6.22174 76.7229 6.26483C81.1885 6.26483 84.7618 7.64451 87.4429 10.4039C90.124 13.1632 91.4691 17.006 91.478 21.9324C91.478 26.8081 90.1479 30.6242 87.4878 33.3806C84.8276 36.1369 81.2722 37.5151 76.8216 37.5151C72.3202 37.5151 68.7334 36.1429 66.0612 33.3984C63.3891 30.6539 62.0575 26.8855 62.0665 22.0931V22.0708Z" fill="white"/>
<path d="M230.833 15.1324V19.7224H226.861V28.5719C226.824 29.6151 226.862 30.6595 226.973 31.6974C227.051 31.9974 227.236 32.259 227.493 32.4341C227.782 32.6297 228.125 32.7297 228.475 32.7199C229.28 32.6619 230.07 32.475 230.815 32.1662L231.299 36.658C229.85 37.2549 228.294 37.5497 226.726 37.5242C225.76 37.5374 224.801 37.3583 223.906 36.9973C223.179 36.7324 222.541 36.268 222.068 35.6578C221.628 34.9719 221.348 34.197 221.247 33.3896C221.091 32.0307 221.029 30.6626 221.063 29.2953V19.7224H218.4V15.1324H221.059V10.7925L226.856 7.38121V15.1324H230.833ZM210.299 24.2275C210.257 22.5487 209.825 21.2732 209.003 20.4011C208.624 19.9807 208.159 19.6461 207.639 19.4196C207.12 19.1932 206.557 19.0802 205.99 19.0884C205.397 19.0751 204.808 19.1923 204.266 19.4315C203.723 19.6708 203.24 20.0262 202.852 20.4725C202.027 21.3923 201.628 22.6469 201.641 24.2275H210.299ZM209.962 30.0811L215.755 31.05C215.134 32.9952 213.899 34.6892 212.235 35.8811C210.63 36.9795 208.622 37.5376 206.219 37.5376C202.405 37.5376 199.583 36.2948 197.754 33.8093C196.306 31.8135 195.579 29.3042 195.579 26.2636C195.579 22.641 196.53 19.8028 198.431 17.7489C199.335 16.7468 200.448 15.9523 201.691 15.4203C202.934 14.8884 204.279 14.6317 205.631 14.668C208.889 14.668 211.463 15.7411 213.352 17.8873C215.241 20.0334 216.138 23.3256 216.042 27.7638H201.56C201.605 29.4783 202.073 30.8178 202.964 31.7822C203.382 32.2451 203.896 32.6127 204.47 32.8601C205.044 33.1074 205.665 33.2286 206.29 33.2155C207.116 33.2432 207.924 32.9826 208.577 32.4788C209.283 31.8436 209.773 31.0058 209.98 30.0811H209.962ZM173.561 36.9884V6.83203H179.363V22.83L186.151 15.1324H193.297L185.801 23.1024L193.835 36.9705H187.558L182.053 27.1208L179.363 29.9873V36.9884H173.561ZM162.854 36.9884H157.057V15.1101H162.437V18.2087C163.361 16.7442 164.193 15.7828 164.935 15.3244C165.692 14.8656 166.564 14.6303 167.45 14.6457C168.801 14.6558 170.125 15.0308 171.279 15.7307L169.485 20.7717C168.685 20.2021 167.737 19.8736 166.755 19.8251C166.008 19.8032 165.277 20.0382 164.684 20.4904C164.119 20.9369 163.675 21.7405 163.339 22.9059C163.002 24.0713 162.854 26.5136 162.854 30.2284V36.9884ZM145.889 26.5448C145.145 26.7904 143.97 27.0851 142.356 27.4378C140.742 27.7906 139.693 28.1165 139.218 28.4425C138.871 28.6589 138.585 28.959 138.386 29.315C138.187 29.6709 138.081 30.0711 138.079 30.4785C138.074 30.871 138.152 31.2602 138.306 31.6215C138.46 31.9827 138.688 32.3081 138.975 32.577C139.281 32.8731 139.643 33.1049 140.041 33.2583C140.438 33.4117 140.863 33.4837 141.289 33.47C142.372 33.4565 143.422 33.0965 144.284 32.443C144.945 31.9751 145.431 31.3012 145.665 30.5276C145.856 29.6028 145.933 28.6581 145.893 27.7147L145.889 26.5448ZM138.115 21.87L132.869 20.9413C133.467 18.807 134.487 17.2279 135.931 16.204C137.375 15.18 139.521 14.668 142.369 14.668C144.956 14.668 146.889 14.9672 148.158 15.561C149.278 16.0342 150.22 16.8485 150.848 17.8873C151.363 18.8249 151.623 20.5439 151.623 23.0577L151.511 29.7998C151.474 31.2205 151.566 32.6416 151.785 34.046C152.004 35.062 152.352 36.0462 152.82 36.975H147.082C146.934 36.5955 146.741 36.0329 146.521 35.2917C146.431 34.9479 146.36 34.7202 146.319 34.6175C145.408 35.5345 144.331 36.2721 143.145 36.7919C142.013 37.2801 140.792 37.5294 139.558 37.5242C137.317 37.5242 135.523 36.9125 134.236 35.6891C133.601 35.1023 133.099 34.3874 132.762 33.5922C132.426 32.7969 132.264 31.9394 132.286 31.0768C132.271 29.9153 132.582 28.7727 133.183 27.7772C133.772 26.8044 134.638 26.0275 135.671 25.5447C137.146 24.9101 138.694 24.4602 140.28 24.2052C142.97 23.7006 144.871 23.2229 145.916 22.7853V22.2094C145.916 21.0842 145.638 20.285 145.091 19.8027C144.544 19.3205 143.49 19.0839 141.952 19.0839C141.1 19.0328 140.253 19.2499 139.531 19.7045C138.844 20.2618 138.349 21.0189 138.115 21.87ZM95.7726 15.1324H101.104V18.115C103.013 15.82 105.29 14.671 107.932 14.668C109.204 14.6355 110.463 14.9324 111.586 15.5298C112.66 16.1469 113.54 17.0519 114.124 18.1418C114.981 17.0687 116.049 16.1801 117.262 15.5298C118.369 14.9543 119.6 14.6584 120.849 14.668C122.275 14.6227 123.687 14.9588 124.938 15.6414C126.059 16.3038 126.934 17.3115 127.43 18.5124C127.834 19.4411 128.031 20.9502 128.031 23.0354V36.9884H122.198V24.5133C122.198 22.3478 122.001 20.9413 121.597 20.3252C121.331 19.9193 120.961 19.591 120.525 19.3738C120.09 19.1565 119.604 19.0581 119.118 19.0884C118.294 19.0925 117.49 19.3497 116.818 19.8251C116.078 20.361 115.533 21.1229 115.267 21.9951C114.953 22.9506 114.796 24.4508 114.796 26.5091V36.9884H109.003V25.0268C109.003 22.9059 108.896 21.5307 108.694 20.9235C108.537 20.3692 108.199 19.8825 107.735 19.5393C107.208 19.2131 106.592 19.0571 105.973 19.0928C105.114 19.0824 104.272 19.3331 103.56 19.8117C102.829 20.3134 102.288 21.0443 102.023 21.8879C101.724 22.7809 101.574 24.2811 101.574 26.3886V36.9884H95.7637L95.7726 15.1324Z" fill="white"/>
</svg>
