<svg width="20" height="20" viewBox="0 0 20 20" fill="none" xmlns="http://www.w3.org/2000/svg">
<path fill-rule="evenodd" clip-rule="evenodd" d="M9.22653 0.0118813C6.50621 0.265167 4.13121 1.46286 2.4165 3.44612C1.14807 4.91322 0.364697 6.61561 0.0750404 8.53451C-0.0236403 9.18805 -0.0252857 10.585 0.071828 11.2141C0.237615 12.2878 0.534989 13.2439 1.00081 14.201L1.20029 14.6109L0.607697 17.2974C0.281804 18.7751 0.0212145 19.9901 0.0286577 19.9976C0.03614 20.005 0.112256 19.9949 0.197853 19.975C0.283449 19.9552 1.50816 19.6761 2.91943 19.3547L5.48536 18.7705L5.85752 18.9379C6.84957 19.384 7.9235 19.6747 8.98447 19.7841C9.64068 19.8518 11.0432 19.8111 11.6262 19.7074C13.4135 19.3896 14.9425 18.7041 16.3171 17.6044C16.7448 17.2622 17.4783 16.5295 17.8196 16.1037C19.0083 14.6205 19.7608 12.826 19.9592 11.0019C20.0138 10.4991 20.0136 9.34295 19.9587 8.84581C19.6285 5.85591 17.8995 3.14257 15.2621 1.47515C14.208 0.808742 12.7884 0.295287 11.4203 0.0856177C11.022 0.0245554 9.60268 -0.0231288 9.22653 0.0118813ZM10.8161 1.59375C12.6574 1.77322 14.3848 2.54419 15.7099 3.77803C17.1797 5.14655 18.0978 6.87719 18.372 8.79586C18.4569 9.38958 18.4577 10.4648 18.3737 11.0409C18.1521 12.5618 17.5202 14.0027 16.5622 15.1718C16.2754 15.5219 15.643 16.1476 15.2986 16.4222C14.1185 17.3631 12.6185 17.9994 11.1147 18.197C10.6025 18.2643 9.4517 18.2739 9.0041 18.2146C8.02277 18.0845 7.12137 17.8148 6.25706 17.3928L5.69686 17.1193L3.89041 17.5309C2.89686 17.7573 2.08066 17.9381 2.07666 17.9326C2.07263 17.9272 2.24198 17.1482 2.45297 16.2015C2.66397 15.2549 2.83759 14.4417 2.83884 14.3945C2.84006 14.3472 2.77726 14.1998 2.69923 14.0668C1.80115 12.5368 1.40509 10.7005 1.60422 8.99027C2.13343 4.4458 6.24084 1.14785 10.8161 1.59375ZM6.49336 5.62476C6.28942 5.72553 5.96678 6.07426 5.76793 6.40868C5.35742 7.09922 5.32071 7.98757 5.66654 8.86126C6.08477 9.91774 7.34983 11.5304 8.48268 12.4511C9.35631 13.1612 10.3925 13.661 11.6945 14.0004C12.2697 14.1504 12.8588 14.1636 13.2621 14.0358C13.7317 13.8868 14.3093 13.4745 14.4906 13.1586C14.6866 12.8175 14.7967 12.051 14.6718 11.8978C14.6139 11.8268 12.9943 11.0209 12.6983 10.9159C12.3939 10.8078 12.3528 10.8269 12.036 11.2238C11.3733 12.0542 11.3093 12.108 11.0754 12.0327C10.8882 11.9723 10.2033 11.634 9.95126 11.4772C9.19245 11.0053 8.40116 10.1936 7.91469 9.38794C7.71443 9.05634 7.72559 9.00353 8.07433 8.63113C8.25382 8.4395 8.41174 8.22623 8.47289 8.09284L8.57415 7.87198L8.49471 7.65558C8.45103 7.53659 8.2673 7.07981 8.08639 6.64056C7.84061 6.04371 7.72187 5.804 7.61665 5.69197L7.47582 5.54203L7.06821 5.54207C6.73225 5.54207 6.63122 5.55662 6.49336 5.62476Z" fill="white"/>
</svg>
