<svg width="24" height="14" viewBox="0 0 24 14" fill="none" xmlns="http://www.w3.org/2000/svg">
<rect width="24" height="14" rx="2" fill="#00B0CB"/>
<path d="M12.0033 13.9967C8.0407 13.9967 4.07859 13.9962 0.116008 14C0.0178474 14 0 13.9753 0 13.863C0.002818 9.28329 0.002818 4.70356 0.000469667 0.123836C0.000469667 0.0273973 0.012681 0 0.102857 0C8.03601 0.00328767 15.9687 0.00328767 23.9014 0.000547945C23.9845 0.000547945 23.9991 0.0213699 23.9991 0.115616C23.9967 4.70466 23.9962 9.29425 24 13.8833C24 13.9989 23.9648 13.9984 23.8906 13.9984C19.928 13.9967 15.9654 13.9967 12.0033 13.9967ZM16.158 7.68055C16.1495 7.67178 16.1415 7.66301 16.1331 7.65425C16.3068 7.41041 16.4698 7.15726 16.598 6.87671C16.6243 6.81973 16.653 6.75068 16.5863 6.70466C16.5295 6.66575 16.475 6.69644 16.4379 6.75014C16.3853 6.82575 16.3416 6.91014 16.2909 6.98795C16.2317 7.07781 16.1941 7.18959 16.0748 7.27397C16.1335 7.10466 16.1824 6.97041 16.227 6.83452C16.2843 6.65918 16.3162 6.47781 16.3073 6.28931C16.3045 6.23397 16.2914 6.16986 16.2317 6.16384C16.1697 6.15726 16.158 6.21699 16.1453 6.27397C16.1087 6.44055 16.0725 6.60767 16.0297 6.77205C16.0049 6.8674 15.9875 6.96986 15.9095 7.06411C15.9269 6.86959 15.9739 6.70192 15.9414 6.52822C15.9335 6.48548 15.9288 6.44164 15.8818 6.4389C15.833 6.43616 15.8142 6.47288 15.8034 6.52438C15.7794 6.64164 15.7597 6.76164 15.7235 6.87452C15.3168 8.15836 14.5315 8.91123 13.3733 9.12438C13.1986 9.15671 13.0403 9.18795 12.9252 9.36548C12.7496 9.63671 12.5232 9.82685 12.2367 9.91288C12.0859 9.95836 12.0404 10.1375 11.9404 10.2482C11.9169 10.274 11.9183 10.3249 11.9385 10.3567C12.3729 10.2838 12.805 10.2723 13.239 10.2888C13.0065 10.2981 12.7829 10.217 12.5415 10.2132C12.6284 10.1512 12.5575 10.0296 12.6608 9.96384C12.5396 9.97479 12.4546 10.0263 12.3616 10.0181C12.3616 10.0126 12.3612 10.0071 12.3612 10.0022C12.5735 9.87178 12.7782 9.72767 12.9544 9.5337C13.029 9.45151 13.1211 9.40931 13.2193 9.37973C13.4597 9.30685 13.7091 9.30082 13.9515 9.24164C14.0106 9.2274 14.0651 9.21041 14.1069 9.15014C14.2173 8.99178 14.3629 8.88493 14.5165 8.79342C14.6621 8.70685 14.8086 8.62247 14.9561 8.53918C15.0162 8.50521 15.0547 8.45425 15.0871 8.38521C15.2031 8.13863 15.3713 7.94849 15.5779 7.80603C15.6432 7.76055 15.7169 7.73808 15.7944 7.73205C15.8625 7.72658 15.8776 7.76164 15.863 7.83288C15.8423 7.93205 15.7855 8.00877 15.7306 8.10795C15.7714 8.09808 15.7944 8.0926 15.8175 8.08712C15.8466 8.08055 15.8809 8.04438 15.9043 8.0811C15.9278 8.11836 15.9086 8.16493 15.886 8.19671C15.8438 8.25589 15.7959 8.30959 15.7522 8.36274C15.7696 8.41863 15.8377 8.3726 15.8466 8.44658C15.7606 8.50795 15.6714 8.56877 15.5854 8.63562C15.5667 8.64986 15.5122 8.6663 15.5474 8.7074C15.5953 8.76329 15.5469 8.76493 15.5253 8.78027C15.4577 8.82849 15.3586 8.82904 15.3623 8.97425C15.3638 9.02082 15.2797 9.03726 15.2299 9.05096C15.1421 9.07562 15.2618 9.18082 15.1843 9.20219C15.1083 9.22301 15.0444 9.24493 15.0627 9.36548C15.0679 9.4 15.0209 9.41589 14.9955 9.43836C14.8607 9.55616 14.71 9.6389 14.5371 9.70411C14.718 9.79945 15.2473 9.55781 15.3468 9.39288C15.3036 9.3474 15.2304 9.36329 15.1923 9.29206C15.3205 9.18247 15.4868 9.24329 15.6249 9.15397C15.5549 9.10027 15.4755 9.14959 15.422 9.08384C15.5544 9.02466 15.7094 9.0411 15.8372 8.92493C15.7573 8.87781 15.6803 8.92548 15.6103 8.87014C15.7602 8.78082 15.9386 8.79616 16.0589 8.64219C15.9856 8.59123 15.9086 8.65041 15.8447 8.60219C15.8658 8.54795 15.909 8.53808 15.9405 8.51233C16.0842 8.39616 16.2481 8.31014 16.3604 8.14521C16.3947 8.09479 16.4468 8.03068 16.4027 7.97425C16.3712 7.9337 16.3181 7.99616 16.2777 8.01973C16.2035 8.06247 16.1401 8.14301 16.0297 8.10959C16.0664 8.07342 16.0927 8.04657 16.1199 8.02027C16.3238 7.82356 16.513 7.61096 16.6624 7.35397C16.6831 7.3189 16.7263 7.28055 16.6802 7.23452C16.6413 7.19616 16.598 7.20657 16.5609 7.24548C16.537 7.27014 16.5159 7.29863 16.4924 7.32384C16.3825 7.44384 16.2895 7.5863 16.158 7.68055ZM1.25777 7.56712C1.26575 7.57644 1.27374 7.5863 1.28172 7.59562C1.11452 8.00657 0.94638 8.41753 0.780117 8.82904C0.731742 8.94904 0.70638 9.07452 0.732211 9.20822C0.759922 9.35069 0.845871 9.42904 0.964227 9.47781C0.71953 9.63726 0.665049 9.82959 0.773542 10.1233C0.782935 10.149 0.793268 10.1742 0.803601 10.1995C0.966575 10.5929 1.12955 10.9858 1.29205 11.3792C1.31977 11.4466 1.34466 11.514 1.34278 11.5918C1.33902 11.7408 1.23382 11.8477 1.11076 11.8159C1.01401 11.7912 0.959061 11.7167 0.95953 11.5978C0.96 11.5074 0.982544 11.4296 1.07131 11.4121C1.11687 11.4027 1.16008 11.4137 1.18215 11.4696C1.19483 11.5014 1.19577 11.5381 1.16853 11.5573C1.10841 11.5989 1.11123 11.5014 1.0746 11.4899C1.04736 11.5167 1.05534 11.5611 1.02481 11.5852C1.00415 11.6016 1.07037 11.7479 1.0854 11.7337C1.14599 11.6773 1.25965 11.7069 1.27468 11.5792C1.2883 11.4641 1.26998 11.3507 1.16618 11.3151C1.06755 11.2811 1.04595 11.217 1.06849 11.1195C1.08493 11.0477 1.04736 11.0685 1.01824 11.0685C1.01072 11.0619 1.00321 11.0553 0.995695 11.0488C1.00744 10.8493 0.956243 10.7622 0.802661 10.7293C0.922427 10.9304 0.884384 11.1408 0.841174 11.3501C0.805949 11.5205 0.769785 11.6893 0.890959 11.8367C0.907867 11.8575 0.912564 11.8767 0.88955 11.8926C0.768845 11.9759 0.8609 12.0132 0.923836 12.0614C0.775421 12.1951 0.784814 12.3715 0.828493 12.5474C0.884383 12.7715 0.913973 12.9901 0.787632 13.2192C0.859491 13.211 0.896595 13.1819 0.935577 13.1496C1.02857 13.0723 1.01495 12.9348 1.05393 12.8323C1.0962 12.72 1.11828 12.623 1.22583 12.5847C1.22959 12.5836 1.23241 12.5797 1.23569 12.577C1.24227 12.5858 1.24885 12.594 1.25542 12.6027C1.2202 12.7112 1.18497 12.8197 1.14881 12.9277C1.12391 13.0022 1.11922 13.0734 1.17041 13.1359C1.22301 13.2 1.29159 13.2159 1.35781 13.1852C1.41793 13.1578 1.46771 13.1578 1.52783 13.1852C1.59452 13.2159 1.66262 13.1995 1.71523 13.1359C1.76642 13.074 1.76172 13.0022 1.73683 12.9277C1.70067 12.8197 1.66591 12.7112 1.63068 12.6027C1.63726 12.5945 1.64431 12.5858 1.65088 12.5775C1.70959 12.6301 1.81479 12.6208 1.80963 12.7584C1.80634 12.8471 1.8829 12.9052 1.88618 13.0038C1.89041 13.1288 1.98153 13.2027 2.08814 13.1951C1.97495 12.9951 1.99937 12.7863 2.05057 12.5742C2.09566 12.3885 2.11914 12.2049 1.96462 12.0636C2.05667 11.9929 2.05902 11.9907 1.99421 11.8948C1.97072 11.8597 1.98763 11.8466 2.00313 11.8274C2.09706 11.7107 2.09049 11.5693 2.06184 11.4318C2.01205 11.194 1.95194 10.9584 2.08673 10.714C1.91577 10.7885 1.87867 10.8575 1.88994 11.0493C1.88243 11.0559 1.87491 11.0625 1.8674 11.069C1.84955 11.0751 1.81104 11.0564 1.81573 11.0784C1.84861 11.2279 1.78474 11.2893 1.67624 11.3458C1.60204 11.3841 1.59828 11.4904 1.61096 11.5825C1.62693 11.7014 1.72885 11.6899 1.79178 11.731C1.84344 11.7649 1.83076 11.6712 1.85425 11.6405C1.91342 11.5649 1.80211 11.5523 1.81198 11.4773C1.77534 11.5173 1.77957 11.5814 1.7265 11.5622C1.69785 11.5518 1.69315 11.5238 1.6955 11.4959C1.69973 11.4477 1.72744 11.4208 1.76595 11.4131C1.82654 11.4011 1.87867 11.4203 1.90591 11.4893C1.93785 11.5699 1.93926 11.6521 1.89276 11.7271C1.84344 11.8066 1.77534 11.8373 1.69315 11.8148C1.6119 11.7923 1.55977 11.7315 1.54521 11.6351C1.53159 11.5441 1.55883 11.4619 1.59264 11.3808C1.75796 10.9841 1.92235 10.5863 2.08673 10.1885C2.13933 10.0614 2.17832 9.93041 2.15859 9.78521C2.13699 9.6263 2.04211 9.54247 1.91577 9.48219C2.1398 9.36603 2.20509 9.20658 2.14168 8.94795C2.12665 8.88603 2.10364 8.82575 2.07969 8.76712C1.92188 8.37644 1.76266 7.9863 1.60391 7.59616C1.6119 7.58685 1.61988 7.57808 1.62787 7.56877C1.65417 7.60384 1.68 7.6537 1.71898 7.65425C1.80587 7.65534 1.80775 7.7337 1.82372 7.79562C1.83499 7.83836 1.78145 7.91836 1.88102 7.90082C1.90215 7.89699 1.88853 7.93863 1.88806 7.95945C1.88571 8.1211 1.93268 8.19397 2.08908 8.25315C1.95569 8.02904 2.0036 7.80219 2.05245 7.57753C2.09049 7.40219 2.09753 7.23671 1.96885 7.09479C2.08438 7.03123 2.07922 6.96658 1.96697 6.90411C2.10176 6.76438 2.08955 6.59726 2.05198 6.42247C2.00407 6.19781 1.95429 5.97096 2.0919 5.74521C1.9308 5.80931 1.88665 5.87945 1.88853 6.04329C1.88853 6.06137 1.88853 6.07945 1.889 6.09753C1.78614 6.07288 1.82701 6.16931 1.81855 6.21753C1.80634 6.28658 1.79178 6.33973 1.71851 6.34685C1.67812 6.35069 1.6537 6.39781 1.62787 6.43342C1.61988 6.42411 1.6119 6.41425 1.60391 6.40493C1.61284 6.37918 1.62035 6.35288 1.63068 6.32767C1.79225 5.9326 1.95804 5.54027 2.11444 5.14301C2.22669 4.85699 2.15812 4.64603 1.92798 4.52493C2.1553 4.35123 2.20885 4.20548 2.13652 3.95014C2.12384 3.9063 2.1074 3.86356 2.09002 3.82137C2.00548 3.61589 1.92 3.41041 1.83452 3.20548C1.74622 2.99178 1.65323 2.78027 1.57057 2.56384C1.4926 2.35945 1.58231 2.17205 1.74716 2.17973C1.85002 2.18466 1.9308 2.28822 1.92611 2.4137C1.92235 2.51288 1.89088 2.58795 1.79413 2.59178C1.74622 2.59397 1.70724 2.57096 1.69644 2.51068C1.69127 2.48274 1.69691 2.45425 1.72368 2.44164C1.78239 2.41315 1.77299 2.49863 1.80822 2.51342C1.8256 2.48219 1.83781 2.44658 1.85988 2.42411C1.9247 2.35726 1.80775 2.35836 1.82982 2.30466C1.83875 2.28329 1.80634 2.25315 1.79366 2.26685C1.73683 2.32931 1.61988 2.29918 1.61002 2.43069C1.60157 2.54685 1.61941 2.66137 1.72697 2.68822C1.82795 2.71397 1.81104 2.79507 1.82325 2.86795C1.82701 2.88986 1.79648 2.94027 1.83076 2.93096C1.93268 2.90356 1.88524 2.98027 1.88524 3.02301C1.88571 3.15452 1.95569 3.24548 2.08344 3.27123C1.96603 3.07562 1.99984 2.86959 2.04305 2.66411C2.07922 2.49041 2.12055 2.31616 1.99515 2.16384C1.97777 2.14301 1.97495 2.12384 1.9975 2.10795C2.12008 2.02411 2.02098 1.98795 1.96227 1.93808C2.11115 1.81041 2.10082 1.63616 2.05996 1.46575C2.00501 1.23726 1.96932 1.01479 2.09143 0.796164C2.02755 0.780274 1.99562 0.819726 1.95898 0.844931C1.85378 0.91726 1.8735 1.06521 1.83217 1.17096C1.78896 1.28164 1.76642 1.37808 1.66074 1.41753C1.65699 1.41918 1.65417 1.42247 1.65088 1.42521C1.64431 1.41644 1.63773 1.40767 1.63115 1.39836C1.66685 1.29041 1.70207 1.18192 1.73777 1.07397C1.76266 0.999452 1.76736 0.928219 1.71616 0.865753C1.66356 0.801644 1.59499 0.786301 1.52877 0.816438C1.46865 0.843836 1.41886 0.843836 1.35875 0.816438C1.29252 0.786301 1.22395 0.801644 1.17135 0.865753C1.12016 0.928219 1.12485 0.999452 1.14975 1.07397C1.18591 1.18192 1.22067 1.29041 1.25636 1.3989C1.24978 1.40767 1.24321 1.41589 1.23616 1.42466C1.17793 1.37151 1.0699 1.38466 1.07742 1.24384C1.08211 1.15562 1.00509 1.09589 1.00086 0.998356C0.995695 0.872877 0.905519 0.799452 0.798434 0.806575C0.911624 1.00658 0.887671 1.21534 0.836008 1.4274C0.79045 1.6137 0.769315 1.79616 0.923366 1.94137C0.863249 1.98904 0.769785 2.0263 0.890959 2.11014C0.924775 2.1337 0.899413 2.15616 0.883444 2.17589C0.789511 2.2926 0.796086 2.43397 0.825205 2.57151C0.87546 2.80931 0.93182 3.04384 0.805949 3.28329C0.869354 3.27671 0.899413 3.23616 0.936986 3.21205C1.04266 3.14466 0.93229 2.94849 1.0746 2.9063C1.04172 2.77753 1.08728 2.71562 1.19342 2.67069C1.27796 2.63507 1.28642 2.52822 1.27703 2.43014C1.26575 2.30575 1.16384 2.31726 1.09949 2.2789C1.03233 2.2389 1.05393 2.33918 1.02904 2.36767C0.978317 2.4263 1.07883 2.45315 1.06802 2.52055C1.11217 2.49589 1.10701 2.41425 1.16524 2.44384C1.19108 2.45699 1.19436 2.48548 1.18873 2.51452C1.17699 2.57589 1.13753 2.59342 1.0901 2.59342C1.03703 2.59342 0.997104 2.56329 0.977847 2.5063C0.948258 2.41863 0.949198 2.3326 1.00603 2.25808C1.05863 2.18904 1.12579 2.16548 1.20141 2.19068C1.28125 2.21699 1.33104 2.28055 1.34278 2.37808C1.35358 2.47014 1.32399 2.55178 1.29065 2.63233C1.12532 3.03014 0.95953 3.4274 0.796556 3.8263C0.660822 4.15781 0.701213 4.32712 0.959061 4.52767C0.74771 4.63671 0.681957 4.79507 0.745362 5.05479C0.760391 5.11671 0.783405 5.17699 0.806888 5.23562C0.965166 5.62685 1.12438 6.01699 1.28313 6.40767C1.27515 6.41699 1.26716 6.42575 1.25918 6.43507C1.22301 6.38411 1.18215 6.34137 1.1225 6.33041C1.10372 6.32712 1.08399 6.33644 1.07366 6.2926C1.05769 6.22575 1.1272 6.10575 0.998043 6.09699C0.997104 6.09699 0.998513 6.06301 0.998513 6.04493C0.997104 5.87671 0.953425 5.80877 0.797495 5.75068C0.93229 5.97534 0.882505 6.20164 0.833659 6.42685C0.795616 6.60164 0.78998 6.76767 0.918669 6.90959C0.800783 6.97151 0.80407 7.03507 0.918669 7.09699C0.789041 7.23836 0.796086 7.40438 0.833659 7.57918C0.882035 7.80438 0.932759 8.03068 0.797965 8.25425C0.872642 8.24603 0.914912 8.20493 0.951076 8.15617C0.995225 8.09644 1.01401 8.02521 0.995695 7.94795C0.978787 7.87507 1.12673 7.92164 1.06568 7.80548C1.05205 7.77973 1.06943 7.6526 1.16947 7.65589C1.20564 7.6537 1.23147 7.60219 1.25777 7.56712ZM14.5761 5.88986C14.5822 4.85151 13.8707 4.00877 12.9816 4.00164C12.0855 3.99397 11.3551 4.82795 11.3509 5.86356C11.3467 6.90356 12.0564 7.74959 12.9412 7.75945C13.8477 7.76932 14.57 6.94356 14.5761 5.88986ZM10.0697 7.97205C10.0668 7.87452 10.0297 7.79836 9.99452 7.72C9.97573 7.67836 9.9189 7.64384 9.94708 7.59068C9.96869 7.55014 10.0128 7.58466 10.0471 7.59233C10.0575 7.59452 10.0753 7.59342 10.0786 7.58685C10.1326 7.47616 10.1777 7.56219 10.2181 7.5989C10.4069 7.76986 10.5375 8.0011 10.6863 8.2137C10.7958 8.36986 10.9108 8.53151 11.0795 8.58959C11.3007 8.66575 11.466 8.82301 11.6196 9.00822C11.7384 9.15178 11.8807 9.23452 12.0526 9.24603C12.1442 9.25206 12.2358 9.26027 12.3274 9.2663C12.472 9.27616 12.6153 9.29589 12.7378 9.39562C12.7778 9.42795 12.7998 9.4274 12.82 9.37699C12.8369 9.33479 12.8524 9.29206 12.8726 9.25206C12.906 9.18466 12.8867 9.16219 12.8247 9.15726C12.7214 9.14959 12.6176 9.13973 12.5148 9.12438C11.388 8.9589 10.3975 7.9211 10.1364 6.63616C10.1213 6.56219 10.1387 6.43233 10.042 6.44493C9.93957 6.45808 9.97573 6.58685 9.97573 6.6663C9.97573 6.79014 9.99358 6.91342 10.0058 7.06301C9.93816 6.96055 9.91562 6.86575 9.89213 6.7737C9.84939 6.60438 9.81088 6.43342 9.77331 6.26192C9.76157 6.20931 9.7517 6.15616 9.69252 6.16603C9.64086 6.17425 9.62113 6.22137 9.61785 6.27671C9.6155 6.31836 9.61409 6.36055 9.61597 6.40219C9.62677 6.68329 9.7207 6.93479 9.82262 7.18356C9.84047 7.22685 9.8771 7.26575 9.85362 7.32822C9.71789 7.15781 9.62254 6.95671 9.50184 6.77753C9.45722 6.71123 9.40274 6.65425 9.32947 6.71014C9.2562 6.76603 9.30974 6.83671 9.33511 6.89425C9.43796 7.12712 9.56806 7.33863 9.71037 7.54082C9.74137 7.58466 9.78505 7.62137 9.79162 7.68822C9.75264 7.6926 9.73432 7.6663 9.71554 7.64548C9.60517 7.52384 9.49573 7.4011 9.38771 7.27671C9.34497 7.2274 9.298 7.18137 9.24352 7.23507C9.1881 7.28986 9.24869 7.33699 9.27217 7.37699C9.38066 7.56274 9.51358 7.72384 9.65683 7.87342C9.73151 7.95069 9.80524 8.02904 9.88838 8.11616C9.77847 8.13589 9.7146 8.06356 9.64086 8.02082C9.6 7.99726 9.54505 7.93644 9.51405 7.98466C9.47836 8.04 9.54035 8.09096 9.57511 8.1326C9.68548 8.26521 9.82356 8.34959 9.96493 8.4263C10.0269 8.46027 10.0889 8.49479 10.1739 8.54247C10.0387 8.58301 9.93065 8.5337 9.81041 8.55178C9.93487 8.73753 10.1232 8.67123 10.2697 8.75452C10.2026 8.83781 10.1035 8.79014 10.0321 8.8537C10.1303 8.94521 10.2575 8.89918 10.3599 8.96548C10.3097 9.01315 10.2444 8.9989 10.2012 9.0526C10.2975 9.1474 10.4261 9.12767 10.545 9.18904C10.4919 9.2137 10.4529 9.23233 10.3858 9.26356C10.7314 9.4 11.0254 9.61918 11.3758 9.65096C11.1344 9.52986 10.8794 9.44658 10.6558 9.2789C10.6849 9.21644 10.7474 9.21918 10.7648 9.16384C10.7061 9.14301 10.6483 9.12548 10.5924 9.10137C10.4712 9.04822 10.4708 9.04274 10.5544 8.91836C10.5276 8.9063 10.5032 8.89205 10.4778 8.88384C10.4111 8.86247 10.3444 8.84493 10.4074 8.73753C10.4285 8.70137 10.398 8.68877 10.3773 8.68C10.3393 8.66411 10.3111 8.64219 10.3242 8.58904C10.3402 8.52329 10.3026 8.51233 10.2627 8.49534C10.1739 8.45753 10.0932 8.40493 10.0293 8.32548C10.0589 8.27123 10.1058 8.30904 10.1331 8.27123C10.064 8.18082 9.96634 8.11617 9.93065 7.98411C9.95789 7.98192 9.97761 7.98082 9.99687 7.97863C10.0222 7.97753 10.0452 7.97479 10.0697 7.97205ZM14.0736 10.4855C14.1699 10.6186 14.1966 10.6175 14.2582 10.4663C14.2934 10.3792 14.3263 10.3605 14.4014 10.4142C14.5146 10.4948 14.5742 10.4614 14.5902 10.3112C14.6005 10.2148 14.6151 10.2077 14.6888 10.2581C14.8034 10.3364 14.9514 10.269 14.9894 10.1397C15.004 10.0899 15.0096 10.0504 14.9458 10.046C14.6748 10.0258 14.4056 9.97315 14.1332 9.98247C14.0741 9.98466 14.0327 10.0011 13.9858 10.0658C13.9374 10.1326 13.9097 10.2164 13.8566 10.2718C13.7805 10.3512 13.6777 10.3682 13.5781 10.3868C13.3555 10.429 13.1305 10.3962 12.9079 10.4175C12.7557 10.4318 12.6049 10.4608 12.496 10.6066C12.4697 10.6416 12.4326 10.6888 12.4546 10.7288C12.4791 10.7726 12.5293 10.7447 12.5641 10.7249C12.6326 10.686 12.6989 10.6405 12.7656 10.5978C12.7942 10.6592 12.7576 10.7458 12.8074 10.7616C12.8689 10.7808 12.9116 10.7101 12.953 10.6592C12.9732 10.634 12.9797 10.5896 13.0276 10.5868C13.0295 10.6082 13.0314 10.6296 13.0323 10.651C13.0342 10.691 13.0103 10.7463 13.0469 10.7666C13.091 10.7912 13.1281 10.7452 13.1624 10.7134C13.2042 10.6745 13.2263 10.6082 13.2803 10.5858C13.3245 10.6356 13.2488 10.7321 13.3329 10.7529C13.4456 10.7808 13.4668 10.6493 13.525 10.5819C13.6222 10.7584 13.6255 10.7616 13.7439 10.6142C13.7894 10.5573 13.8134 10.5901 13.8392 10.6252C13.8871 10.6893 13.9322 10.6658 13.9731 10.6208C14.0083 10.5825 14.0365 10.5364 14.0736 10.4855ZM14.3324 8.29644C14.3404 8.28932 14.3483 8.28274 14.3563 8.27562C14.3032 8.10685 14.2511 7.93753 14.1962 7.76931C14.1727 7.69808 14.1389 7.63288 14.0618 7.63288C13.9998 7.63288 13.9548 7.67288 13.9308 7.73589C13.8993 7.81918 13.9463 7.8811 13.9914 7.93151C14.1022 8.05644 14.2182 8.17534 14.3324 8.29644ZM15.399 5.33315C15.3966 5.31562 15.3943 5.29808 15.3919 5.28C15.2332 5.28 15.0744 5.27945 14.9157 5.28C14.8528 5.28 14.7945 5.29589 14.7682 5.3737C14.7466 5.43671 14.764 5.49589 14.7997 5.54247C14.8467 5.60438 14.9115 5.59397 14.9669 5.56548C15.1125 5.4926 15.2553 5.41096 15.399 5.33315ZM10.4942 5.88164C10.6474 5.94466 10.7981 6 10.9555 6.02575C11.0165 6.03562 11.0766 6.03671 11.1128 5.96384C11.141 5.90685 11.1386 5.84712 11.1095 5.79178C11.0752 5.72603 11.0184 5.72329 10.9616 5.73315C10.8019 5.7611 10.6474 5.81315 10.4942 5.88164ZM15.391 6.48C15.3929 6.46466 15.3952 6.44932 15.3971 6.43452C15.2445 6.34247 15.0951 6.24055 14.9279 6.18466C14.8391 6.15507 14.7776 6.20219 14.764 6.31014C14.7499 6.42247 14.8058 6.47726 14.895 6.47945C15.0604 6.48274 15.2257 6.48 15.391 6.48ZM14.3432 3.47014C14.2112 3.59781 14.0731 3.71452 13.9637 3.8674C13.896 3.96219 13.9083 4.04822 13.9895 4.10247C14.0708 4.15671 14.1389 4.12932 14.1778 4.03397C14.2516 3.85534 14.3023 3.66685 14.3432 3.47014ZM11.9962 8.59233C12.1245 8.42411 12.2156 8.27288 12.3043 8.12055C12.3419 8.05699 12.3663 7.98466 12.3241 7.91288C12.2931 7.86082 12.2433 7.83397 12.1879 7.84493C12.1123 7.85973 12.0864 7.93205 12.0751 8.00657C12.0474 8.18794 12.0254 8.37041 11.9962 8.59233ZM10.8906 7.47781C10.8963 7.48712 10.9024 7.49589 10.908 7.50521C11.0555 7.4411 11.2034 7.37699 11.3509 7.31233C11.4139 7.28438 11.4669 7.24 11.465 7.15397C11.4636 7.09205 11.4336 7.0389 11.3824 7.01096C11.3119 6.97315 11.2556 7.01644 11.2119 7.06959C11.102 7.20274 10.9977 7.34137 10.8906 7.47781ZM10.9052 4.25479C11.001 4.4274 11.1076 4.58027 11.234 4.71178C11.3025 4.78301 11.3782 4.79123 11.4383 4.69205C11.4932 4.60164 11.4693 4.50795 11.3683 4.45863C11.2166 4.38356 11.0602 4.32164 10.9052 4.25479ZM11.9972 3.16986C12.0305 3.40384 12.0376 3.60329 12.0859 3.79507C12.1104 3.8926 12.1644 3.94795 12.2574 3.90411C12.3471 3.86247 12.3696 3.77863 12.3264 3.68877C12.2414 3.51123 12.1315 3.35288 11.9972 3.16986ZM11.2002 7.91342C11.3645 7.84 11.5073 7.74959 11.6384 7.63726C11.6844 7.59781 11.7252 7.54795 11.7079 7.47397C11.6924 7.40712 11.6506 7.35945 11.5923 7.3463C11.5303 7.33206 11.4843 7.37644 11.4538 7.43288C11.3674 7.59123 11.2847 7.75288 11.2002 7.91342ZM11.1917 3.81041C11.2842 4.01808 11.3655 4.19123 11.4688 4.34795C11.5223 4.43014 11.5928 4.44822 11.6628 4.36877C11.7299 4.2926 11.7299 4.21151 11.6571 4.14247C11.5228 4.01589 11.3692 3.92384 11.1917 3.81041ZM12.9628 2.99507C12.9097 3.18795 12.8529 3.3726 12.8369 3.56822C12.828 3.67616 12.8717 3.73808 12.9675 3.73699C13.0652 3.73589 13.1075 3.66411 13.0948 3.56329C13.0708 3.36822 13.0258 3.17863 12.9628 2.99507ZM12.9656 8.80384C13.0248 8.58685 13.0676 8.39945 13.0943 8.20822C13.1084 8.10795 13.076 8.03123 12.9769 8.02521C12.8839 8.01973 12.829 8.07233 12.8379 8.18356C12.8534 8.38685 12.906 8.58027 12.9656 8.80384ZM10.5351 6.43069C10.5379 6.44712 10.5403 6.46411 10.5431 6.48055C10.7051 6.48055 10.8676 6.48493 11.0297 6.4789C11.1344 6.47507 11.1795 6.40877 11.1626 6.30137C11.1452 6.18849 11.0799 6.15507 10.9954 6.18575C10.8333 6.24493 10.6849 6.34027 10.5351 6.43069ZM13.9097 3.21479C13.7969 3.36658 13.6875 3.51397 13.6058 3.68438C13.5607 3.77808 13.579 3.85479 13.6659 3.90027C13.7561 3.9474 13.8186 3.89973 13.8425 3.80274C13.889 3.61205 13.9059 3.41479 13.9097 3.21479ZM11.597 3.46192C11.589 3.46849 11.5815 3.47562 11.5735 3.48219C11.628 3.65534 11.6811 3.82959 11.7384 4.00164C11.7605 4.06795 11.7952 4.12822 11.8671 4.12767C11.9225 4.12712 11.9704 4.10027 11.9934 4.04C12.0235 3.96164 11.9962 3.89425 11.9465 3.83945C11.8309 3.71233 11.7135 3.5874 11.597 3.46192ZM15.2515 7.00548C15.1364 6.85534 15.0059 6.74301 14.8697 6.64C14.8171 6.60055 14.7579 6.58082 14.7029 6.63288C14.6607 6.67288 14.6409 6.72931 14.6513 6.79397C14.6635 6.86904 14.7137 6.90192 14.7701 6.91342C14.9303 6.9474 15.0914 6.97534 15.2515 7.00548ZM15.2623 4.79014C15.2595 4.77863 15.2567 4.76712 15.2539 4.75562C15.097 4.78466 14.9401 4.8126 14.7837 4.84384C14.7227 4.85589 14.6663 4.88329 14.6508 4.96384C14.6377 5.03397 14.6621 5.0937 14.71 5.1337C14.7668 5.18082 14.826 5.15671 14.8767 5.11507C15.0063 5.00877 15.1341 4.89863 15.2623 4.79014ZM10.5426 5.28C10.5407 5.29534 10.5389 5.31123 10.537 5.32658C10.6816 5.41973 10.8277 5.51178 10.9855 5.5726C11.0846 5.61096 11.1499 5.56219 11.1626 5.45753C11.1771 5.33753 11.1231 5.28274 11.0278 5.2811C10.8662 5.27781 10.7047 5.28 10.5426 5.28ZM11.5731 8.28055C11.5815 8.28658 11.59 8.29206 11.598 8.29808C11.7144 8.17206 11.8314 8.04658 11.9469 7.91945C11.9967 7.86466 12.0258 7.79726 11.9939 7.71945C11.9699 7.66082 11.9202 7.63397 11.8652 7.63397C11.7938 7.63397 11.7595 7.69479 11.7375 7.7611C11.6806 7.93315 11.628 8.10685 11.5731 8.28055ZM13.8951 8.55288C13.9064 8.54904 13.9172 8.54466 13.9285 8.54082C13.9031 8.3589 13.8777 8.17699 13.8514 7.99507C13.8406 7.92164 13.811 7.85973 13.7439 7.84548C13.6847 7.83288 13.634 7.86356 13.6006 7.92274C13.5612 7.99342 13.5889 8.05808 13.6236 8.11562C13.7133 8.26247 13.8049 8.40712 13.8951 8.55288ZM14.7292 7.90904C14.6428 7.74794 14.5587 7.58466 14.469 7.4263C14.438 7.37151 14.3925 7.32548 14.3281 7.34795C14.2765 7.36603 14.2366 7.40603 14.2248 7.47178C14.2121 7.54521 14.2413 7.59836 14.2906 7.63836C14.4244 7.7474 14.5649 7.84329 14.7292 7.90904ZM14.7288 3.85041C14.7208 3.84164 14.7133 3.83233 14.7053 3.82356C14.57 3.92055 14.4338 4.01589 14.3 4.11507C14.2464 4.15452 14.2107 4.20932 14.2253 4.28986C14.237 4.35616 14.2774 4.39616 14.3291 4.41315C14.3986 4.43616 14.4441 4.38247 14.477 4.32329C14.5634 4.16767 14.6452 4.00822 14.7288 3.85041ZM13.463 3.05205C13.4527 3.04877 13.4423 3.04548 13.432 3.04219C13.3663 3.20932 13.2986 3.37534 13.2357 3.54411C13.2117 3.60877 13.2014 3.6811 13.2517 3.73918C13.2921 3.78575 13.3447 3.79616 13.3963 3.77534C13.4672 3.7463 13.4851 3.67342 13.4832 3.59452C13.478 3.4137 13.4701 3.23288 13.463 3.05205ZM15.0575 7.51945C14.9359 7.33534 14.825 7.19288 14.7058 7.05918C14.6607 7.00877 14.6062 6.9737 14.5447 7.01205C14.4982 7.0411 14.4681 7.09096 14.4676 7.1589C14.4667 7.23726 14.5108 7.27945 14.5625 7.30356C14.7166 7.37534 14.8725 7.43945 15.0575 7.51945ZM13.4315 8.7189C13.4485 8.71562 13.4658 8.71178 13.4827 8.70849C13.4827 8.51836 13.487 8.32822 13.4813 8.13808C13.478 8.02027 13.4128 7.96219 13.3254 7.97973C13.2376 7.99726 13.1915 8.07945 13.2287 8.19014C13.2888 8.36986 13.363 8.54301 13.4315 8.7189ZM15.4356 5.87836C15.2778 5.81808 15.1238 5.75342 14.9613 5.7337C14.8513 5.72 14.8025 5.76986 14.8039 5.88274C14.8053 6.00877 14.872 6.04219 14.9641 6.02795C15.1252 6.00329 15.2802 5.94795 15.4356 5.87836ZM12.4786 3.01808C12.4476 3.24 12.4528 3.42521 12.4518 3.61041C12.4514 3.68 12.4654 3.74301 12.5251 3.77205C12.5758 3.79671 12.6284 3.78849 12.6712 3.74466C12.7242 3.69096 12.7219 3.62356 12.6979 3.55288C12.6402 3.38027 12.5692 3.21479 12.4786 3.01808ZM15.0416 4.28055C15.0355 4.27233 15.0289 4.26466 15.0228 4.25644C14.8781 4.31836 14.7335 4.37918 14.5897 4.44329C14.5254 4.47233 14.4653 4.51014 14.4681 4.60877C14.47 4.67616 14.5024 4.72438 14.5508 4.75068C14.6198 4.7874 14.6738 4.74247 14.7189 4.68658C14.8274 4.55233 14.934 4.41589 15.0416 4.28055ZM12.4781 8.74794C12.5702 8.53753 12.6528 8.36493 12.7054 8.17644C12.7327 8.07945 12.6984 8.00822 12.6148 7.98411C12.5335 7.96055 12.4626 7.99616 12.4565 8.09973C12.4448 8.30192 12.4462 8.50575 12.4781 8.74794ZM10.6676 6.97041C10.6713 6.98192 10.6755 6.99342 10.6793 7.00493C10.8395 6.97479 11.0001 6.9474 11.1598 6.91342C11.2157 6.90137 11.2664 6.86904 11.2786 6.79452C11.2894 6.72986 11.2692 6.67397 11.2269 6.63342C11.1715 6.58027 11.1119 6.6 11.0611 6.64055C10.9282 6.7474 10.7986 6.85973 10.6676 6.97041ZM10.6821 4.75616C10.7939 4.90466 10.9231 5.01753 11.0588 5.1189C11.1105 5.15781 11.1692 5.18082 11.225 5.12931C11.2683 5.08986 11.2885 5.03397 11.2791 4.96932C11.2668 4.88712 11.2114 4.85753 11.1508 4.84493C10.9949 4.81315 10.8385 4.78575 10.6821 4.75616Z" fill="#00B0CB"/>
<path d="M1.62785 6.43163C1.65368 6.39601 1.6781 6.34944 1.71849 6.34505C1.79176 6.33738 1.80679 6.28478 1.81853 6.21574C1.82699 6.16752 1.78613 6.07108 1.88898 6.09574C1.88898 6.07766 1.88898 6.05957 1.88851 6.04149C1.88664 5.87766 1.93125 5.80752 2.09188 5.74341C1.95427 5.96971 2.00405 6.19601 2.05196 6.42067C2.08906 6.59546 2.10174 6.76259 1.96695 6.90231C2.0792 6.96478 2.08437 7.02944 1.96883 7.093C2.09799 7.23492 2.09094 7.40039 2.05243 7.57574C2.00311 7.80094 1.95568 8.02724 2.08906 8.25135C1.93266 8.19218 1.8857 8.1193 1.88804 7.95765C1.88851 7.93683 1.90166 7.89519 1.881 7.89902C1.78143 7.91656 1.83497 7.83656 1.8237 7.79382C1.80773 7.7319 1.80585 7.65355 1.71896 7.65245C1.67998 7.6519 1.65415 7.60204 1.62785 7.56697C1.61 7.51437 1.60577 7.45957 1.60765 7.40313C1.61235 7.26067 1.73118 7.28533 1.79599 7.23711C1.84343 7.20149 1.82934 7.29793 1.85611 7.32861C1.91482 7.39492 1.79881 7.41135 1.82276 7.48039C1.77063 7.46286 1.77908 7.36313 1.71568 7.40533C1.69501 7.41902 1.68703 7.44971 1.69501 7.47985C1.71192 7.54505 1.75466 7.56039 1.80679 7.55765C1.86221 7.55437 1.89556 7.51327 1.912 7.45957C1.93877 7.3719 1.93548 7.28368 1.87442 7.21409C1.82041 7.15272 1.7556 7.1193 1.67904 7.15437C1.6039 7.18889 1.55035 7.24807 1.54331 7.34724C1.53673 7.43766 1.55364 7.52204 1.60343 7.59492C1.76217 7.98505 1.92139 8.37519 2.0792 8.76587C2.10268 8.8245 2.1257 8.88478 2.14119 8.9467C2.2046 9.20533 2.13932 9.36478 1.91528 9.48094C2.04116 9.54122 2.1365 9.62505 2.1581 9.78396C2.17783 9.92916 2.13885 10.0601 2.08624 10.1872C1.92186 10.5851 1.75748 10.9823 1.59215 11.3796C1.55834 11.4607 1.5311 11.5429 1.54472 11.6338C1.55928 11.7303 1.61094 11.7911 1.69266 11.8135C1.77485 11.836 1.84296 11.8059 1.89227 11.7259C1.93877 11.6508 1.93736 11.5686 1.90542 11.4881C1.87818 11.419 1.82605 11.3998 1.76546 11.4119C1.72695 11.4196 1.69924 11.4464 1.69501 11.4946C1.69266 11.5226 1.69783 11.5505 1.72601 11.5609C1.77908 11.5801 1.77485 11.5166 1.81149 11.476C1.8021 11.5516 1.91294 11.5637 1.85376 11.6393C1.82981 11.67 1.84296 11.7637 1.79129 11.7297C1.72836 11.6886 1.62644 11.7001 1.61047 11.5812C1.59826 11.4892 1.60155 11.3834 1.67575 11.3445C1.78425 11.2881 1.84765 11.2267 1.81525 11.0771C1.81055 11.0552 1.84906 11.0733 1.86691 11.0678C1.87255 11.0711 1.87818 11.0738 1.88382 11.0771C1.8857 11.0672 1.88757 11.0574 1.88945 11.0475C1.87818 10.8557 1.91528 10.7867 2.08624 10.7122C1.95145 10.9566 2.01157 11.1916 2.06135 11.43C2.09 11.5675 2.09705 11.7089 2.00264 11.8256C1.98714 11.8453 1.96977 11.8585 1.99372 11.893C2.05853 11.9889 2.05619 11.9911 1.96413 12.0618C2.11818 12.2031 2.0947 12.3872 2.05008 12.5724C1.99889 12.7845 1.97446 12.9933 2.08765 13.1933C1.98104 13.2009 1.88992 13.127 1.8857 13.002C1.88241 12.904 1.80585 12.8453 1.80914 12.7566C1.81478 12.619 1.7091 12.6283 1.65039 12.5757C1.64335 12.5642 1.6363 12.5533 1.62926 12.5418C1.57947 12.3401 1.60061 12.339 1.77767 12.236C1.87583 12.179 1.81947 12.3144 1.87912 12.3029C1.91247 12.2963 1.87161 12.3434 1.85282 12.3577C1.82464 12.379 1.84577 12.4322 1.8082 12.4475C1.78237 12.4185 1.7866 12.3467 1.72789 12.3692C1.70112 12.3796 1.6936 12.4064 1.69877 12.4366C1.70816 12.4897 1.7401 12.5116 1.78472 12.516C1.85376 12.5231 1.90213 12.4903 1.92327 12.4141C1.94675 12.3303 1.94863 12.2448 1.88288 12.184C1.80444 12.1122 1.7138 12.0963 1.62503 12.1527C1.54894 12.2009 1.52781 12.2837 1.55364 12.3807C1.56867 12.4377 1.5729 12.4996 1.61141 12.5456C1.60906 12.5681 1.61188 12.5883 1.6302 12.6015C1.66542 12.71 1.70065 12.8185 1.73634 12.9264C1.76123 13.0009 1.76593 13.0727 1.71474 13.1346C1.66213 13.1982 1.59356 13.2146 1.52734 13.184C1.46722 13.1566 1.41744 13.1566 1.35732 13.184C1.29063 13.2141 1.22253 13.1987 1.16992 13.1346C1.11873 13.0722 1.12343 13.0009 1.14832 12.9264C1.18448 12.8185 1.21924 12.71 1.25493 12.6015C1.27325 12.5883 1.2756 12.5681 1.27278 12.5451C1.31364 12.4952 1.31787 12.4283 1.33384 12.367C1.35591 12.2804 1.33196 12.2064 1.27043 12.1593C1.19341 12.1001 1.10934 12.1122 1.0309 12.1598C0.962799 12.2015 0.939786 12.2738 0.950118 12.3598C0.959512 12.4388 0.986752 12.5045 1.06425 12.5149C1.11356 12.5215 1.161 12.5155 1.18307 12.4503C1.19294 12.4212 1.19012 12.39 1.16804 12.3752C1.10229 12.3308 1.1037 12.4278 1.07035 12.4497C1.04405 12.419 1.05861 12.3692 1.02198 12.3516C1.00413 12.3434 0.97689 12.316 0.999434 12.3067C1.04452 12.2886 1.0417 12.2103 1.0835 12.213C1.25211 12.2245 1.30754 12.3352 1.25587 12.5423C1.24883 12.5533 1.24225 12.5642 1.23521 12.5752C1.23192 12.5779 1.22863 12.5812 1.22534 12.5829C1.11826 12.6212 1.09619 12.7182 1.05345 12.8305C1.01446 12.933 1.02855 13.0705 0.935089 13.1478C0.895637 13.1801 0.859003 13.2092 0.787144 13.2174C0.913954 12.9883 0.883895 12.7697 0.828005 12.5456C0.783856 12.3697 0.774932 12.1927 0.923347 12.0596C0.860882 12.0114 0.768357 11.9741 0.889062 11.8908C0.912075 11.8749 0.907379 11.8557 0.890471 11.8349C0.769766 11.6875 0.805461 11.5188 0.840686 11.3483C0.883895 11.139 0.921938 10.9286 0.802173 10.7275C0.955754 10.7598 1.00695 10.8475 0.995207 11.047C0.997085 11.0568 0.998964 11.0667 1.00084 11.0766C1.00648 11.0733 1.01211 11.0705 1.01775 11.0672C1.04687 11.0672 1.08444 11.0464 1.068 11.1182C1.04593 11.2157 1.06707 11.2798 1.1657 11.3138C1.26949 11.3494 1.28781 11.4629 1.27419 11.5779C1.25916 11.7056 1.1455 11.6755 1.08491 11.7324C1.06988 11.7467 1.00366 11.6004 1.02433 11.584C1.05485 11.5598 1.04687 11.5155 1.07411 11.4886C1.11121 11.5001 1.1084 11.5977 1.16804 11.556C1.19528 11.5368 1.19435 11.5001 1.18166 11.4683C1.15959 11.413 1.11638 11.402 1.07082 11.4108C0.982056 11.4289 0.959042 11.5061 0.959042 11.5966C0.958572 11.7155 1.01352 11.79 1.11028 11.8146C1.23333 11.8464 1.339 11.7401 1.34229 11.5905C1.34417 11.5127 1.31928 11.4453 1.29157 11.3779C1.12906 10.9845 0.966087 10.5916 0.803113 10.1982C0.79278 10.173 0.782447 10.1478 0.773054 10.122C0.664561 9.82834 0.719042 9.63601 0.963739 9.47656C0.845383 9.42834 0.759434 9.34998 0.731723 9.20697C0.705891 9.07327 0.730784 8.94779 0.779629 8.82779C0.945891 8.41629 1.11403 8.00533 1.28123 7.59437C1.32914 7.52039 1.34981 7.43656 1.34135 7.3456C1.33055 7.23492 1.26902 7.16752 1.18073 7.1467C1.08773 7.12478 1.01446 7.17683 0.97595 7.27546C0.942604 7.36094 0.946361 7.45135 1.00883 7.52094C1.05908 7.57683 1.11826 7.57683 1.16992 7.52204C1.19951 7.49081 1.20468 7.44039 1.17227 7.41026C1.10934 7.35163 1.11497 7.47437 1.07129 7.47437C1.04875 7.44313 1.04781 7.40697 1.02151 7.37957C0.969375 7.32423 1.07834 7.31546 1.05767 7.25793C1.05204 7.24259 1.06941 7.22834 1.08914 7.23053C1.24413 7.24752 1.30284 7.36368 1.25728 7.56642C1.23145 7.60204 1.20515 7.65355 1.16664 7.6519C1.0666 7.64861 1.04922 7.77574 1.06284 7.80149C1.1239 7.91765 0.97595 7.87108 0.992858 7.94396C1.01071 8.02122 0.992389 8.09245 0.94824 8.15218C0.912075 8.20149 0.869805 8.24204 0.795128 8.25026C0.929923 8.02724 0.879199 7.8004 0.830823 7.57519C0.79325 7.4004 0.786205 7.23437 0.915833 7.093C0.801234 7.03108 0.797946 6.96752 0.915833 6.9056C0.787144 6.76368 0.79325 6.59766 0.830823 6.42286C0.879668 6.19766 0.929453 5.97135 0.794659 5.7467C0.951058 5.80478 0.994737 5.87272 0.995676 6.04094C0.995676 6.05903 0.994737 6.093 0.995207 6.093C1.12437 6.10177 1.05485 6.22177 1.07082 6.28861C1.08116 6.33245 1.10088 6.32313 1.11967 6.32642C1.17932 6.33738 1.22018 6.37957 1.25634 6.43108C1.27419 6.48423 1.27889 6.53903 1.27654 6.59546C1.27043 6.73683 1.15255 6.71492 1.08679 6.76149C1.04123 6.79327 1.05438 6.69793 1.02808 6.66615C0.973602 6.6004 1.08163 6.58396 1.05908 6.48861C1.1084 6.54505 1.10464 6.62177 1.16147 6.59656C1.18636 6.5856 1.19341 6.55546 1.18918 6.52642C1.18026 6.4656 1.14409 6.44368 1.09525 6.43985C1.03419 6.43546 0.993798 6.47327 0.974071 6.53245C0.944952 6.61957 0.9473 6.70834 1.00742 6.78012C1.06049 6.84368 1.1253 6.8782 1.2028 6.84423C1.27889 6.81081 1.3329 6.75163 1.34135 6.65245C1.34887 6.56149 1.32914 6.47711 1.28123 6.40368C1.12249 6.013 0.9628 5.62286 0.804991 5.23163C0.781508 5.173 0.758494 5.11272 0.743465 5.05081C0.68006 4.79163 0.745813 4.63272 0.957163 4.52368C0.699786 4.32259 0.659394 4.15327 0.794659 3.82231C0.958103 3.42341 1.12343 3.02615 1.28875 2.62834C1.3221 2.54779 1.35215 2.46615 1.34088 2.37409C1.32914 2.27656 1.27936 2.21355 1.19951 2.1867C1.1239 2.16149 1.05673 2.18505 1.00413 2.25409C0.9473 2.32861 0.945891 2.41464 0.97595 2.50231C0.995207 2.5593 1.03513 2.58944 1.0882 2.58944C1.13564 2.58944 1.17509 2.5719 1.18683 2.51053C1.19247 2.48149 1.18918 2.453 1.16335 2.43985C1.10511 2.41026 1.11028 2.4919 1.06613 2.51656C1.0774 2.44916 0.97642 2.42231 1.02714 2.36368C1.05204 2.33519 1.03043 2.23492 1.09759 2.27492C1.16194 2.31327 1.26386 2.30177 1.27513 2.42615C1.28405 2.52423 1.2756 2.63053 1.19153 2.6667C1.08538 2.71163 1.03982 2.77355 1.0727 2.90231C0.930392 2.94451 1.04076 3.14067 0.935089 3.20807C0.897516 3.23218 0.867457 3.27272 0.804052 3.2793C0.929453 3.0404 0.873563 2.80533 0.823308 2.56752C0.794189 2.42998 0.787614 2.28916 0.881547 2.1719C0.897046 2.15218 0.922878 2.12971 0.889062 2.10615C0.767888 2.02231 0.861351 1.9856 0.921469 1.93738C0.767888 1.79218 0.788553 1.60971 0.834111 1.42341C0.886244 1.21135 0.910197 1.00259 0.796537 0.802588C0.903621 0.795464 0.993328 0.868889 0.998964 0.994368C1.00319 1.0919 1.08022 1.15163 1.07552 1.23985C1.068 1.38122 1.17603 1.36752 1.23427 1.42067C1.24507 1.43163 1.24695 1.46889 1.26808 1.44807C1.28217 1.43437 1.26949 1.40971 1.25399 1.39546C1.21877 1.28697 1.18354 1.17848 1.14738 1.07053C1.12249 0.996012 1.11779 0.924779 1.16898 0.862314C1.22159 0.798204 1.29016 0.782862 1.35638 0.812999C1.4165 0.840396 1.46628 0.840396 1.5264 0.812999C1.59262 0.782862 1.66119 0.798204 1.7138 0.862314C1.76499 0.924779 1.76029 0.996012 1.7354 1.07053C1.69924 1.17848 1.66401 1.28697 1.62879 1.39492C1.61282 1.40916 1.60014 1.43382 1.61423 1.44861C1.6363 1.47053 1.63771 1.43272 1.64898 1.42177C1.65227 1.41903 1.65556 1.41574 1.65885 1.41409C1.76452 1.37464 1.78707 1.2782 1.83028 1.16752C1.87161 1.06177 1.85235 0.913821 1.95709 0.841492C1.99372 0.816286 2.02519 0.776834 2.08953 0.792725C1.96789 1.0119 2.00358 1.23437 2.05806 1.46231C2.09892 1.63272 2.10879 1.80697 1.96037 1.93464C2.01908 1.98451 2.11818 2.02067 1.9956 2.10451C1.97305 2.11985 1.97587 2.13903 1.99325 2.1604C2.11865 2.31272 2.07732 2.48697 2.04116 2.66067C1.99842 2.86615 1.9646 3.07218 2.08155 3.26779C1.9538 3.24204 1.88382 3.15108 1.88335 3.01957C1.88335 2.97683 1.93078 2.90012 1.82887 2.92752C1.79458 2.93683 1.82464 2.88642 1.82135 2.86451C1.80961 2.79163 1.82605 2.71053 1.72507 2.68478C1.61799 2.65738 1.59967 2.54286 1.60812 2.42724C1.61799 2.29574 1.7354 2.32588 1.79176 2.26341C1.80444 2.24971 1.83638 2.27985 1.82793 2.30122C1.80585 2.35492 1.92327 2.35437 1.85799 2.42067C1.83591 2.44314 1.8237 2.47875 1.80632 2.50998C1.7711 2.49519 1.78049 2.40971 1.72178 2.4382C1.69501 2.45135 1.68937 2.47985 1.69454 2.50724C1.70534 2.56752 1.7448 2.59053 1.79223 2.58834C1.88898 2.58451 1.92092 2.50944 1.92421 2.41026C1.92891 2.28478 1.84812 2.18067 1.74527 2.17629C1.58041 2.16861 1.49071 2.35601 1.56867 2.5604C1.65133 2.77683 1.74433 2.98834 1.83262 3.20204C1.91763 3.40752 2.00311 3.61245 2.08812 3.81793C2.1055 3.85957 2.12194 3.90231 2.13462 3.9467C2.20695 4.20204 2.15341 4.34724 1.92609 4.52149C2.15575 4.64314 2.2248 4.85355 2.11255 5.13957C1.95662 5.53738 1.79035 5.92971 1.62879 6.32423C1.61846 6.34944 1.61094 6.37574 1.60202 6.40149C1.55223 6.47437 1.53391 6.55875 1.54237 6.64916C1.55317 6.76642 1.61892 6.83272 1.71286 6.85081C1.80069 6.86779 1.86785 6.81574 1.9073 6.72478C1.96037 6.60204 1.90401 6.44752 1.80491 6.43875C1.75278 6.43437 1.71004 6.4519 1.6936 6.51766C1.68609 6.54724 1.69454 6.57793 1.71521 6.59163C1.77908 6.63218 1.76922 6.533 1.80397 6.51985C1.83967 6.53793 1.82511 6.5856 1.85564 6.61026C1.92374 6.66615 1.81008 6.67601 1.82746 6.72752C1.83309 6.74505 1.82229 6.77026 1.79223 6.76533C1.63442 6.74122 1.58182 6.63656 1.62785 6.43163ZM1.81384 9.79601C1.87114 9.82396 1.85986 9.92697 1.92984 9.9445C1.93971 9.94724 1.94534 9.9719 1.95286 9.9867C1.87067 10.019 1.88194 10.1566 1.7927 10.1883C1.78378 9.96533 1.61564 10.0968 1.54472 10.0037C1.48648 10.4103 1.50292 10.4486 1.72836 10.4563C1.70253 10.5752 1.62597 10.613 1.52217 10.6201C1.58887 10.7456 1.56163 10.8503 1.49775 10.9511C1.45783 11.0141 1.42401 11.007 1.38597 10.9483C1.32163 10.8481 1.29767 10.7429 1.35732 10.6272C1.21407 10.59 1.20515 10.5818 1.16194 10.4541C1.36014 10.4552 1.3653 10.4503 1.36061 10.2114C1.3592 10.144 1.35121 10.0771 1.34605 10.0053C1.28781 10.0316 1.24413 10.053 1.19435 10.0503C1.15818 10.0486 1.12483 10.0579 1.10276 10.1018C1.08961 10.1281 1.11873 10.1785 1.07787 10.1807C1.04311 10.1823 1.02339 10.1401 1.01916 10.1034C1.01399 10.059 0.992858 10.0398 0.96233 10.0229C0.932741 10.0064 0.913954 9.96368 0.948709 9.95163C1.02104 9.92752 1.01211 9.8245 1.07975 9.79163C1.10182 9.84916 1.10605 9.93026 1.18307 9.91985C1.223 9.91437 1.24742 9.88861 1.25118 9.8382C1.25728 9.75656 1.21877 9.7056 1.16382 9.66998C1.03513 9.58779 0.874972 9.69519 0.866987 9.86615C0.86323 9.94834 0.889062 10.0218 0.917711 10.093C1.06519 10.459 1.2136 10.8251 1.36155 11.1905C1.38456 11.2475 1.40945 11.3034 1.43388 11.3609C1.45031 11.3489 1.45971 11.3456 1.46206 11.339C1.63771 10.9061 1.81384 10.4733 1.98761 10.0393C2.01298 9.97574 2.02754 9.9067 2.01532 9.83491C1.99466 9.71163 1.92139 9.6519 1.82135 9.64368C1.7401 9.63711 1.67012 9.67875 1.63959 9.77245C1.62221 9.82505 1.6208 9.88861 1.68092 9.91327C1.72742 9.93245 1.76781 9.9182 1.78378 9.85464C1.79082 9.83327 1.79035 9.80752 1.81384 9.79601ZM1.79552 5.21957C1.7819 5.00971 1.62456 5.11711 1.54284 5.0404C1.48883 5.44478 1.50198 5.47656 1.72084 5.493C1.6781 5.61629 1.67435 5.61957 1.52922 5.66505C1.57853 5.79327 1.55364 5.9445 1.47427 6.01409C1.45125 6.03437 1.43622 6.03492 1.41227 6.01464C1.33243 5.9456 1.30754 5.79327 1.35826 5.66341C1.27278 5.6393 1.18307 5.62177 1.16241 5.49464C1.36718 5.47656 1.36765 5.47656 1.36061 5.22834C1.35873 5.16861 1.35121 5.10944 1.34605 5.04861C1.10558 5.12259 1.10558 5.12259 1.08679 5.21738C0.998494 5.20094 1.03137 5.05464 0.943073 5.03492C0.927105 5.03108 0.934619 4.99272 0.946831 4.98889C1.02198 4.96533 1.01728 4.85848 1.08679 4.81135C1.09806 4.88423 1.1037 4.96094 1.18495 4.95437C1.22159 4.95108 1.24319 4.92533 1.24977 4.88478C1.26292 4.80368 1.22628 4.75053 1.17321 4.71053C1.05063 4.61903 0.881547 4.71711 0.867927 4.88697C0.861351 4.96861 0.884365 5.04259 0.913954 5.11492C1.07552 5.51492 1.23615 5.91492 1.39818 6.31437C1.40898 6.34067 1.41227 6.37957 1.46206 6.38615C1.64241 5.93081 1.82464 5.47218 2.00593 5.013C2.02472 4.96533 2.02378 4.91218 2.01532 4.86122C1.99607 4.75108 1.93031 4.69519 1.84061 4.6782C1.75701 4.66231 1.68984 4.70341 1.64851 4.78779C1.6208 4.84423 1.61799 4.91327 1.67669 4.94505C1.73493 4.97629 1.77673 4.94231 1.78894 4.86724C1.79176 4.85135 1.78378 4.82944 1.81149 4.82176C1.86832 4.85793 1.86315 4.96642 1.93877 4.98889C1.94487 4.99053 1.94628 5.013 1.94957 5.0256C1.85658 5.04368 1.88851 5.19601 1.79552 5.21957ZM1.72084 8.50505C1.52264 8.5182 1.52264 8.5182 1.52452 8.75711C1.52499 8.82176 1.52687 8.88642 1.54847 8.9582C1.62456 8.8782 1.78941 8.9867 1.79411 8.77793C1.88804 8.80204 1.85752 8.95327 1.95004 8.9719C1.94675 8.9845 1.94534 9.00697 1.93971 9.00861C1.86409 9.03053 1.86879 9.13902 1.79975 9.18505C1.78754 9.1193 1.78472 9.04642 1.71239 9.04313C1.67012 9.04149 1.64429 9.06724 1.6363 9.11437C1.62268 9.19491 1.65979 9.24752 1.71286 9.28861C1.76264 9.32697 1.81712 9.3319 1.87348 9.31163C2.01157 9.26231 2.05947 9.11218 1.9862 8.92204C1.87724 8.6382 1.76076 8.35766 1.6471 8.07601C1.5837 7.91875 1.51842 7.76259 1.44984 7.59546C1.43059 7.62286 1.42119 7.63163 1.4165 7.64313C1.24225 8.07163 1.068 8.49957 0.895637 8.92916C0.872154 8.98779 0.860882 9.053 0.868396 9.11985C0.878259 9.20587 0.917242 9.26396 0.985813 9.29902C1.05767 9.33574 1.12577 9.3319 1.18871 9.27601C1.23662 9.23382 1.2648 9.17957 1.24836 9.1067C1.23943 9.0667 1.21548 9.04368 1.17885 9.04313C1.10323 9.04313 1.09665 9.11163 1.09243 9.1856C1.01728 9.13957 1.01869 9.02779 0.941664 9.00368C0.937437 9.00259 0.936498 8.96861 0.936968 8.96861C1.02761 8.94944 0.999903 8.7993 1.08914 8.77848C1.10652 8.8782 1.10652 8.8782 1.33994 8.9456C1.40241 8.56423 1.38691 8.52533 1.16288 8.50176C1.18401 8.37519 1.27419 8.35765 1.3592 8.33409C1.3066 8.20204 1.32444 8.07711 1.40429 7.99272C1.42777 7.96807 1.44421 7.95601 1.47474 7.98396C1.54894 8.0519 1.57712 8.1982 1.53298 8.31108C1.53063 8.31765 1.53016 8.32533 1.52875 8.33245C1.67482 8.37848 1.67857 8.38122 1.72084 8.50505ZM1.80163 3.81135C1.88288 3.8382 1.86174 3.97245 1.94534 3.99711C1.96037 4.00149 1.95662 4.03875 1.94206 4.04204C1.86268 4.06122 1.87161 4.18505 1.79505 4.21519C1.78519 4.14998 1.78707 4.08259 1.71568 4.0782C1.68092 4.07656 1.65039 4.09135 1.63959 4.1319C1.62315 4.19546 1.63865 4.25081 1.6828 4.29464C1.73071 4.34231 1.78519 4.36478 1.84859 4.35053C1.98808 4.3193 2.05853 4.18122 2.00029 4.00916C1.92609 3.78889 1.83544 3.57629 1.74949 3.36149C1.65227 3.1193 1.5527 2.87875 1.44984 2.62725C1.432 2.65135 1.4226 2.65957 1.41838 2.67053C1.24413 3.09903 1.07035 3.52752 0.897516 3.95711C0.872154 4.02067 0.857594 4.08971 0.868866 4.16094C0.887183 4.2782 0.955754 4.33793 1.05016 4.35218C1.13705 4.36533 1.20937 4.32149 1.24366 4.22505C1.26245 4.173 1.26339 4.10944 1.20327 4.08478C1.15677 4.0656 1.11732 4.0804 1.099 4.14231C1.09337 4.16259 1.09618 4.18944 1.06754 4.2004C1.0154 4.16423 1.01822 4.06286 0.945422 4.04423C0.932271 4.04094 0.923347 4.00478 0.938846 3.9993C1.01963 3.97135 1.00319 3.84314 1.08116 3.8119C1.10417 3.89683 1.10417 3.89683 1.33806 3.98231C1.40382 3.60697 1.38503 3.5604 1.15865 3.53629C1.1826 3.41793 1.26433 3.3867 1.36624 3.37081C1.28687 3.24314 1.33008 3.14122 1.39114 3.04149C1.42589 2.98505 1.45877 2.98889 1.49493 3.04204C1.56397 3.14341 1.58182 3.253 1.53063 3.3719C1.67294 3.40642 1.68797 3.42122 1.71755 3.54615C1.53016 3.53464 1.52311 3.54231 1.52311 3.76314C1.52311 3.83711 1.52405 3.91108 1.54378 3.98286C1.78143 3.89683 1.78143 3.89683 1.80163 3.81135ZM1.15161 4.51875C1.28781 4.56094 1.37705 4.6393 1.44515 4.78286C1.50573 4.63601 1.60155 4.56587 1.72977 4.51711C1.61611 4.46615 1.52922 4.41135 1.4738 4.30834C1.45313 4.26944 1.43388 4.26998 1.41274 4.30834C1.35732 4.4119 1.27043 4.4667 1.15161 4.51875ZM1.15348 9.47765C1.26808 9.53081 1.35591 9.58341 1.41133 9.68642C1.43012 9.72094 1.44984 9.73464 1.47192 9.69135C1.52828 9.58286 1.62268 9.53245 1.72789 9.47437C1.59356 9.44039 1.51231 9.34341 1.43716 9.22834C1.3747 9.36149 1.28546 9.43327 1.15348 9.47765ZM1.44703 1.50505C1.50386 1.34286 1.55035 1.21245 1.59544 1.08149C1.60906 1.04204 1.62033 0.997656 1.58746 0.965875C1.55881 0.938478 1.52452 0.955464 1.49963 0.978478C1.4583 1.01629 1.4226 1.00862 1.38268 0.975738C1.35685 0.954368 1.32397 0.93793 1.29579 0.969163C1.26902 0.998204 1.27842 1.03711 1.28781 1.07327C1.3235 1.21026 1.37799 1.33848 1.44703 1.50505ZM1.44374 12.5029C1.37939 12.653 1.32679 12.7801 1.29016 12.916C1.27889 12.9571 1.2662 13.0004 1.29814 13.0316C1.32632 13.0585 1.36061 13.0426 1.38597 13.019C1.42683 12.9812 1.463 12.9867 1.50292 13.0207C1.52875 13.0426 1.56116 13.0585 1.58981 13.0278C1.61705 12.9982 1.60718 12.9604 1.59779 12.9237C1.5635 12.7867 1.50761 12.659 1.44374 12.5029ZM1.27466 1.45464C1.2864 1.64314 1.26667 1.733 1.10699 1.76861C1.01634 1.78889 1.06566 1.68478 1.00601 1.69464C0.972662 1.70012 1.01446 1.65464 1.03325 1.6404C1.06096 1.61903 1.03795 1.56478 1.08256 1.54889C1.09853 1.5867 1.10229 1.64752 1.15865 1.62779C1.18636 1.61793 1.19247 1.58998 1.18683 1.5604C1.17697 1.50725 1.14456 1.48588 1.09994 1.48204C1.03137 1.47601 0.982995 1.50779 0.96186 1.58505C0.935089 1.68204 0.940255 1.77464 1.02245 1.83108C1.11028 1.8919 1.20844 1.90889 1.28875 1.82012C1.38315 1.71601 1.33665 1.60368 1.27466 1.45464ZM1.81806 1.54451C1.82041 1.61793 1.9383 1.66724 1.83403 1.75272C1.78331 1.79437 1.73587 1.75656 1.69642 1.74451C1.59121 1.71218 1.60765 1.59492 1.60061 1.49355C1.57712 1.53738 1.5635 1.57957 1.55317 1.62231C1.52969 1.71985 1.55317 1.80204 1.63067 1.84697C1.72037 1.89957 1.81102 1.88478 1.88757 1.80861C1.95568 1.74067 1.94863 1.65026 1.91857 1.56423C1.89932 1.50889 1.85846 1.4793 1.80444 1.47985C1.75748 1.4804 1.71662 1.49245 1.70112 1.55218C1.6936 1.58122 1.69736 1.61026 1.72225 1.62451C1.78707 1.66122 1.78096 1.573 1.81806 1.54451ZM1.64241 11.9566C1.55834 11.9434 1.50433 11.8245 1.44233 11.8289C1.37892 11.8333 1.32303 11.9379 1.2554 11.9577C1.37986 12.1314 1.51043 12.1029 1.64241 11.9566ZM1.64945 2.02834C1.58511 1.9867 1.52076 1.97026 1.47849 1.91108C1.45642 1.8804 1.43482 1.87382 1.41086 1.90779C1.36671 1.9719 1.29579 1.9856 1.23896 2.02889C1.43528 2.13026 1.44656 2.13081 1.63348 2.0404C1.63724 2.0393 1.64006 2.03601 1.64945 2.02834ZM1.26292 7.00971C1.339 7.03492 1.38738 7.13903 1.44468 7.13409C1.5062 7.12916 1.56256 7.04368 1.61 7.00259C1.49963 6.82944 1.38362 6.86012 1.26292 7.00971Z" fill="#F6C51A"/>
<path d="M14.5768 5.88882C14.5707 6.94197 13.8483 7.76772 12.9419 7.75786C12.0575 7.748 11.3478 6.90197 11.3516 5.86197C11.3558 4.82635 12.0857 3.99238 12.9823 4.00005C13.8718 4.00772 14.5829 4.85046 14.5768 5.88882Z" fill="#F6C51A"/>
<path d="M12.3626 10.0188C12.4556 10.027 12.5406 9.97552 12.6618 9.96456C12.5585 10.0298 12.6294 10.152 12.5425 10.2139C12.7844 10.2172 13.0079 10.2983 13.24 10.2895C12.806 10.2736 12.3739 10.2851 11.9394 10.3574C11.9188 10.3257 11.9178 10.2747 11.9413 10.2489C12.0414 10.1383 12.0869 9.95908 12.2377 9.9136C12.5242 9.82758 12.7506 9.63744 12.9262 9.3662C13.0413 9.18867 13.1996 9.15689 13.3743 9.12511C14.533 8.91196 15.3178 8.15963 15.7245 6.87525C15.7602 6.76237 15.7799 6.64237 15.8043 6.52511C15.8147 6.4736 15.8335 6.43689 15.8828 6.43963C15.9297 6.44237 15.9344 6.4862 15.9424 6.52894C15.9748 6.70264 15.9279 6.87031 15.9105 7.06483C15.9885 6.97059 16.0058 6.86812 16.0307 6.77278C16.0735 6.6084 16.1101 6.44127 16.1463 6.2747C16.1589 6.21771 16.1707 6.15798 16.2327 6.16456C16.2923 6.17114 16.3055 6.2347 16.3083 6.29004C16.3177 6.47853 16.2857 6.6599 16.228 6.83525C16.1834 6.97114 16.135 7.10538 16.0758 7.2747C16.1951 7.19031 16.2327 7.07853 16.2919 6.98867C16.3426 6.91086 16.3863 6.82648 16.4389 6.75086C16.476 6.69716 16.5304 6.66648 16.5873 6.70538C16.654 6.75141 16.6253 6.82045 16.599 6.87744C16.4708 7.15799 16.3078 7.41114 16.134 7.65497C16.1139 7.6747 16.0876 7.69059 16.0843 7.74703C16.1185 7.71689 16.1387 7.69881 16.1589 7.68127C16.29 7.58757 16.3834 7.44511 16.4938 7.32456C16.5173 7.29936 16.5384 7.27086 16.5624 7.2462C16.5995 7.2073 16.6427 7.19689 16.6817 7.23525C16.7282 7.28127 16.6845 7.31908 16.6638 7.3547C16.5145 7.61168 16.3247 7.82429 16.1214 8.021C16.0941 8.0473 16.0678 8.07415 16.0312 8.11031C16.142 8.14374 16.205 8.06319 16.2792 8.02045C16.3196 7.99744 16.3726 7.93442 16.4041 7.97497C16.4483 8.03141 16.3961 8.09552 16.3618 8.14593C16.2496 8.31086 16.0861 8.39634 15.942 8.51305C15.9105 8.53881 15.8673 8.54867 15.8461 8.60292C15.91 8.65059 15.987 8.59196 16.0603 8.64292C15.9401 8.79689 15.7616 8.78155 15.6118 8.87086C15.6818 8.92675 15.7588 8.87853 15.8386 8.92566C15.7109 9.04182 15.5559 9.02538 15.4234 9.08456C15.4765 9.14977 15.5559 9.101 15.6263 9.1547C15.4878 9.24347 15.3215 9.18264 15.1938 9.29278C15.2323 9.36347 15.3051 9.34812 15.3483 9.3936C15.2487 9.55908 14.7194 9.80018 14.5386 9.70538C14.7114 9.64018 14.8622 9.55744 14.997 9.43963C15.0223 9.41771 15.0693 9.40182 15.0641 9.36675C15.0458 9.2462 15.1097 9.22429 15.1858 9.20346C15.2638 9.1821 15.144 9.07689 15.2313 9.05223C15.2811 9.03853 15.3652 9.02209 15.3638 8.97552C15.3596 8.82977 15.4591 8.82977 15.5268 8.78155C15.5484 8.7662 15.5963 8.76456 15.5488 8.70867C15.5136 8.66757 15.5681 8.65168 15.5869 8.63689C15.6728 8.57004 15.7621 8.50922 15.848 8.44785C15.8391 8.37333 15.771 8.41936 15.7536 8.36401C15.7973 8.31031 15.8447 8.25662 15.8875 8.19799C15.9105 8.16621 15.9297 8.11963 15.9058 8.08237C15.8823 8.04566 15.848 8.08182 15.8189 8.0884C15.7959 8.09388 15.7729 8.09936 15.732 8.10922C15.7865 8.01004 15.8438 7.93333 15.8645 7.83415C15.8795 7.76292 15.864 7.72785 15.7959 7.73333C15.7189 7.73935 15.6451 7.76182 15.5794 7.8073C15.3727 7.95031 15.2046 8.1399 15.0886 8.38648C15.0562 8.45552 15.0176 8.50648 14.9575 8.54045C14.8105 8.62374 14.6635 8.70812 14.5179 8.7947C14.3639 8.88621 14.2187 8.99305 14.1084 9.15141C14.0666 9.21168 14.0121 9.22812 13.9529 9.24292C13.7106 9.3021 13.4612 9.30867 13.2207 9.381C13.1225 9.41059 13.0305 9.45278 12.9558 9.53497C12.7802 9.72894 12.5754 9.87251 12.3626 10.0035C12.2654 9.99634 12.2457 10.1574 12.1362 10.1235C12.2635 10.215 12.3199 10.1339 12.3626 10.0188ZM16.1124 7.25826C16.1073 7.2484 16.1016 7.23525 16.1002 7.23579C16.0904 7.23963 16.0814 7.24675 16.0721 7.25278C16.0767 7.26045 16.0824 7.2747 16.0857 7.27415C16.0946 7.27251 16.1035 7.26429 16.1124 7.25826Z" fill="#F6C51A"/>
<path d="M10.0696 7.97018C10.0452 7.97292 10.0222 7.97566 9.99869 7.97785C9.97897 7.9795 9.95971 7.98114 9.93247 7.98333C9.96817 8.11539 10.0659 8.18005 10.1349 8.27046C10.1077 8.30827 10.0607 8.27046 10.0311 8.3247C10.095 8.40416 10.1762 8.45676 10.2645 8.49457C10.3044 8.51155 10.342 8.52251 10.3261 8.58827C10.3129 8.64142 10.3411 8.66333 10.3791 8.67922C10.3998 8.68799 10.4303 8.70059 10.4092 8.73676C10.3462 8.84416 10.4129 8.86169 10.4796 8.88306C10.5055 8.89128 10.5299 8.90553 10.5562 8.91758C10.4726 9.04251 10.4731 9.04744 10.5942 9.10059C10.6501 9.12525 10.7079 9.14224 10.7666 9.16306C10.7492 9.2184 10.6868 9.21621 10.6576 9.27813C10.8807 9.4458 11.1358 9.52909 11.3776 9.65018C11.0273 9.6184 10.7333 9.39922 10.3876 9.26279C10.4547 9.23155 10.4937 9.21292 10.5468 9.18827C10.428 9.12744 10.2998 9.14662 10.203 9.05183C10.2462 8.99813 10.3115 9.01237 10.3617 8.9647C10.2594 8.8984 10.1316 8.94443 10.0339 8.85292C10.1053 8.78936 10.2044 8.83703 10.2716 8.75374C10.1255 8.67046 9.9367 8.73676 9.81224 8.55101C9.932 8.53292 10.0405 8.58224 10.1758 8.54169C10.0903 8.49402 10.0288 8.45895 9.96676 8.42553C9.82492 8.34827 9.68731 8.26443 9.57693 8.13183C9.54218 8.09018 9.48018 8.03922 9.51588 7.98388C9.54687 7.93566 9.60183 7.99648 9.64269 8.02005C9.71595 8.06279 9.77983 8.13511 9.8902 8.11539C9.80707 8.02827 9.73333 7.94991 9.65866 7.87265C9.51494 7.72306 9.38202 7.56196 9.274 7.37621C9.25051 7.33621 9.18993 7.28854 9.24535 7.23429C9.29983 7.18059 9.3468 7.22717 9.38954 7.27594C9.49756 7.40032 9.60699 7.52306 9.71736 7.6447C9.73615 7.66553 9.75447 7.69183 9.79345 7.68744C9.78734 7.62059 9.7432 7.58388 9.7122 7.54005C9.56989 7.33785 9.43979 7.12635 9.33693 6.89347C9.31157 6.83594 9.25803 6.76525 9.3313 6.70936C9.40457 6.65347 9.45905 6.71046 9.50367 6.77676C9.6239 6.95594 9.71971 7.15648 9.85545 7.32744C9.87846 7.26553 9.84229 7.22607 9.82445 7.18279C9.72253 6.93402 9.6286 6.68251 9.61779 6.40142C9.61639 6.35977 9.61733 6.31758 9.61967 6.27594C9.62296 6.22005 9.64269 6.17347 9.69435 6.16525C9.75353 6.15539 9.76339 6.20854 9.77513 6.26114C9.81318 6.4321 9.85122 6.60306 9.89396 6.77292C9.91744 6.86553 9.94046 6.96032 10.0076 7.06224C9.99494 6.91265 9.97709 6.78936 9.97756 6.66553C9.97756 6.58607 9.94186 6.45676 10.0438 6.44416C10.1405 6.4321 10.1232 6.56196 10.1382 6.63539C10.3993 7.91977 11.3898 8.95813 12.5166 9.12361C12.6194 9.13895 12.7232 9.14881 12.8266 9.15648C12.8886 9.16087 12.9078 9.18388 12.8745 9.25128C12.8547 9.29128 12.8388 9.33457 12.8219 9.37621C12.8012 9.42662 12.7796 9.42717 12.7397 9.39484C12.6171 9.29566 12.4738 9.27539 12.3292 9.26553C12.2376 9.2595 12.146 9.25128 12.0544 9.24525C11.8825 9.23374 11.7402 9.15101 11.6214 9.00744C11.4678 8.82224 11.3025 8.66498 11.0813 8.58881C10.9127 8.53073 10.7976 8.36854 10.6882 8.21292C10.5393 8.00032 10.4082 7.76909 10.2199 7.59813C10.1795 7.56142 10.1344 7.47539 10.0804 7.58607C10.0771 7.59265 10.0588 7.59375 10.0489 7.59155C10.0147 7.58388 9.97051 7.54936 9.94891 7.58991C9.92073 7.64251 9.97756 7.67703 9.99635 7.71923C10.0297 7.79649 10.0668 7.87265 10.0696 7.97018Z" fill="#F6C51A"/>
<path d="M14.0739 10.4851C14.0368 10.5361 14.0087 10.5821 13.9744 10.6199C13.9335 10.6649 13.8884 10.6884 13.8405 10.6243C13.8147 10.5892 13.7907 10.5564 13.7452 10.6133C13.6268 10.7607 13.6235 10.7575 13.5263 10.581C13.4681 10.6484 13.4469 10.7799 13.3342 10.752C13.2502 10.7312 13.3258 10.6353 13.2816 10.5849C13.2271 10.6073 13.2055 10.6736 13.1637 10.7125C13.1294 10.7449 13.0923 10.7903 13.0482 10.7657C13.0116 10.7454 13.0355 10.6901 13.0336 10.6501C13.0327 10.6287 13.0303 10.6073 13.0289 10.5859C12.9806 10.5887 12.9745 10.6331 12.9543 10.6583C12.9129 10.7092 12.8702 10.7799 12.8087 10.7607C12.7584 10.7449 12.7955 10.6583 12.7669 10.5969C12.7002 10.6396 12.6339 10.6851 12.5654 10.724C12.5306 10.7438 12.4799 10.7712 12.4559 10.7279C12.4339 10.6879 12.471 10.6407 12.4973 10.6057C12.6062 10.4594 12.757 10.4309 12.9092 10.4166C13.1323 10.3958 13.3572 10.4281 13.5794 10.3859C13.6785 10.3673 13.7818 10.3503 13.8579 10.2709C13.911 10.2155 13.9387 10.1317 13.9871 10.0649C14.034 10.0002 14.0749 9.98376 14.1345 9.98156C14.4074 9.97225 14.6765 10.0249 14.9471 10.0451C15.0114 10.0501 15.0053 10.089 14.9907 10.1388C14.9527 10.2681 14.8048 10.3355 14.6902 10.2572C14.6164 10.2068 14.6019 10.2139 14.5915 10.3103C14.5756 10.4605 14.5159 10.4939 14.4027 10.4133C14.3276 10.3602 14.2947 10.3783 14.2595 10.4654C14.1975 10.6172 14.1702 10.6183 14.0739 10.4851Z" fill="#F6C51A"/>
<path d="M14.3322 8.29637C14.2181 8.17528 14.1021 8.05637 13.9908 7.93144C13.9457 7.88048 13.8987 7.81911 13.9302 7.73583C13.9541 7.67281 13.9992 7.63281 14.0612 7.63281C14.1387 7.63281 14.172 7.69802 14.1955 7.76925C14.2509 7.93747 14.3026 8.10678 14.3557 8.27555C14.3482 8.28268 14.3402 8.28925 14.3322 8.29637Z" fill="#F6C51A"/>
<path d="M15.3981 5.3341C15.2543 5.41245 15.1116 5.49355 14.966 5.56697C14.9105 5.59492 14.8457 5.60533 14.7988 5.54396C14.7631 5.49738 14.7457 5.43821 14.7673 5.37519C14.7936 5.29738 14.8518 5.28204 14.9148 5.28149C15.0735 5.28095 15.2323 5.28149 15.391 5.28149C15.3934 5.29848 15.3957 5.31601 15.3981 5.3341Z" fill="#F6C51A"/>
<path d="M10.4941 5.88321C10.6473 5.81417 10.8018 5.76267 10.9615 5.73472C11.0183 5.72486 11.0747 5.7276 11.1094 5.79335C11.1385 5.84869 11.1409 5.90842 11.1127 5.96541C11.0765 6.03828 11.0169 6.03719 10.9554 6.02733C10.798 6.00212 10.6473 5.94623 10.4941 5.88321Z" fill="#F6C51A"/>
<path d="M15.391 6.48035C15.2257 6.48035 15.0604 6.48364 14.895 6.47925C14.8058 6.47706 14.7494 6.42227 14.764 6.30994C14.7776 6.20199 14.8391 6.15487 14.9279 6.18446C15.0951 6.24035 15.2445 6.34227 15.3971 6.43432C15.3952 6.44966 15.3934 6.46501 15.391 6.48035Z" fill="#F6C51A"/>
<path d="M14.3432 3.46875C14.3024 3.66546 14.2517 3.85396 14.1779 4.03259C14.1385 4.12793 14.0708 4.15533 13.9896 4.10108C13.9083 4.04683 13.8961 3.9608 13.9637 3.86601C14.0727 3.71313 14.2113 3.59642 14.3432 3.46875Z" fill="#F6C51A"/>
<path d="M11.9961 8.59302C12.0257 8.3711 12.0473 8.18864 12.075 8.00782C12.0863 7.9333 12.1121 7.86097 12.1877 7.84617C12.2431 7.83521 12.2929 7.86206 12.3239 7.91412C12.3667 7.9859 12.3418 8.05768 12.3042 8.12179C12.215 8.27357 12.1243 8.4248 11.9961 8.59302Z" fill="#F6C51A"/>
<path d="M10.8906 7.47748C10.9972 7.34104 11.102 7.20186 11.2119 7.06926C11.256 7.01611 11.3124 6.97227 11.3824 7.01063C11.4336 7.03857 11.4636 7.09172 11.465 7.15364C11.4669 7.23967 11.4138 7.28405 11.3509 7.312C11.2034 7.37666 11.0555 7.44077 10.908 7.50488C10.9024 7.49556 10.8967 7.48679 10.8906 7.47748Z" fill="#F6C51A"/>
<path d="M10.9043 4.25391C11.0588 4.3213 11.2152 4.38267 11.3674 4.45719C11.4688 4.50706 11.4923 4.60021 11.4374 4.69062C11.3773 4.7898 11.3016 4.78158 11.2331 4.71034C11.1067 4.57939 11.0006 4.42651 10.9043 4.25391Z" fill="#F6C51A"/>
<path d="M11.998 3.16797C12.1324 3.35098 12.2423 3.50989 12.3273 3.68742C12.3705 3.77728 12.348 3.86112 12.2582 3.90276C12.1648 3.94605 12.1112 3.89126 12.0868 3.79372C12.0384 3.60139 12.0314 3.40139 11.998 3.16797Z" fill="#F6C51A"/>
<path d="M11.1992 7.91411C11.2833 7.75356 11.3664 7.59192 11.4528 7.43301C11.4834 7.37657 11.5294 7.33219 11.5914 7.34644C11.6496 7.35959 11.691 7.40781 11.7069 7.47411C11.7243 7.54863 11.6834 7.59794 11.6374 7.6374C11.5064 7.75027 11.3636 7.84069 11.1992 7.91411Z" fill="#F6C51A"/>
<path d="M11.1914 3.80859C11.3689 3.92202 11.5221 4.01353 11.6568 4.1412C11.7296 4.21024 11.7296 4.29133 11.6625 4.3675C11.5925 4.4464 11.5225 4.42832 11.4685 4.34668C11.3657 4.18942 11.2839 4.01627 11.1914 3.80859Z" fill="#F6C51A"/>
<path d="M12.963 2.99609C13.026 3.17966 13.0706 3.36924 13.095 3.56377C13.1077 3.66459 13.0654 3.73692 12.9677 3.73746C12.8719 3.73856 12.8278 3.67664 12.8372 3.5687C12.8536 3.37363 12.91 3.18897 12.963 2.99609Z" fill="#F6C51A"/>
<path d="M12.9651 8.80245C12.9055 8.57944 12.8529 8.38547 12.8369 8.18218C12.828 8.07095 12.8829 8.01835 12.9759 8.02383C13.0755 8.02985 13.1074 8.10656 13.0933 8.20684C13.0666 8.39807 13.0238 8.58547 12.9651 8.80245Z" fill="#F6C51A"/>
<path d="M10.5352 6.43098C10.685 6.34057 10.8329 6.24523 10.9954 6.18659C11.08 6.15591 11.1453 6.18933 11.1626 6.30221C11.1795 6.40961 11.1345 6.47591 11.0297 6.47975C10.8677 6.48523 10.7056 6.48139 10.5431 6.48139C10.5408 6.4644 10.538 6.44742 10.5352 6.43098Z" fill="#F6C51A"/>
<path d="M13.9099 3.21484C13.9062 3.41539 13.8893 3.61265 13.8428 3.80279C13.8188 3.89978 13.7564 3.94745 13.6662 3.90032C13.5793 3.85484 13.5605 3.77813 13.6061 3.68443C13.6878 3.51402 13.7972 3.36662 13.9099 3.21484Z" fill="#F6C51A"/>
<path d="M11.5977 3.46094C11.7142 3.58642 11.8316 3.71135 11.9471 3.83847C11.9969 3.89327 12.0242 3.96066 11.9941 4.03902C11.9711 4.09929 11.9232 4.12614 11.8678 4.12669C11.7964 4.12724 11.7611 4.06696 11.7391 4.00066C11.6818 3.82861 11.6287 3.65436 11.5742 3.48121C11.5822 3.47409 11.5897 3.46751 11.5977 3.46094Z" fill="#F6C51A"/>
<path d="M15.2514 7.00564C15.0907 6.9755 14.9297 6.94756 14.77 6.91359C14.7136 6.90153 14.6634 6.8692 14.6511 6.79413C14.6408 6.72947 14.6605 6.67304 14.7028 6.63304C14.7578 6.58098 14.8169 6.60071 14.8695 6.64016C15.0057 6.74263 15.1363 6.8555 15.2514 7.00564Z" fill="#F6C51A"/>
<path d="M15.2615 4.78843C15.1333 4.89692 15.006 5.00706 14.8759 5.11336C14.8252 5.155 14.766 5.17911 14.7092 5.13199C14.6613 5.09199 14.6369 5.03226 14.65 4.96212C14.665 4.88212 14.7219 4.85473 14.7829 4.84213C14.9393 4.81089 15.0962 4.78295 15.2531 4.75391C15.2559 4.76541 15.2587 4.77692 15.2615 4.78843Z" fill="#F6C51A"/>
<path d="M10.5427 5.27806C10.7043 5.27806 10.8663 5.27587 11.0279 5.27916C11.1233 5.28135 11.1773 5.33559 11.1627 5.45559C11.15 5.56025 11.0843 5.60902 10.9856 5.57066C10.8283 5.50984 10.6822 5.41779 10.5371 5.32463C10.539 5.30929 10.5409 5.29395 10.5427 5.27806Z" fill="#F6C51A"/>
<path d="M11.5723 8.27939C11.6267 8.10624 11.6798 7.93199 11.7366 7.75994C11.7587 7.69363 11.793 7.63281 11.8644 7.63281C11.9194 7.63281 11.9691 7.65966 11.9931 7.71829C12.025 7.7961 11.9959 7.8635 11.9461 7.91829C11.8306 8.04541 11.7136 8.17089 11.5972 8.29692C11.5892 8.29089 11.5807 8.28487 11.5723 8.27939Z" fill="#F6C51A"/>
<path d="M13.8957 8.55395C13.805 8.40819 13.7135 8.26354 13.6247 8.11669C13.5895 8.0586 13.5618 7.99395 13.6017 7.92381C13.635 7.86463 13.6857 7.83395 13.7449 7.84655C13.8116 7.8608 13.8417 7.92217 13.8525 7.99614C13.8788 8.17806 13.9037 8.35997 13.9295 8.54189C13.9178 8.54573 13.907 8.54956 13.8957 8.55395Z" fill="#F6C51A"/>
<path d="M14.73 7.91071C14.5652 7.84496 14.4252 7.74852 14.2913 7.64003C14.2425 7.60003 14.2129 7.54688 14.2256 7.47345C14.2373 7.4077 14.2768 7.3677 14.3289 7.34962C14.3933 7.32715 14.4388 7.37263 14.4698 7.42797C14.5595 7.58688 14.6436 7.74962 14.73 7.91071Z" fill="#F6C51A"/>
<path d="M14.7294 3.85107C14.6458 4.00888 14.5641 4.16833 14.4777 4.32395C14.4448 4.38312 14.3992 4.43682 14.3297 4.41381C14.2781 4.39682 14.2377 4.35682 14.2259 4.29052C14.2114 4.20997 14.2471 4.15518 14.3006 4.11573C14.4349 4.0171 14.5707 3.92121 14.7059 3.82422C14.7139 3.83299 14.7214 3.8423 14.7294 3.85107Z" fill="#F6C51A"/>
<path d="M13.462 3.05283C13.4691 3.23365 13.4771 3.41447 13.4822 3.5953C13.4846 3.6742 13.4667 3.74708 13.3954 3.77612C13.3437 3.79749 13.2911 3.78653 13.2507 3.73995C13.2004 3.68187 13.2108 3.60954 13.2347 3.54489C13.2972 3.37612 13.3653 3.21009 13.431 3.04297C13.4414 3.04626 13.4517 3.04954 13.462 3.05283Z" fill="#F6C51A"/>
<path d="M15.0567 7.51986C14.8717 7.43986 14.7157 7.37575 14.5617 7.30397C14.51 7.27986 14.4659 7.23767 14.4668 7.15931C14.4673 7.09137 14.4973 7.0415 14.5438 7.01246C14.6054 6.97411 14.6598 7.00863 14.7049 7.05959C14.8242 7.19328 14.9351 7.33575 15.0567 7.51986Z" fill="#F6C51A"/>
<path d="M13.4306 8.71881C13.362 8.54292 13.2878 8.36977 13.2277 8.19005C13.1906 8.07881 13.2371 7.99717 13.3245 7.97964C13.4118 7.9621 13.4766 8.02018 13.4804 8.13799C13.486 8.32813 13.4818 8.51827 13.4818 8.7084C13.4649 8.71224 13.4475 8.71553 13.4306 8.71881Z" fill="#F6C51A"/>
<path d="M15.4364 5.87719C15.281 5.94677 15.1264 6.00212 14.9649 6.02677C14.8723 6.04047 14.8061 6.0076 14.8047 5.88157C14.8033 5.76924 14.8522 5.71938 14.9621 5.73253C15.1246 5.75225 15.2786 5.81636 15.4364 5.87719Z" fill="#F6C51A"/>
<path d="M12.4795 3.01953C12.5707 3.21679 12.6416 3.38227 12.6994 3.55487C12.7233 3.62556 12.7257 3.69241 12.6726 3.74666C12.6298 3.78994 12.5772 3.79871 12.5265 3.77405C12.4669 3.74501 12.4528 3.682 12.4532 3.61241C12.4537 3.42666 12.4481 3.24145 12.4795 3.01953Z" fill="#F6C51A"/>
<path d="M15.0423 4.28192C14.9348 4.41726 14.8281 4.5537 14.7196 4.68795C14.6746 4.74384 14.6205 4.78877 14.5515 4.75206C14.5027 4.72631 14.4707 4.67754 14.4688 4.61014C14.466 4.51206 14.5261 4.4737 14.5905 4.44466C14.7342 4.38055 14.8793 4.31973 15.0235 4.25781C15.0301 4.26603 15.0362 4.2737 15.0423 4.28192Z" fill="#F6C51A"/>
<path d="M12.4775 8.74742C12.4455 8.50577 12.4441 8.30194 12.4563 8.0992C12.4624 7.99509 12.5329 7.96002 12.6146 7.98358C12.6982 8.00769 12.732 8.07947 12.7053 8.17591C12.6522 8.3644 12.5695 8.53701 12.4775 8.74742Z" fill="#F6C51A"/>
<path d="M10.668 6.97083C10.799 6.86014 10.9286 6.74781 11.0615 6.64096C11.1123 6.60042 11.1719 6.58069 11.2273 6.63384C11.2696 6.67439 11.2898 6.73028 11.279 6.79494C11.2668 6.87001 11.2156 6.90233 11.1602 6.91384C11.0005 6.94781 10.8399 6.97521 10.6797 7.00535C10.676 6.99384 10.6722 6.98233 10.668 6.97083Z" fill="#F6C51A"/>
<path d="M10.6816 4.75781C10.838 4.7874 10.9944 4.8148 11.1504 4.84713C11.2105 4.85973 11.2659 4.88932 11.2786 4.97151C11.2885 5.03617 11.2678 5.09206 11.2246 5.13151C11.1687 5.18302 11.11 5.16 11.0583 5.1211C10.9221 5.01918 10.7934 4.90631 10.6816 4.75781Z" fill="#F6C51A"/>
<path d="M12.3616 10.02C12.3189 10.1351 12.2625 10.2167 12.1348 10.1241C12.2442 10.1581 12.2639 9.99753 12.3611 10.0041C12.3611 10.009 12.3616 10.0145 12.3616 10.02Z" fill="#1FB1C2"/>
<path d="M1.81261 9.79873C1.78913 9.81024 1.7896 9.83599 1.78443 9.85736C1.768 9.92092 1.72807 9.93462 1.68158 9.91599C1.62146 9.89133 1.62287 9.82777 1.64025 9.77517C1.67077 9.68147 1.74075 9.63983 1.82201 9.6464C1.92205 9.65462 1.99531 9.71435 2.01598 9.83763C2.02772 9.90887 2.01363 9.97846 1.98827 10.042C1.81449 10.476 1.63837 10.9089 1.46271 11.3417C1.45989 11.3483 1.4505 11.3516 1.43453 11.3637C1.41011 11.3061 1.38522 11.2502 1.3622 11.1933C1.21379 10.8278 1.06584 10.4617 0.918367 10.0957C0.889248 10.0239 0.863416 9.95106 0.867643 9.86887C0.875627 9.69791 1.03625 9.59051 1.16447 9.6727C1.21989 9.70832 1.25794 9.75928 1.25183 9.84092C1.24807 9.89133 1.22365 9.91709 1.18373 9.92257C1.1067 9.93298 1.10295 9.85243 1.0804 9.79435C1.01324 9.82722 1.02216 9.92969 0.949365 9.95435C0.91461 9.96585 0.933397 10.0086 0.962986 10.0256C0.993514 10.0426 1.01465 10.0617 1.01982 10.1061C1.02404 10.1428 1.0433 10.185 1.07852 10.1834C1.11985 10.1817 1.09074 10.1308 1.10342 10.1045C1.12502 10.0606 1.15884 10.0513 1.195 10.053C1.24526 10.0552 1.28893 10.0338 1.3467 10.008C1.35187 10.0798 1.35985 10.1472 1.36126 10.2141C1.36596 10.453 1.36079 10.4585 1.16259 10.4568C1.20533 10.5839 1.21473 10.5927 1.35798 10.63C1.29786 10.7456 1.32181 10.8508 1.38663 10.9511C1.4242 11.0097 1.45848 11.0168 1.49841 10.9538C1.56228 10.853 1.58952 10.7483 1.52283 10.6228C1.62663 10.6163 1.70318 10.5779 1.72901 10.459C1.50357 10.4513 1.48713 10.413 1.54537 10.0064C1.61582 10.0996 1.78443 9.9675 1.79336 10.1911C1.88306 10.1593 1.87179 10.0217 1.95351 9.98941C1.946 9.97462 1.94036 9.94996 1.9305 9.94722C1.85864 9.92914 1.86944 9.82667 1.81261 9.79873Z" fill="#1FB1C2"/>
<path d="M1.79542 5.22086C1.88842 5.1973 1.85648 5.04497 1.94994 5.02634C1.94666 5.01374 1.94478 4.99127 1.93914 4.98963C1.864 4.96771 1.86869 4.85867 1.81186 4.82251C1.78415 4.83018 1.79214 4.8521 1.78932 4.86799C1.77664 4.9436 1.73484 4.97758 1.67707 4.94579C1.61836 4.91401 1.62118 4.84497 1.64889 4.78853C1.69022 4.7047 1.75691 4.6636 1.84098 4.67894C1.93069 4.69593 1.99644 4.75127 2.0157 4.86196C2.02462 4.91237 2.02509 4.96607 2.00631 5.01374C1.82501 5.47292 1.64278 5.9321 1.46243 6.38689C1.41265 6.37977 1.40936 6.34141 1.39856 6.31511C1.23652 5.91566 1.07589 5.51511 0.914328 5.11566C0.885209 5.04333 0.861725 4.96936 0.868301 4.88771C0.882391 4.71785 1.05147 4.61977 1.17358 4.71127C1.22713 4.75127 1.26376 4.80442 1.25014 4.88552C1.24356 4.92662 1.22149 4.95237 1.18533 4.95511C1.10454 4.96223 1.09891 4.88497 1.08717 4.8121C1.01765 4.85922 1.02235 4.96607 0.947205 4.98963C0.934993 4.99347 0.927479 5.03182 0.943447 5.03566C1.03174 5.05593 0.998868 5.20223 1.08764 5.21812C1.10595 5.12333 1.10595 5.12333 1.34642 5.04936C1.35159 5.11018 1.35957 5.16936 1.36098 5.22908C1.36803 5.4773 1.36756 5.4773 1.16278 5.49538C1.18345 5.62251 1.27315 5.64059 1.35863 5.66415C1.30744 5.79401 1.3328 5.94689 1.41265 6.01538C1.43613 6.03566 1.45116 6.03511 1.47464 6.01484C1.55402 5.94525 1.57891 5.79401 1.52959 5.66579C1.67472 5.62032 1.67801 5.61703 1.72122 5.49374C1.50235 5.4773 1.4892 5.44552 1.54321 5.04114C1.62447 5.1184 1.7818 5.011 1.79542 5.22086Z" fill="#1FB1C2"/>
<path d="M1.71952 8.50725C1.67725 8.38396 1.67396 8.38067 1.5279 8.33464C1.52931 8.32752 1.52978 8.31985 1.53212 8.31327C1.57627 8.2004 1.54809 8.05409 1.47388 7.98615C1.44336 7.9582 1.42692 7.97026 1.40343 7.99492C1.32359 8.0793 1.30527 8.20423 1.35835 8.33629C1.27334 8.3604 1.18316 8.37738 1.16203 8.50396C1.38653 8.52752 1.40156 8.56642 1.33909 8.94779C1.1052 8.8804 1.1052 8.8804 1.08829 8.78067C0.998582 8.80149 1.02676 8.95163 0.936116 8.97081C0.935646 8.97081 0.936586 9.00423 0.940813 9.00588C1.01784 9.02998 1.01643 9.14177 1.09158 9.18779C1.0958 9.11327 1.10238 9.04478 1.17799 9.04533C1.21463 9.04533 1.23858 9.06889 1.24751 9.10889C1.26394 9.18177 1.23576 9.23601 1.18786 9.2782C1.12445 9.33409 1.05682 9.33793 0.984961 9.30122C0.91639 9.2667 0.877407 9.20807 0.867544 9.12204C0.86003 9.05519 0.871302 8.98998 0.894785 8.93135C1.06715 8.50177 1.2414 8.07382 1.41565 7.64533C1.42034 7.63382 1.42927 7.62505 1.44899 7.59766C1.51803 7.76478 1.58285 7.92094 1.64625 8.0782C1.76038 8.35985 1.87639 8.63985 1.98535 8.92423C2.05862 9.11437 2.01071 9.26451 1.87263 9.31382C1.81627 9.33409 1.76179 9.32916 1.71201 9.29081C1.65893 9.25026 1.62183 9.19711 1.63545 9.11656C1.64344 9.06944 1.66974 9.04368 1.71154 9.04533C1.78387 9.04861 1.78668 9.12149 1.79889 9.18724C1.86841 9.14122 1.86324 9.03327 1.93886 9.01081C1.94449 9.00916 1.9459 8.9867 1.94919 8.97409C1.85666 8.95546 1.88719 8.80423 1.79326 8.78012C1.78856 8.98944 1.62324 8.8804 1.54762 8.9604C1.52602 8.88861 1.52414 8.82396 1.52367 8.7593C1.52132 8.5204 1.52085 8.5204 1.71952 8.50725Z" fill="#1FB1C2"/>
<path d="M1.80045 3.81192C1.78025 3.8974 1.78025 3.8974 1.54401 3.98452C1.52428 3.91274 1.52334 3.83877 1.52334 3.7648C1.52334 3.54398 1.52992 3.5363 1.71779 3.54781C1.6882 3.42288 1.67317 3.40808 1.53086 3.37356C1.58158 3.25466 1.5642 3.14507 1.49516 3.0437C1.459 2.99055 1.42612 2.98671 1.39137 3.04315C1.33031 3.14233 1.2871 3.2448 1.36647 3.37247C1.26456 3.38836 1.18283 3.41959 1.15888 3.53795C1.38573 3.56206 1.40452 3.60863 1.33829 3.98398C1.1044 3.89795 1.1044 3.89795 1.08139 3.81356C1.00342 3.8448 1.01986 3.97302 0.939077 4.00096C0.923578 4.00644 0.932971 4.04261 0.945652 4.04589C1.01845 4.06507 1.01563 4.16589 1.06777 4.20206C1.09642 4.1911 1.0936 4.1637 1.09923 4.14398C1.11708 4.08206 1.157 4.06726 1.2035 4.08644C1.26362 4.1111 1.26268 4.17466 1.24389 4.22672C1.20914 4.32315 1.13728 4.36699 1.05039 4.35384C0.955985 4.33959 0.886944 4.27932 0.869097 4.16261C0.857825 4.09137 0.872384 4.02233 0.897746 3.95877C1.07011 3.52918 1.24436 3.10069 1.41861 2.67219C1.4233 2.66123 1.43223 2.65302 1.45008 2.62891C1.55293 2.88041 1.6525 3.12096 1.74972 3.36315C1.83567 3.57795 1.92632 3.79055 2.00053 4.01082C2.05876 4.18288 1.98831 4.32096 1.84882 4.35219C1.78542 4.36644 1.73094 4.34452 1.68303 4.2963C1.63888 4.25247 1.62338 4.19713 1.63982 4.13356C1.65015 4.09302 1.68115 4.07767 1.71591 4.07987C1.7873 4.0837 1.78542 4.15165 1.79528 4.21685C1.87184 4.18672 1.86244 4.06343 1.94229 4.0437C1.95685 4.04041 1.96107 4.00315 1.94557 3.99877C1.86056 3.97302 1.8817 3.83877 1.80045 3.81192Z" fill="#1FB1C2"/>
<path d="M1.15039 4.52084C1.26922 4.46824 1.3561 4.41344 1.41153 4.31043C1.43219 4.27152 1.45145 4.27152 1.47258 4.31043C1.528 4.41344 1.61489 4.46824 1.72855 4.5192C1.59986 4.56796 1.50405 4.6381 1.44393 4.78495C1.37536 4.64194 1.28612 4.56358 1.15039 4.52084Z" fill="#1FB1C2"/>
<path d="M1.15234 9.47978C1.28479 9.4354 1.37356 9.36362 1.43602 9.23047C1.51117 9.34554 1.59242 9.44252 1.72675 9.4765C1.62154 9.53458 1.52714 9.58499 1.47078 9.69348C1.44823 9.73677 1.42898 9.72362 1.41019 9.68855C1.35477 9.58609 1.26694 9.53294 1.15234 9.47978Z" fill="#1FB1C2"/>
<path d="M1.44661 1.50643C1.37756 1.33985 1.32308 1.21164 1.28692 1.07465C1.27752 1.03848 1.26813 1.00013 1.2949 0.970539C1.32308 0.939306 1.35596 0.955745 1.38179 0.977114C1.42171 1.00999 1.45694 1.01766 1.49874 0.979854C1.52363 0.95684 1.55792 0.939854 1.58657 0.967251C1.61991 0.999032 1.60817 1.04342 1.59455 1.08287C1.54993 1.21383 1.50343 1.34424 1.44661 1.50643Z" fill="#1FB1C2"/>
<path d="M1.4429 12.5039C1.50677 12.6601 1.56266 12.7877 1.59742 12.9253C1.60681 12.9614 1.61668 12.9998 1.58944 13.0294C1.56079 13.0601 1.52838 13.0442 1.50255 13.0223C1.46263 12.9883 1.42693 12.9823 1.3856 13.0206C1.36024 13.0442 1.32595 13.0601 1.29777 13.0332C1.26536 13.002 1.27852 12.9582 1.28979 12.9176C1.32595 12.7812 1.37855 12.654 1.4429 12.5039Z" fill="#1FB1C2"/>
<path d="M1.27452 1.45703C1.33652 1.60662 1.38302 1.71895 1.28861 1.82196C1.2083 1.91018 1.11014 1.89319 1.02231 1.83292C0.94012 1.77648 0.934953 1.68388 0.961724 1.58689C0.982859 1.50963 1.0317 1.4784 1.09981 1.48388C1.14443 1.48772 1.17636 1.50909 1.1867 1.56224C1.19233 1.59183 1.18623 1.61977 1.15852 1.62963C1.10216 1.64936 1.0984 1.58854 1.08243 1.55073C1.03781 1.56662 1.06129 1.62087 1.03311 1.64224C1.01433 1.65648 0.972527 1.70196 1.00587 1.69648C1.06505 1.68662 1.01621 1.79073 1.10685 1.77046C1.26654 1.73539 1.28626 1.64498 1.27452 1.45703Z" fill="#1FB1C2"/>
<path d="M1.81677 1.54459C1.77967 1.57308 1.78577 1.6613 1.72049 1.62513C1.6956 1.61144 1.69184 1.58185 1.69935 1.5528C1.71485 1.49308 1.75571 1.48048 1.80268 1.48048C1.85669 1.47993 1.89755 1.50952 1.91681 1.56486C1.9464 1.65089 1.95391 1.7413 1.88581 1.80924C1.80926 1.88541 1.71861 1.9002 1.6289 1.8476C1.55188 1.80212 1.52839 1.71993 1.55141 1.62294C1.56174 1.57965 1.57536 1.53801 1.59884 1.49417C1.60589 1.595 1.58945 1.71226 1.69466 1.74513C1.73411 1.75719 1.78155 1.795 1.83227 1.75335C1.93701 1.66733 1.81912 1.61856 1.81677 1.54459Z" fill="#1FB1C2"/>
<path d="M1.61103 12.548C1.57252 12.502 1.56829 12.4401 1.55326 12.3831C1.5279 12.2867 1.54856 12.2039 1.62465 12.1552C1.71342 12.0987 1.80406 12.1146 1.8825 12.1864C1.94872 12.2467 1.94637 12.3322 1.92289 12.4165C1.90175 12.4927 1.85291 12.5256 1.78434 12.5185C1.73972 12.5141 1.70825 12.4922 1.69839 12.439C1.69322 12.4089 1.70074 12.382 1.72751 12.3716C1.78622 12.3491 1.78199 12.4209 1.80782 12.45C1.84539 12.4346 1.82473 12.3815 1.85244 12.3601C1.87123 12.3459 1.91209 12.2987 1.87874 12.3053C1.81909 12.3168 1.87545 12.1815 1.77729 12.2385C1.6007 12.3415 1.57909 12.3426 1.62888 12.5442C1.62324 12.5459 1.61714 12.547 1.61103 12.548Z" fill="#1FB1C2"/>
<path d="M1.25538 12.544C1.30704 12.3375 1.25115 12.2268 1.08301 12.2147C1.04168 12.212 1.04403 12.2903 0.99894 12.3084C0.976396 12.3177 1.00364 12.3446 1.02148 12.3534C1.05859 12.3709 1.04356 12.4208 1.06986 12.4514C1.10321 12.4301 1.1018 12.3331 1.16755 12.3769C1.18963 12.3917 1.19244 12.4224 1.18258 12.452C1.16051 12.5177 1.11307 12.5232 1.06375 12.5166C0.986259 12.5062 0.959018 12.4405 0.949625 12.3616C0.939292 12.275 0.962306 12.2027 1.03041 12.1616C1.10884 12.1139 1.19291 12.1018 1.26994 12.161C1.33146 12.2081 1.35542 12.2821 1.33334 12.3687C1.31784 12.4301 1.31315 12.4969 1.27229 12.5468C1.26665 12.5457 1.26101 12.5446 1.25538 12.544Z" fill="#1FB1C2"/>
<path d="M1.6279 6.43474C1.58187 6.63967 1.63448 6.74433 1.79463 6.77008C1.82469 6.77502 1.83549 6.74926 1.82986 6.73228C1.81248 6.68077 1.92614 6.67036 1.85804 6.61502C1.82751 6.59036 1.84207 6.54214 1.80638 6.52461C1.77162 6.53776 1.78101 6.63693 1.71761 6.59639C1.69694 6.58324 1.68849 6.55255 1.696 6.52241C1.71244 6.45721 1.75518 6.43913 1.80731 6.44351C1.90641 6.45228 1.96277 6.6068 1.9097 6.72954C1.87025 6.8205 1.80309 6.87255 1.71526 6.85556C1.62133 6.83748 1.55557 6.77118 1.54477 6.65392C1.53679 6.56406 1.5551 6.47913 1.60442 6.40625C1.61193 6.41557 1.61992 6.42543 1.6279 6.43474Z" fill="#00B0CB"/>
<path d="M1.60249 7.59541C1.5527 7.52253 1.5358 7.43815 1.54237 7.34774C1.54942 7.24911 1.60296 7.18938 1.67811 7.15486C1.75466 7.11979 1.81948 7.15322 1.87349 7.21459C1.93454 7.28418 1.9383 7.3724 1.91106 7.46007C1.89462 7.51377 1.86128 7.55541 1.80586 7.55815C1.75372 7.56089 1.71098 7.54555 1.69407 7.48034C1.68656 7.45075 1.69407 7.41952 1.71474 7.40582C1.77814 7.36363 1.76969 7.4639 1.82182 7.48089C1.7974 7.41185 1.91341 7.39486 1.85517 7.32911C1.82793 7.29842 1.84249 7.20199 1.79505 7.2376C1.73024 7.28582 1.61141 7.26116 1.60672 7.40363C1.60484 7.46007 1.60906 7.51431 1.62691 7.56746C1.61893 7.57678 1.61047 7.58609 1.60249 7.59541Z" fill="#00B0CB"/>
<path d="M1.25723 7.56532C1.30232 7.36312 1.24361 7.24641 1.08909 7.22942C1.0689 7.22723 1.05199 7.24093 1.05762 7.25682C1.07829 7.3149 0.968857 7.32312 1.02146 7.37847C1.04776 7.40641 1.04917 7.44258 1.07124 7.47326C1.11492 7.47326 1.10929 7.35052 1.17222 7.40915C1.20463 7.43929 1.19946 7.4897 1.16987 7.52093C1.11868 7.57518 1.05903 7.57573 1.00878 7.51984C0.946313 7.45025 0.942556 7.35984 0.975902 7.27436C1.01441 7.17573 1.08768 7.12367 1.18068 7.14559C1.26897 7.16641 1.33097 7.23381 1.3413 7.34449C1.35023 7.43545 1.32956 7.51984 1.28119 7.59326C1.2732 7.58395 1.26522 7.57463 1.25723 7.56532Z" fill="#00B0CB"/>
<path d="M1.2804 6.40625C1.3283 6.48022 1.34803 6.56406 1.34051 6.65502C1.33206 6.75419 1.27805 6.81337 1.20196 6.8468C1.12447 6.88077 1.05965 6.84625 1.00658 6.78269C0.946464 6.71091 0.944115 6.62214 0.973235 6.53502C0.992961 6.47529 1.03335 6.43748 1.09441 6.44241C1.14372 6.44625 1.17989 6.46817 1.18834 6.52899C1.19257 6.55803 1.18552 6.58762 1.16063 6.59913C1.1038 6.62433 1.10756 6.54817 1.05824 6.49118C1.08079 6.58652 0.972765 6.60296 1.02725 6.66872C1.05402 6.70104 1.0404 6.79639 1.08596 6.76406C1.15218 6.71748 1.2696 6.7394 1.2757 6.59803C1.27805 6.54104 1.27335 6.4868 1.25551 6.43365C1.26443 6.42433 1.27241 6.41557 1.2804 6.40625Z" fill="#00B0CB"/>
<path d="M1.64091 11.9559C1.50894 12.1022 1.37884 12.1302 1.25391 11.957C1.32154 11.9373 1.37743 11.8326 1.44083 11.8282C1.50283 11.8239 1.55637 11.9433 1.64091 11.9559Z" fill="#1FB1C2"/>
<path d="M1.64877 2.02968C1.63938 2.03735 1.63656 2.04064 1.6328 2.04228C1.44634 2.13215 1.4346 2.13215 1.23828 2.03078C1.29511 1.98694 1.36603 1.97379 1.41018 1.90968C1.43366 1.87516 1.45574 1.88228 1.47781 1.91297C1.52008 1.9716 1.5849 1.98804 1.64877 2.02968Z" fill="#1FB1C2"/>
<path d="M1.26172 7.01164C1.38242 6.86205 1.49796 6.83137 1.6088 7.00507C1.5609 7.04616 1.50454 7.13109 1.44348 7.13657C1.38665 7.14096 1.33827 7.03685 1.26172 7.01164Z" fill="#1FB1C2"/>
<path d="M1.65022 1.42529C1.63895 1.43625 1.63754 1.47405 1.61546 1.45214C1.60137 1.43789 1.61405 1.41268 1.63002 1.39844C1.6366 1.40775 1.64364 1.41652 1.65022 1.42529Z" fill="#00B0CB"/>
<path d="M1.2541 1.39844C1.2696 1.41268 1.28228 1.43734 1.26819 1.45104C1.24659 1.47186 1.24518 1.4346 1.23438 1.42364C1.24095 1.41542 1.24753 1.4072 1.2541 1.39844Z" fill="#00B0CB"/>
<path d="M1.25504 12.543C1.26068 12.5435 1.26631 12.5446 1.27195 12.5457C1.27477 12.5682 1.27242 12.5884 1.2541 12.6021C1.24753 12.5934 1.24095 12.5852 1.23438 12.5764C1.24142 12.5649 1.248 12.5539 1.25504 12.543Z" fill="#00B0CB"/>
<path d="M1.61004 12.5463C1.61615 12.5452 1.62179 12.5441 1.62789 12.543C1.63494 12.5545 1.64198 12.5654 1.64903 12.5769C1.64198 12.5852 1.63541 12.5939 1.62883 12.6021C1.61098 12.589 1.60769 12.5687 1.61004 12.5463Z" fill="#00B0CB"/>
<path d="M1.01864 11.0671C1.013 11.0704 1.00737 11.0732 1.00173 11.0765C0.999851 11.0666 0.997972 11.0567 0.996094 11.0469C1.00314 11.054 1.01112 11.0606 1.01864 11.0671Z" fill="#00B0CB"/>
<path d="M1.88973 11.0469C1.88785 11.0567 1.88597 11.0666 1.8841 11.0765C1.87846 11.0732 1.87282 11.0704 1.86719 11.0671C1.8747 11.0606 1.88222 11.054 1.88973 11.0469Z" fill="#00B0CB"/>
<path d="M16.1587 7.67865C16.1385 7.69673 16.1183 7.71426 16.084 7.7444C16.0873 7.68796 16.1136 7.67207 16.1338 7.65234C16.1422 7.66111 16.1502 7.66988 16.1587 7.67865Z" fill="#00B0CB"/>
<path d="M16.1112 7.25686C16.1018 7.26289 16.0933 7.27056 16.0839 7.27275C16.0806 7.2733 16.075 7.25905 16.0703 7.25138C16.0797 7.24535 16.0886 7.23823 16.0985 7.23439C16.1004 7.23384 16.106 7.24754 16.1112 7.25686Z" fill="#00B0CB"/>
</svg>
