<svg width="24" height="14" viewBox="0 0 24 14" fill="none" xmlns="http://www.w3.org/2000/svg">
<g clip-path="url(#clip0_2_15394)">
<path fill-rule="evenodd" clip-rule="evenodd" d="M12.9908 -2.997L12 -2.997C11.4715 -2.997 10.9431 -2.99699 10.4147 -2.99698C6.9798 -2.9969 3.54507 -2.99682 0.11016 -3C0.02016 -3 0 -2.972 0 -2.847C0.00264 3.71767 0.00264 10.2823 0 16.847C0 16.972 0.02016 17 0.1104 17C8.03688 16.9967 15.9634 16.9967 23.8898 17C23.9798 17 24 16.972 24 16.847C23.9974 10.2823 23.9974 3.71767 24 -2.847C24 -2.972 23.9798 -3 23.8898 -3C20.2568 -2.99694 16.6239 -2.99697 12.9908 -2.997Z" fill="#E52521"/>
<path d="M15.368 10.8731C15.0423 10.8459 14.8226 10.6709 14.6963 10.3859C14.6097 10.1901 14.5057 10.0109 14.3412 9.86928C14.3134 9.84544 14.2829 9.8244 14.252 9.80084C14.2103 9.85329 14.256 9.88442 14.2709 9.91696C14.3649 10.1231 14.44 10.3363 14.4326 10.5629C14.4232 10.8493 14.5032 11.0958 14.7043 11.309C14.45 11.2531 14.2754 11.1011 14.1734 10.8737C14.1203 10.7556 14.0991 10.624 14.0543 10.5017C13.9949 10.3396 13.9011 10.1986 13.7594 10.0889C13.8534 10.4294 13.8623 10.7657 13.8134 11.1132C13.7863 11.3061 13.8749 11.4963 14.0191 11.6461L14.0214 11.6458C13.9569 11.6839 13.9149 11.634 13.87 11.6054C13.5883 11.4253 13.5077 11.1494 13.4857 10.8411C13.472 10.6484 13.404 10.4717 13.2777 10.32C13.2668 10.3096 13.2586 10.2847 13.2403 10.302C13.2331 10.3088 13.2437 10.3332 13.2463 10.3497C13.2783 10.6543 13.2608 10.953 13.1571 11.2458C13.0771 11.4713 13.1497 11.6845 13.2334 11.8963C12.9785 11.7257 12.8368 11.4963 12.8534 11.1872C12.8654 10.9623 12.87 10.7396 12.7742 10.5275C12.7591 10.4942 12.752 10.4569 12.6988 10.4347C12.6854 10.5985 12.6774 10.7587 12.6357 10.9138C12.6065 11.0223 12.5777 11.132 12.5217 11.2287C12.3788 11.4756 12.3619 11.7302 12.4588 12.0003C12.2625 11.8912 12.1171 11.5625 12.1625 11.3219C12.2102 11.0697 12.2745 10.8201 12.2031 10.562C12.1939 10.5292 12.1839 10.5003 12.1534 10.4723C12.1048 10.6055 12.0908 10.7452 12.0357 10.8737C11.9731 11.0203 11.9076 11.1651 11.8088 11.2916C11.6482 11.4971 11.6031 11.7263 11.6519 11.9776C11.5519 11.9114 11.4762 11.7656 11.4576 11.606C11.4373 11.431 11.4588 11.2646 11.5342 11.1014C11.6308 10.8913 11.6642 10.67 11.6011 10.4386C11.5048 10.6566 11.4088 10.8723 11.2499 11.0523C11.1782 11.1334 11.0991 11.208 11.0305 11.2916C10.8996 11.4506 10.8782 11.6466 10.8559 11.8786C10.7008 11.5625 10.6865 11.2845 10.8585 11.0122C10.9702 10.8355 11.0511 10.6493 11.0773 10.442C11.0828 10.3982 11.1048 10.3503 11.0448 10.3049C10.8845 10.6296 10.627 10.865 10.3487 11.0868C10.1927 11.2113 10.141 11.4043 10.107 11.5987C9.97473 11.3788 10.0142 11.0366 10.2059 10.7979C10.3385 10.6327 10.4773 10.4729 10.5316 10.2628C10.5436 10.2159 10.5705 10.1691 10.5365 10.1052C10.4633 10.1868 10.3993 10.2659 10.327 10.3374C10.2127 10.4501 10.0893 10.5556 9.9433 10.6252C9.67844 10.7508 9.48329 10.9334 9.39414 11.2181C9.33757 10.914 9.40014 10.647 9.64015 10.4403C9.80672 10.297 9.9573 10.1447 10.045 9.94192C10.0627 9.90069 10.0976 9.86226 10.0724 9.79803C9.81644 10.0603 9.50271 10.214 9.16328 10.3335C8.97013 10.4016 8.85755 10.5735 8.7464 10.7842C8.73812 10.4294 8.85641 10.1775 9.13127 10.0087C9.31099 9.89816 9.47529 9.77532 9.59158 9.59862C9.617 9.56019 9.65186 9.52625 9.65586 9.47689C9.64815 9.47212 9.63786 9.46315 9.63529 9.46483C9.35214 9.65387 9.04156 9.76774 8.70326 9.82552C8.48697 9.86254 8.33211 10.0045 8.21524 10.1842L8.21753 10.1831C8.17296 9.96632 8.36696 9.65443 8.63526 9.53186C8.84269 9.43706 9.05413 9.35292 9.20699 9.17538C9.23699 9.14032 9.27985 9.11424 9.28671 9.06207C9.23813 9.03458 9.20556 9.07553 9.17013 9.0904C8.95013 9.18295 8.72326 9.25083 8.48211 9.24634C8.20124 9.24101 7.96067 9.32824 7.75637 9.53383C7.77266 9.27411 8.03495 9.01439 8.35068 8.9395C8.55154 8.89182 8.74126 8.82563 8.90355 8.69549C8.94013 8.66604 8.97927 8.64052 9.01327 8.57741C8.83241 8.6077 8.67383 8.65763 8.50725 8.66856C8.34411 8.6795 8.18553 8.65987 8.02524 8.64472C7.7918 8.62257 7.58694 8.68399 7.41408 8.84246V8.84274C7.37379 8.78552 7.41979 8.74569 7.44636 8.70503C7.62237 8.43745 7.88895 8.34069 8.19782 8.31937C8.41897 8.30395 8.61783 8.22962 8.78641 8.08013C8.51383 8.11603 8.24125 8.11996 7.98409 8.03525C7.70894 7.94466 7.44865 7.93512 7.17921 8.07732C7.25864 7.86921 7.54151 7.70037 7.80037 7.69532C7.99467 7.69167 8.19096 7.72785 8.38211 7.67176C8.47297 7.64511 8.5724 7.63221 8.67869 7.53685C8.27553 7.55115 7.94981 7.42298 7.62294 7.28302C7.44093 7.20505 7.24064 7.24403 7.04778 7.30546C7.19893 7.07687 7.54579 6.96272 7.86866 7.03985C8.07981 7.09033 8.28953 7.1066 8.50268 7.0592C8.53926 7.05107 8.57526 7.04658 8.59983 7.01208C8.54268 6.95767 8.4644 6.97253 8.39782 6.95486C8.17553 6.8954 7.96952 6.80537 7.78037 6.67663C7.53237 6.50779 7.36779 6.47161 7.04492 6.52293C7.17007 6.40149 7.30464 6.34904 7.45322 6.32913C7.62551 6.30613 7.79295 6.3238 7.95467 6.39504C8.14353 6.47834 8.34296 6.51564 8.55097 6.49797C8.5824 6.49517 8.61897 6.5061 8.64754 6.45786C8.42554 6.37568 8.21124 6.28201 8.0301 6.13083C7.96124 6.07333 7.89209 6.01612 7.82838 5.95357C7.6618 5.78949 7.44665 5.75892 7.22664 5.73704C7.3895 5.59176 7.75066 5.57493 7.99781 5.70198C8.07753 5.74293 8.15381 5.79117 8.23382 5.83184C8.39982 5.91627 8.57697 5.95413 8.77526 5.95946C8.76498 5.93309 8.76383 5.91627 8.75583 5.91234C8.4584 5.76116 8.22296 5.54324 8.02495 5.27959C7.89038 5.10065 7.68294 5.04006 7.46751 5.00164C7.6338 4.87066 8.0701 4.91862 8.26868 5.08887C8.43382 5.23051 8.60469 5.36485 8.82526 5.41646C8.87069 5.42712 8.9167 5.43497 8.97041 5.43217C8.86298 5.3096 8.72326 5.22097 8.63069 5.08802C8.57183 5.00332 8.49554 4.92759 8.45154 4.83644C8.32439 4.57363 8.13124 4.3902 7.84552 4.29961C8.15096 4.24324 8.42297 4.29849 8.63326 4.53521C8.80412 4.7279 8.9867 4.90011 9.24471 4.97331C9.25642 4.97387 9.26814 4.97415 9.27985 4.97471C9.27528 4.9663 9.27071 4.95789 9.26614 4.94947C9.0347 4.70293 8.87269 4.41965 8.76412 4.10019C8.69726 3.90302 8.51811 3.79027 8.33496 3.68201C8.60326 3.63517 8.91327 3.77961 9.0667 4.02138C9.18328 4.20481 9.30899 4.37899 9.49957 4.49622C9.54243 4.52259 9.58043 4.56157 9.65415 4.55681C9.53557 4.37786 9.41957 4.20593 9.36242 4.00567C9.33699 3.9162 9.30071 3.82757 9.29128 3.73642C9.26414 3.47361 9.12156 3.28878 8.90698 3.14658L8.90927 3.14882C8.99756 3.10058 9.07556 3.15051 9.15042 3.18052C9.38757 3.27588 9.54329 3.45005 9.62929 3.68565C9.69129 3.85618 9.79558 3.99838 9.93101 4.11955C9.9653 4.15012 9.99416 4.18938 10.065 4.19555C9.9833 4.00147 9.89958 3.81607 9.87616 3.61385C9.87073 3.56785 9.86073 3.52185 9.85873 3.47558C9.83987 3.05066 9.83044 3.02261 9.57472 2.6852C9.70129 2.69221 9.79015 2.75476 9.87644 2.82207C10.0304 2.94211 10.1299 3.09609 10.1733 3.28513C10.227 3.51989 10.313 3.73866 10.5039 3.90274C10.5145 3.90526 10.525 3.90807 10.5356 3.91059C10.5347 3.89909 10.5342 3.88759 10.5333 3.87637C10.4376 3.56 10.4282 3.24166 10.4739 2.91351C10.5027 2.70764 10.4287 2.51215 10.271 2.35873L10.2716 2.35929C10.3367 2.31694 10.3802 2.36938 10.4236 2.39827C10.6848 2.57357 10.7836 2.82964 10.803 3.12863C10.817 3.34544 10.8945 3.54065 11.0476 3.70669C10.9802 3.34011 11.0688 2.9954 11.1596 2.64762C11.2071 2.46615 11.1259 2.29085 11.0545 2.11836C11.2951 2.21849 11.4559 2.52224 11.4365 2.84675C11.4236 3.05851 11.4276 3.26578 11.5122 3.46548C11.5282 3.50306 11.5331 3.54626 11.5934 3.57038C11.6008 3.4091 11.6125 3.254 11.6499 3.10227C11.6779 2.98867 11.7116 2.8776 11.7665 2.77383C11.9105 2.50149 11.9319 2.38032 11.8431 2.00701C12.0322 2.07741 12.1731 2.50654 12.1279 2.69558C12.0705 2.93707 12.0242 3.17911 12.0868 3.42762C12.0959 3.46352 12.1002 3.49886 12.1331 3.52298C12.1811 3.48455 12.1657 3.42818 12.1777 3.37993C12.2368 3.14265 12.3308 2.9208 12.4745 2.7197C12.6485 2.47625 12.6851 2.31413 12.6345 2C12.7594 2.12229 12.8094 2.25663 12.8302 2.40276C12.8545 2.57217 12.8334 2.7354 12.7605 2.89415C12.6634 3.10591 12.6337 3.32861 12.6737 3.57515C12.7265 3.54682 12.7291 3.50362 12.7422 3.46913C12.8297 3.23942 12.9457 3.02317 13.1274 2.85545C13.3323 2.66669 13.4211 2.43866 13.4311 2.16913C13.5737 2.31638 13.5977 2.67033 13.4837 2.90229C13.4177 3.03635 13.3231 3.15584 13.2765 3.29972C13.2357 3.42649 13.2014 3.55439 13.2157 3.70276C13.2683 3.68032 13.2757 3.6433 13.2928 3.61385C13.416 3.40041 13.5628 3.20352 13.7694 3.06384C14.0057 2.90397 14.1457 2.69305 14.1817 2.40557C14.3169 2.64201 14.2717 2.98979 14.0803 3.21081C13.9409 3.3718 13.8163 3.54009 13.7597 3.74848C13.7466 3.79728 13.7249 3.84384 13.742 3.90526C13.8034 3.87525 13.8286 3.81776 13.8651 3.774C13.9994 3.61329 14.1597 3.48371 14.3409 3.37797C14.7089 3.16313 14.7092 3.16341 14.8972 2.78028C14.9743 3.07366 14.8809 3.37208 14.6469 3.56449C14.4506 3.72604 14.2866 3.90891 14.2123 4.15601C14.2132 4.16807 14.2137 4.18013 14.2146 4.19247C14.22 4.18574 14.2254 4.17929 14.2309 4.17256C14.496 3.94986 14.7915 3.78354 15.1238 3.67163C15.314 3.6074 15.4238 3.43855 15.5229 3.26438C15.5841 3.5241 15.4283 3.8343 15.1509 4.00119C14.9703 4.10973 14.8075 4.23426 14.6915 4.4104C14.6737 4.43732 14.662 4.46846 14.6475 4.49763C14.6312 4.50941 14.6252 4.52876 14.6366 4.54166C14.6535 4.56045 14.6629 4.53465 14.6755 4.52792C14.9463 4.34982 15.2398 4.23454 15.5643 4.1863C15.7372 4.16078 15.8741 4.05532 15.9924 3.9291C16.0221 3.89769 16.0332 3.84384 16.0901 3.84104L16.0878 3.83879C16.0604 4.15713 15.8855 4.37422 15.5946 4.49735C15.4003 4.5798 15.2206 4.67601 15.0786 4.83251C15.048 4.86617 15.01 4.89478 15.0017 4.95256C15.0635 4.9576 15.1032 4.92002 15.148 4.90151C15.3549 4.81681 15.5683 4.74416 15.7932 4.75538C16.0886 4.77025 16.3281 4.66563 16.5389 4.47547L16.5364 4.4721C16.5312 4.69564 16.2849 4.9677 16.0092 5.04091C15.7846 5.10037 15.5621 5.16011 15.3812 5.31409C15.3532 5.33793 15.3286 5.36598 15.3023 5.39206C15.2992 5.40244 15.296 5.41281 15.2932 5.42319C15.3052 5.42319 15.3172 5.42319 15.3295 5.42291C15.6435 5.32727 15.9601 5.30792 16.2861 5.36093C16.5158 5.39823 16.7104 5.29165 16.8932 5.16628C16.8312 5.40861 16.5452 5.63439 16.2692 5.65823C16.0412 5.67814 15.8152 5.70619 15.6146 5.82764C15.5718 5.85344 15.5166 5.86802 15.5026 5.94039C15.8715 5.86326 16.2206 5.93113 16.5712 6.03322C16.7607 6.08848 16.9427 5.9976 17.1235 5.92692C17.0198 6.16112 16.7121 6.3238 16.4075 6.30697C16.1832 6.29463 15.9612 6.29098 15.7489 6.38129C15.7106 6.39756 15.6678 6.40401 15.6289 6.46992C15.7063 6.46992 15.7698 6.46459 15.8318 6.47076C16.0404 6.49152 16.2435 6.53612 16.4361 6.62138C16.7935 6.77957 16.8458 6.78462 17.2678 6.70103C17.0167 6.94589 16.7438 7.04462 16.4138 6.9616C16.1986 6.90746 15.9832 6.89512 15.7658 6.94645C15.7332 6.95402 15.7046 6.96468 15.6821 6.99357C15.7538 7.03817 15.8378 7.03536 15.9146 7.05583C16.1326 7.11361 16.3346 7.20364 16.5158 7.33463C16.7272 7.48776 16.9598 7.53432 17.215 7.48524C17.1487 7.58229 17.0007 7.65745 16.8389 7.67652C16.6607 7.69756 16.4901 7.67709 16.3244 7.60276C16.1092 7.50656 15.8838 7.47571 15.6441 7.54582C15.7323 7.58116 15.8226 7.6123 15.9086 7.65296C16.0852 7.73655 16.2518 7.8378 16.3858 7.97916C16.5547 8.15698 16.7618 8.2414 17.0044 8.25542C17.023 8.25655 17.0415 8.26047 17.0598 8.26412C17.0638 8.26496 17.067 8.27001 17.0795 8.28151C16.8081 8.41137 16.5398 8.43353 16.2744 8.2902C16.0826 8.18643 15.8963 8.07508 15.6721 8.05292C15.6223 8.04815 15.5712 8.02347 15.5235 8.0647C15.5383 8.11379 15.5861 8.11883 15.6201 8.13875C15.8343 8.2644 16.0326 8.41025 16.1744 8.61443C16.3324 8.84162 16.5507 8.96194 16.8281 8.99952C16.6058 9.13555 16.2452 9.09012 16.0015 8.89575C15.8423 8.76897 15.6823 8.64556 15.4798 8.58975C15.4292 8.57573 15.38 8.56282 15.32 8.56731C15.3226 8.62481 15.374 8.64136 15.4058 8.66632C15.6029 8.81946 15.7626 9.00373 15.8726 9.22446C15.9835 9.44688 16.1552 9.59413 16.3915 9.67378C16.4121 9.6808 16.4295 9.69678 16.4581 9.71445C16.1055 9.76466 15.8203 9.67939 15.5986 9.40565C15.4543 9.22783 15.2726 9.09348 15.0446 9.02925C15.0323 9.03094 15.02 9.03234 15.0077 9.03402C15.0143 9.03963 15.0209 9.04496 15.0275 9.05057C15.2563 9.31057 15.4235 9.60282 15.5418 9.92761C15.6112 10.1175 15.7829 10.2302 15.9592 10.3284C15.6312 10.3447 15.3712 10.228 15.1998 9.94809C15.0903 9.76943 14.9603 9.61152 14.78 9.49821C14.7417 9.47409 14.7066 9.43734 14.6375 9.44997C14.854 9.73465 14.9623 10.0549 15.0257 10.3946C15.0549 10.5503 15.1609 10.6686 15.2758 10.7775C15.3075 10.8072 15.3623 10.819 15.3652 10.8748L15.368 10.8731ZM15.236 6.99665C15.236 5.33176 13.8577 3.96921 12.1722 3.96781C10.4676 3.96641 9.08213 5.30708 9.05356 6.93215C9.02384 8.63014 10.4367 10.0017 12.0788 10.0348C13.8106 10.0695 15.2566 8.668 15.236 6.99665Z" fill="#F4E500"/>
<path d="M16.0902 3.84019L16.0904 3.82812C16.0904 3.82812 16.0877 3.83725 16.0879 3.83754C16.0882 3.83754 16.0902 3.84019 16.0902 3.84019Z" fill="#F4E500"/>
<path d="M15.3652 10.877L15.3778 10.8775C15.3778 10.8775 15.3682 10.8748 15.3679 10.875C15.3676 10.875 15.3652 10.877 15.3652 10.877Z" fill="#F4E500"/>
<path d="M10.2715 2.35935C10.2745 2.35405 10.2775 2.34905 10.2805 2.34375C10.2778 2.34905 10.2748 2.35435 10.2721 2.35994L10.2715 2.35935Z" fill="#F4E500"/>
<path d="M8.9082 3.14496L8.91146 3.13672L8.91021 3.14702L8.9082 3.14496Z" fill="#F4E500"/>
<path d="M16.5398 4.47433C16.5429 4.47233 16.5459 4.47008 16.5492 4.46883C16.5504 4.46833 16.5531 4.47033 16.5552 4.47133C16.5492 4.47158 16.5432 4.47158 16.5371 4.47158C16.5368 4.47133 16.5398 4.47433 16.5398 4.47433Z" fill="#F4E500"/>
<path d="M7.41307 8.84256C7.40503 8.84059 7.39671 8.83835 7.38867 8.83639C7.4036 8.81394 7.40389 8.84452 7.41307 8.84284C7.41336 8.84284 7.41307 8.84256 7.41307 8.84256Z" fill="#F4E500"/>
<path d="M8.21476 10.185L8.20898 10.1797C8.20898 10.1797 8.21659 10.184 8.21689 10.184C8.2172 10.184 8.21476 10.185 8.21476 10.185Z" fill="#F4E500"/>
<path d="M14.0192 11.6486C14.0166 11.6573 14.014 11.666 14.0115 11.6746C13.9882 11.657 14.014 11.6561 14.0212 11.6486C14.0215 11.6483 14.0192 11.6486 14.0192 11.6486Z" fill="#F4E500"/>
<path d="M15.2357 6.99759C15.2563 8.66894 13.8102 10.0705 12.0784 10.0357C10.4364 10.0026 9.02348 8.63136 9.05319 6.93309C9.08177 5.30802 10.4672 3.96735 12.1719 3.96875C13.8574 3.97015 15.236 5.3327 15.2357 6.99759ZM12.0976 9.59984C12.5865 9.59367 13.0113 9.49466 13.4125 9.29692C13.4862 9.26046 13.5045 9.22484 13.4779 9.14631C13.2068 8.33938 12.7896 7.61548 12.2162 6.97824C12.1659 6.92243 12.1356 6.87783 12.0596 6.9631C11.4901 7.60314 11.0638 8.32171 10.793 9.12976C10.7618 9.22232 10.781 9.2613 10.8644 9.30253C11.2658 9.50055 11.6916 9.59535 12.0976 9.59984ZM9.49435 7.67831C9.51807 7.64801 9.52892 7.6382 9.53464 7.62586C9.84008 6.98077 10.2544 6.41252 10.7847 5.9273C10.8547 5.86308 10.8153 5.83952 10.7601 5.80754C10.4947 5.65356 10.2167 5.52482 9.93351 5.40506C9.86608 5.37645 9.83351 5.3944 9.79836 5.45134C9.37206 6.14579 9.26949 6.88176 9.49435 7.67831ZM14.7611 7.67859C14.8368 7.49908 14.8557 7.32379 14.8728 7.14933C14.9331 6.53509 14.7897 5.96769 14.4579 5.44461C14.4274 5.39637 14.3974 5.38402 14.3434 5.4059C14.0279 5.53296 13.7205 5.67516 13.4216 5.8642C13.7062 6.12616 13.9599 6.40187 14.1828 6.70366C14.4054 7.00573 14.5917 7.32883 14.7611 7.67859ZM13.4748 4.5555C12.7525 4.05149 11.421 4.08964 10.7981 4.55831C11.2318 4.65058 11.6501 4.78269 12.0499 4.96836C12.1004 4.99192 12.1464 5.00202 12.1979 4.97762C12.6036 4.78437 13.0313 4.65367 13.4748 4.5555ZM14.1442 8.72111C14.1379 8.70372 14.1351 8.69503 14.1319 8.68633C13.8119 7.84351 13.3319 7.10165 12.6779 6.46974C12.6607 6.45319 12.6367 6.42823 12.6182 6.44254C12.547 6.49639 12.4664 6.54687 12.417 6.61727C12.3713 6.68234 12.461 6.71936 12.4982 6.75863C13.0768 7.37287 13.5096 8.07321 13.8008 8.8591C13.8562 9.0086 13.8565 9.01028 13.9839 8.89977C14.0454 8.84592 14.1222 8.80245 14.1442 8.72111ZM11.8636 6.63522C11.809 6.56174 11.739 6.49751 11.6601 6.44814C11.5973 6.4086 11.5733 6.48545 11.5413 6.51686C10.9615 7.08426 10.5232 7.74422 10.2152 8.48804C10.1052 8.75365 10.1092 8.75168 10.325 8.93848C10.3904 8.99513 10.4147 8.99878 10.4475 8.91211C10.5187 8.72476 10.5947 8.5388 10.679 8.35677C10.9587 7.75291 11.3341 7.21132 11.7967 6.72778C11.8219 6.70169 11.8581 6.68234 11.8636 6.63522ZM9.86093 8.40698C9.88322 8.35649 9.90237 8.31526 9.92008 8.27347C10.0429 7.9801 10.1884 7.69794 10.3578 7.42784C10.6181 7.01246 10.9298 6.63803 11.283 6.29529C11.3101 6.26892 11.3796 6.25265 11.3373 6.18815C11.2464 6.04959 11.0987 6.02996 10.9821 6.14383C10.4901 6.62512 10.1001 7.17598 9.78036 7.78208C9.6575 8.01488 9.66293 8.19606 9.83208 8.38454C9.83551 8.38763 9.83951 8.39015 9.86093 8.40698ZM14.4094 8.42184C14.4714 8.32115 14.5211 8.23869 14.5725 8.15764C14.6057 8.10547 14.6022 8.05807 14.5771 8.00057C14.2574 7.27162 13.8088 6.63101 13.2196 6.08661C13.0879 5.96489 13.0325 6.12728 12.9553 6.1716C12.8545 6.22966 12.9648 6.27229 12.997 6.30342C13.4405 6.73255 13.8079 7.21608 14.0988 7.75656C14.2111 7.96579 14.3048 8.18344 14.4094 8.42184ZM11.8304 5.14141C11.465 4.96023 11.0881 4.83205 10.703 4.71958C10.5467 4.67386 10.4575 4.72267 10.363 4.83822C10.7107 4.93611 11.0475 5.03652 11.3541 5.20256C11.5333 5.2996 11.6767 5.30493 11.8304 5.14141ZM12.4333 5.14422C12.5805 5.2839 12.7125 5.31587 12.887 5.21378C13.0979 5.09037 13.3359 5.01744 13.5682 4.93779C13.6759 4.90077 13.7859 4.86992 13.9182 4.82925C13.8173 4.7639 13.7639 4.67527 13.6493 4.70387C13.2316 4.80821 12.8267 4.94564 12.4333 5.14422ZM14.2768 5.16301C14.1699 5.11337 14.1585 4.98407 14.0242 5.02642C13.6551 5.14338 13.2996 5.29035 12.9585 5.47462C12.9885 5.53857 13.0533 5.55652 13.0979 5.59662C13.1339 5.62916 13.167 5.66871 13.2316 5.63168C13.5508 5.44769 13.8891 5.30353 14.2768 5.16301ZM10.0212 5.17423C10.3767 5.30072 10.7178 5.45611 11.0478 5.63477C11.0827 5.65356 11.1107 5.65132 11.1361 5.62383C11.1864 5.5697 11.2673 5.5481 11.3041 5.47209C10.991 5.30409 10.6638 5.17479 10.3332 5.04914C10.1778 4.98996 10.0949 5.03624 10.0212 5.17423ZM12.3722 6.20385C12.1507 5.9834 12.1062 5.98059 11.9364 6.15281C11.8944 6.19544 11.9033 6.21199 11.9427 6.24761C12.1179 6.40495 12.1164 6.40635 12.3007 6.26107C12.323 6.24368 12.3447 6.22601 12.3722 6.20385ZM12.4059 5.8081C12.4759 5.86448 12.5359 5.91609 12.5996 5.96264C12.6416 5.9935 12.8819 5.87289 12.8825 5.82213C12.8827 5.81091 12.8713 5.79857 12.8636 5.78819C12.7665 5.65496 12.6625 5.63561 12.5259 5.72536C12.4873 5.7506 12.4502 5.77753 12.4059 5.8081ZM11.8624 5.80754C11.8101 5.77248 11.7647 5.74023 11.7179 5.71022C11.6064 5.63898 11.4733 5.66113 11.4027 5.78987C11.3493 5.8872 11.4861 5.87934 11.5258 5.93011C11.5824 6.00219 11.6487 5.99069 11.713 5.92562C11.7547 5.88299 11.807 5.85045 11.8624 5.80754ZM11.8821 5.44629C12.0942 5.62972 12.153 5.63505 12.333 5.49874C12.3516 5.48472 12.3773 5.4763 12.3736 5.44881C12.3676 5.40478 12.1284 5.29932 12.0859 5.32316C12.0176 5.36131 11.9519 5.40394 11.8821 5.44629Z" fill="#E52A21"/>
<path d="M14.6758 4.53029C14.6632 4.53702 14.6537 4.56283 14.6369 4.54403C14.6252 4.53113 14.6315 4.51178 14.6477 4.5C14.6572 4.5101 14.6666 4.52019 14.6758 4.53029Z" fill="#E52521"/>
<path d="M13.2467 10.3505C13.2441 10.3343 13.2336 10.3096 13.2407 10.3029C13.259 10.2855 13.2673 10.3104 13.2782 10.3208C13.2679 10.3309 13.2573 10.3407 13.2467 10.3505Z" fill="#E52521"/>
<path d="M10.5333 3.875C10.5342 3.8865 10.5348 3.898 10.5356 3.90922C10.5251 3.90641 10.5145 3.90389 10.5039 3.90136C10.5136 3.89267 10.5236 3.88398 10.5333 3.875Z" fill="#E52521"/>
<path d="M14.2315 4.1728C14.2261 4.17953 14.2206 4.18598 14.2152 4.19271C14.2143 4.18065 14.2138 4.16859 14.2129 4.15625C14.2192 4.1613 14.2255 4.16691 14.2315 4.1728Z" fill="#E52521"/>
<path d="M9.26557 4.94922C9.27014 4.95763 9.27471 4.96605 9.27928 4.97446C9.26757 4.9739 9.25586 4.97334 9.24414 4.97306C9.25128 4.96493 9.25843 4.95707 9.26557 4.94922Z" fill="#E52521"/>
<path d="M15.3312 5.42148C15.3192 5.42148 15.3072 5.42148 15.2949 5.42176C15.2981 5.41138 15.3012 5.401 15.3041 5.39062C15.3132 5.40072 15.3221 5.4111 15.3312 5.42148Z" fill="#E52521"/>
<path d="M15.0275 9.05257C15.021 9.04696 15.0144 9.04163 15.0078 9.03602C15.0201 9.03462 15.0324 9.03293 15.0447 9.03125C15.0392 9.03882 15.0335 9.04583 15.0275 9.05257Z" fill="#E52521"/>
<path d="M12.0976 9.59866C11.6916 9.59417 11.2658 9.49937 10.8647 9.30108C10.7812 9.25985 10.7624 9.22114 10.7932 9.12831C11.0641 8.32026 11.4904 7.60168 12.0599 6.96164C12.1356 6.87638 12.1661 6.92097 12.2164 6.97679C12.7899 7.61402 13.207 8.33793 13.4782 9.14486C13.5048 9.22367 13.4865 9.25929 13.4128 9.29547C13.0113 9.49348 12.5864 9.59249 12.0976 9.59866Z" fill="#F4E500"/>
<path d="M9.49486 7.67706C9.27 6.88079 9.37257 6.14455 9.79916 5.45037C9.8343 5.39316 9.86659 5.37549 9.93431 5.40409C10.2172 5.52386 10.4955 5.6526 10.7609 5.80658C10.8158 5.83855 10.8555 5.86211 10.7855 5.92634C10.2552 6.41156 9.84087 6.9798 9.53544 7.62489C9.52944 7.63667 9.51858 7.64649 9.49486 7.67706Z" fill="#F4E500"/>
<path d="M14.7616 7.67753C14.5922 7.32778 14.4059 7.00467 14.183 6.7026C13.9602 6.40053 13.7067 6.12482 13.4219 5.86314C13.7207 5.6741 14.0282 5.5319 14.3436 5.40484C14.3976 5.38325 14.4276 5.39531 14.4582 5.44355C14.7899 5.96691 14.9333 6.53431 14.8731 7.14827C14.8562 7.32245 14.8376 7.49802 14.7616 7.67753Z" fill="#F4E500"/>
<path d="M13.4755 4.55503C13.032 4.65319 12.6043 4.78389 12.1986 4.97714C12.1472 5.00154 12.1012 4.99144 12.0506 4.96788C11.6509 4.78193 11.2328 4.64983 10.7988 4.55783C11.4217 4.08888 12.7529 4.05101 13.4755 4.55503Z" fill="#F4E500"/>
<path d="M14.1448 8.72034C14.1228 8.80167 14.0459 8.84515 13.9839 8.899C13.8565 9.00922 13.8562 9.00754 13.8007 8.85833C13.5099 8.07272 13.0767 7.37209 12.4981 6.75785C12.461 6.71859 12.3713 6.68156 12.417 6.61649C12.4664 6.5461 12.547 6.49561 12.6181 6.44176C12.637 6.42745 12.6607 6.45242 12.6779 6.46896C13.3322 7.10059 13.8119 7.84273 14.1319 8.68556C14.1356 8.69425 14.1385 8.70295 14.1448 8.72034Z" fill="#F4E500"/>
<path d="M11.8636 6.6355C11.8581 6.68234 11.8219 6.70169 11.797 6.72806C11.3344 7.2116 10.959 7.75319 10.6793 8.35705C10.595 8.53908 10.519 8.72504 10.4478 8.91239C10.415 8.99878 10.3907 8.99541 10.3252 8.93876C10.1098 8.75196 10.1055 8.75392 10.2155 8.48832C10.5235 7.7445 10.9618 7.08482 11.5416 6.51714C11.5736 6.48601 11.5976 6.40916 11.6604 6.44842C11.739 6.49779 11.809 6.5623 11.8636 6.6355Z" fill="#F4E500"/>
<path d="M9.86058 8.40776C9.83915 8.39093 9.83487 8.38841 9.83173 8.38504C9.66258 8.19656 9.65715 8.01538 9.78001 7.78258C10.0997 7.17648 10.4897 6.62562 10.9818 6.14433C11.0983 6.03046 11.2461 6.05009 11.3369 6.18865C11.3789 6.25287 11.3095 6.26942 11.2826 6.29579C10.9298 6.63853 10.618 7.01296 10.3575 7.42834C10.188 7.69872 10.0426 7.9806 9.91973 8.27398C9.9023 8.31605 9.88316 8.35728 9.86058 8.40776Z" fill="#F4E500"/>
<path d="M14.4096 8.41886C14.305 8.18046 14.2116 7.96281 14.099 7.75357C13.8081 7.21338 13.4407 6.72956 12.9972 6.30043C12.9649 6.2693 12.8549 6.22667 12.9555 6.16861C13.0327 6.12402 13.0881 5.96162 13.2198 6.08363C13.8087 6.62803 14.2576 7.26863 14.5773 7.99759C14.6024 8.05509 14.6059 8.10249 14.5727 8.15465C14.5213 8.23599 14.4716 8.31817 14.4096 8.41886Z" fill="#F4E500"/>
<path d="M11.8308 5.14196C11.677 5.30548 11.5336 5.30015 11.3545 5.2031C11.0476 5.03706 10.711 4.93665 10.3633 4.83877C10.4579 4.72321 10.547 4.67441 10.7033 4.72012C11.0884 4.8326 11.4653 4.96077 11.8308 5.14196Z" fill="#F4E500"/>
<path d="M12.4336 5.14537C12.827 4.94679 13.2322 4.80936 13.6496 4.70474C13.7642 4.67613 13.8176 4.76476 13.9185 4.83012C13.7862 4.87078 13.6762 4.90164 13.5685 4.93866C13.3362 5.01831 13.0982 5.09124 12.8873 5.21465C12.7125 5.31702 12.5805 5.28505 12.4336 5.14537Z" fill="#F4E500"/>
<path d="M14.2773 5.1607C13.8896 5.3015 13.5513 5.44567 13.2321 5.62938C13.1678 5.6664 13.1344 5.62685 13.0984 5.59432C13.0538 5.55421 12.9887 5.53626 12.959 5.47231C13.3001 5.28832 13.6556 5.14135 14.0247 5.02411C14.159 4.98148 14.1705 5.11078 14.2773 5.1607Z" fill="#F4E500"/>
<path d="M10.0215 5.17352C10.0952 5.03553 10.1778 4.98953 10.3338 5.04871C10.6641 5.17408 10.9915 5.30338 11.3047 5.47167C11.2678 5.54796 11.1867 5.56927 11.1367 5.6234C11.1112 5.65089 11.0832 5.65313 11.0484 5.63434C10.7184 5.4554 10.3772 5.30002 10.0215 5.17352Z" fill="#F4E500"/>
<path d="M12.3734 6.2046C12.3459 6.22676 12.3242 6.24443 12.3022 6.26182C12.1179 6.40711 12.1194 6.4057 11.9442 6.24836C11.9048 6.21274 11.8956 6.19619 11.9379 6.15356C12.1076 5.98163 12.1519 5.98415 12.3734 6.2046Z" fill="#F4E500"/>
<path d="M12.4062 5.80966C12.4503 5.77909 12.4877 5.75216 12.5263 5.72692C12.6628 5.63717 12.7668 5.65652 12.864 5.78975C12.8717 5.80041 12.8831 5.81247 12.8828 5.82369C12.8823 5.87445 12.642 5.99506 12.6 5.9642C12.5363 5.91736 12.4763 5.86576 12.4062 5.80966Z" fill="#F4E500"/>
<path d="M11.8629 5.80925C11.8074 5.85216 11.7551 5.8847 11.7131 5.92733C11.6488 5.9924 11.5826 6.0039 11.526 5.93182C11.4863 5.88105 11.3494 5.88919 11.4028 5.79158C11.4734 5.66284 11.6066 5.64069 11.718 5.71193C11.7651 5.74194 11.8108 5.77419 11.8629 5.80925Z" fill="#F4E500"/>
<path d="M11.8828 5.4469C11.9525 5.40426 12.0182 5.36191 12.0865 5.32377C12.1291 5.29993 12.3683 5.40567 12.3743 5.44942C12.378 5.47719 12.3523 5.48532 12.3337 5.49935C12.1537 5.63594 12.0948 5.63033 11.8828 5.4469Z" fill="#F4E500"/>
</g>
<defs>
<clipPath id="clip0_2_15394">
<rect width="24" height="14" rx="2" fill="white"/>
</clipPath>
</defs>
</svg>
