<svg width="24" height="14" viewBox="0 0 24 14" fill="none" xmlns="http://www.w3.org/2000/svg">
<path d="M23.9978 9.23828C23.9978 10.7867 23.9967 12.3359 24 13.8843C24 13.9803 23.984 13.999 23.9017 13.999C15.9674 13.9965 8.03259 13.9965 0.0983154 13.999C0.0160177 13.999 0 13.9803 0 13.8843C0.003314 12.3359 0.00220933 10.7867 0.00220933 9.23828C0.04971 9.24086 0.0977631 9.24601 0.145264 9.24601C8.04805 9.24666 15.9514 9.24666 23.8542 9.24601C23.9022 9.24601 23.9497 9.24086 23.9978 9.23828Z" fill="#3DAB3E"/>
<path d="M23.997 9.24063C23.9495 9.2432 23.9014 9.24836 23.8539 9.24836C15.9511 9.249 8.0478 9.249 0.145008 9.24836C0.0975068 9.24836 0.0494538 9.2432 0.00195312 9.24063C0.00195312 7.74758 0.00195312 6.25517 0.00195312 4.76212C0.0494538 4.75954 0.0975068 4.75439 0.145008 4.75439C8.0478 4.75375 15.9511 4.75375 23.8539 4.75439C23.9014 4.75439 23.9495 4.75954 23.997 4.76212C23.997 6.25517 23.997 7.74758 23.997 9.24063Z" fill="white"/>
<path d="M0.00220933 4.48108C0.00220933 3.02605 0.003314 1.57102 0 0.116634C0 0.0244868 0.011599 0 0.0966584 0C8.03204 0.00322195 15.968 0.00322195 23.9033 0C23.9884 0 24 0.0244868 24 0.116634C23.9972 1.57167 23.9978 3.0267 23.9978 4.48108C23.9459 4.4843 23.8945 4.49075 23.8426 4.49075C15.9475 4.49139 8.05247 4.49139 0.157415 4.49075C0.105496 4.49075 0.0541287 4.4843 0.00220933 4.48108ZM8.97929 3.80705C8.97377 3.81865 8.97321 3.82703 8.98812 3.82574C8.98426 3.81994 8.98094 3.81414 8.97708 3.80898C8.92626 3.67237 8.95112 3.56412 9.08534 3.48615C8.93565 3.51837 8.85557 3.45973 8.84397 3.27479C8.76167 3.46939 8.76167 3.46939 8.55786 3.49903C8.72411 3.56734 8.74399 3.68268 8.67992 3.83927C8.77658 3.71104 8.8644 3.71297 8.95719 3.81092C8.96106 3.81414 8.97211 3.80834 8.97929 3.80705ZM7.82767 3.80705C7.82215 3.81865 7.8216 3.82703 7.83651 3.82574C7.83264 3.81994 7.82933 3.81414 7.82546 3.80898C7.77465 3.67237 7.7995 3.56412 7.93372 3.48615C7.78404 3.51837 7.70395 3.45973 7.69235 3.27479C7.61005 3.46939 7.61005 3.46939 7.40624 3.49903C7.57249 3.56734 7.59238 3.68268 7.52831 3.83927C7.62497 3.71104 7.71279 3.71297 7.80558 3.81092C7.80945 3.81414 7.82049 3.80834 7.82767 3.80705ZM6.67606 3.80705C6.67053 3.81865 6.66998 3.82703 6.68489 3.82574C6.68103 3.81994 6.67771 3.81414 6.67385 3.80898C6.62303 3.67237 6.64789 3.56412 6.7821 3.48615C6.63242 3.51837 6.55233 3.45973 6.54073 3.27479C6.45844 3.46939 6.45844 3.46939 6.25463 3.49903C6.42088 3.56734 6.44076 3.68268 6.37669 3.83927C6.47335 3.71104 6.56117 3.71297 6.65396 3.81092C6.65728 3.81414 6.66832 3.80834 6.67606 3.80705ZM5.52389 3.80705C5.51837 3.81865 5.51781 3.82703 5.53273 3.82574C5.52886 3.81994 5.52555 3.81414 5.52168 3.80898C5.47086 3.67237 5.49572 3.56412 5.62994 3.48615C5.48025 3.51837 5.40017 3.45973 5.37476 3.28123C5.35819 3.46939 5.26871 3.51192 5.12234 3.48872C5.26816 3.56734 5.28804 3.68268 5.22452 3.84378C5.32063 3.70395 5.409 3.71555 5.50124 3.81092C5.50566 3.81414 5.51671 3.80834 5.52389 3.80705ZM4.37227 3.80641C4.36675 3.81801 4.3662 3.82638 4.38111 3.82509C4.3778 3.8193 4.37393 3.8135 4.37062 3.8077C4.3198 3.67109 4.34466 3.56283 4.47887 3.48486C4.32864 3.51772 4.2491 3.45844 4.2237 3.27994C4.20713 3.4681 4.11765 3.51063 3.97183 3.48743C4.1182 3.56605 4.13753 3.6814 4.07401 3.84249C4.17012 3.70202 4.25849 3.7149 4.35073 3.80963C4.35405 3.81414 4.36509 3.8077 4.37227 3.80641ZM8.97929 2.4635C8.97377 2.4751 8.97321 2.48348 8.98812 2.48219C8.98426 2.47639 8.98094 2.47059 8.97708 2.46543C8.92626 2.32882 8.95112 2.22057 9.08534 2.14259C8.93565 2.17481 8.85557 2.11617 8.84397 1.93123C8.76167 2.12584 8.76167 2.12584 8.56946 2.16064C8.7451 2.21541 8.73074 2.34429 8.68103 2.50023C8.77603 2.3604 8.8644 2.37264 8.95664 2.46801C8.96106 2.47059 8.97211 2.46479 8.97929 2.4635ZM7.82767 2.4635C7.82215 2.4751 7.8216 2.48348 7.83651 2.48219C7.83264 2.47639 7.82933 2.47059 7.82546 2.46543C7.77465 2.32882 7.7995 2.22057 7.93372 2.14259C7.78404 2.17481 7.70395 2.11617 7.69235 1.93123C7.61005 2.12584 7.61005 2.12584 7.41784 2.16064C7.59348 2.21541 7.57912 2.34429 7.52941 2.50023C7.62441 2.3604 7.71279 2.37264 7.80503 2.46801C7.80944 2.47059 7.82049 2.46479 7.82767 2.4635ZM6.67606 2.4635C6.67053 2.4751 6.66998 2.48348 6.68489 2.48219C6.68103 2.47639 6.67771 2.47059 6.67385 2.46543C6.62303 2.32882 6.64789 2.22057 6.7821 2.14259C6.63242 2.17481 6.55233 2.11617 6.54073 1.93123C6.45844 2.12584 6.45844 2.12584 6.26622 2.16064C6.44187 2.21541 6.42751 2.34429 6.3778 2.50023C6.4728 2.3604 6.56117 2.37264 6.65341 2.46801C6.65728 2.47059 6.66832 2.46479 6.67606 2.4635ZM5.52389 2.4635C5.51837 2.4751 5.51781 2.48348 5.53273 2.48219C5.52886 2.47639 5.52555 2.47059 5.52168 2.46543C5.47086 2.32882 5.49572 2.22057 5.62994 2.14259C5.48025 2.17481 5.40017 2.11617 5.38857 1.93123C5.30627 2.12584 5.30627 2.12584 5.10246 2.15548C5.26871 2.22379 5.28859 2.33913 5.22508 2.50087C5.32118 2.36104 5.40956 2.37264 5.5018 2.46801C5.50566 2.47059 5.51671 2.46479 5.52389 2.4635ZM8.97929 1.11995C8.97377 1.13155 8.97321 1.13992 8.98812 1.13864C8.98426 1.13284 8.98094 1.12704 8.97708 1.12188C8.92626 0.985271 8.95112 0.877014 9.10798 0.806775C8.90914 0.785511 8.90914 0.78551 8.83126 0.617969C8.76222 0.781644 8.76222 0.781644 8.55841 0.811286C8.72466 0.879591 8.74455 0.994937 8.68048 1.15152C8.77713 1.02329 8.86495 1.02522 8.95775 1.12317C8.96106 1.12704 8.97211 1.12124 8.97929 1.11995ZM7.82767 1.11995C7.82215 1.13155 7.8216 1.13992 7.83651 1.13864C7.83264 1.13284 7.82933 1.12704 7.82546 1.12188C7.77465 0.985271 7.7995 0.877014 7.95637 0.806775C7.75753 0.785511 7.75753 0.78551 7.67965 0.617969C7.6106 0.781644 7.61061 0.781644 7.40679 0.811286C7.57305 0.879591 7.59293 0.994937 7.52886 1.15152C7.62552 1.02329 7.71334 1.02522 7.80613 1.12317C7.80945 1.12704 7.82049 1.12124 7.82767 1.11995ZM6.67606 1.11995C6.67053 1.13155 6.66998 1.13992 6.68489 1.13864C6.68103 1.13284 6.67771 1.12704 6.67385 1.12188C6.62303 0.985271 6.64789 0.877014 6.80475 0.806775C6.60591 0.785511 6.60591 0.78551 6.52803 0.617969C6.45899 0.781644 6.45899 0.781644 6.25518 0.811286C6.42143 0.879591 6.44131 0.994937 6.37724 1.15152C6.4739 1.02329 6.56172 1.02522 6.65452 1.12317C6.65728 1.12704 6.66832 1.12124 6.67606 1.11995ZM3.53604 0.592194C3.11019 0.493602 2.51754 0.721072 2.18061 1.28105C1.84977 1.83071 1.83872 2.58593 2.16128 3.16202C2.45788 3.69171 3.04722 4.01326 3.51837 3.89662C2.76664 3.60085 2.36233 3.01188 2.41038 2.07687C2.44629 1.36739 2.88208 0.810642 3.53604 0.592194Z" fill="#0099B5"/>
<path d="M0.00195312 4.48047C0.0538725 4.48369 0.10524 4.49013 0.157159 4.49013C8.05222 4.49078 15.9473 4.49078 23.8423 4.49013C23.8943 4.49013 23.9456 4.48369 23.9975 4.48047C23.9975 4.57391 23.9975 4.66734 23.9975 4.76013C23.95 4.75756 23.902 4.7524 23.8545 4.7524C15.9517 4.75176 8.04835 4.75176 0.14556 4.7524C0.0980592 4.7524 0.0500062 4.75756 0.00250546 4.76013C0.00195313 4.66734 0.00195312 4.57391 0.00195312 4.48047Z" fill="#3DAB3E"/>
<path d="M3.53659 0.592647C2.88262 0.811095 2.44683 1.36785 2.41038 2.07796C2.36233 3.01297 2.76663 3.60194 3.51836 3.89772C3.04722 4.01435 2.45788 3.6928 2.16128 3.16312C1.83871 2.58703 1.84976 1.83181 2.18061 1.28214C2.51753 0.721524 3.11074 0.494055 3.53659 0.592647Z" fill="white"/>
<path d="M6.67534 1.11917C6.6676 1.12046 6.65656 1.12625 6.65324 1.12239C6.56045 1.0238 6.47263 1.02186 6.37597 1.15074C6.44004 0.994155 6.42016 0.87881 6.25391 0.810504C6.45772 0.780862 6.45772 0.780862 6.52676 0.617188C6.60464 0.785373 6.60464 0.785373 6.80348 0.805994C6.64662 0.875588 6.62231 0.983845 6.67258 1.1211L6.67534 1.11917Z" fill="white"/>
<path d="M7.82768 1.11917C7.81995 1.12046 7.8089 1.12625 7.80559 1.12239C7.7128 1.0238 7.62497 1.02186 7.52832 1.15074C7.59239 0.994155 7.5725 0.87881 7.40625 0.810504C7.61006 0.780862 7.61006 0.780862 7.6791 0.617188C7.75698 0.785373 7.75698 0.785373 7.95582 0.805994C7.79896 0.875588 7.77466 0.983845 7.82492 1.1211L7.82768 1.11917Z" fill="white"/>
<path d="M8.98003 1.11917C8.97229 1.12046 8.96125 1.12625 8.95793 1.12239C8.86514 1.0238 8.77732 1.02186 8.68066 1.15074C8.74473 0.994155 8.72485 0.87881 8.55859 0.810504C8.76241 0.780862 8.76241 0.780862 8.83145 0.617188C8.90933 0.785373 8.90933 0.785373 9.10817 0.805994C8.9513 0.875588 8.927 0.983845 8.97726 1.1211L8.98003 1.11917Z" fill="white"/>
<path d="M5.52495 2.46324C5.51721 2.46453 5.50617 2.47033 5.50285 2.46646C5.41061 2.37109 5.32169 2.35949 5.22613 2.49933C5.28965 2.33823 5.26977 2.22288 5.10352 2.15393C5.30733 2.12429 5.30733 2.12429 5.38962 1.92969C5.40122 2.11463 5.48131 2.17391 5.63099 2.14105C5.49678 2.21902 5.47192 2.32728 5.52274 2.46389L5.52495 2.46324Z" fill="white"/>
<path d="M6.67686 2.46324C6.66913 2.46453 6.65808 2.47033 6.65476 2.46646C6.56252 2.37109 6.4736 2.35949 6.37915 2.49868C6.42831 2.34274 6.44322 2.21386 6.26758 2.15909C6.45979 2.12429 6.45979 2.12429 6.54209 1.92969C6.55369 2.11463 6.63378 2.17391 6.78346 2.14105C6.64924 2.21902 6.62439 2.32728 6.6752 2.46389L6.67686 2.46324Z" fill="white"/>
<path d="M7.82725 2.46324C7.81951 2.46453 7.80847 2.47033 7.80515 2.46646C7.71292 2.37109 7.62399 2.35949 7.52954 2.49868C7.5787 2.34274 7.59361 2.21386 7.41797 2.15909C7.61018 2.12429 7.61018 2.12429 7.69248 1.92969C7.70408 2.11463 7.78417 2.17391 7.93385 2.14105C7.79963 2.21902 7.77478 2.32728 7.82559 2.46389C7.82504 2.46453 7.82725 2.46324 7.82725 2.46324Z" fill="white"/>
<path d="M8.97959 2.46324C8.97186 2.46453 8.96081 2.47033 8.9575 2.46646C8.86526 2.37109 8.77633 2.35949 8.68188 2.49868C8.73104 2.34274 8.74595 2.21386 8.57031 2.15909C8.76252 2.12429 8.76252 2.12429 8.84482 1.92969C8.85642 2.11463 8.93651 2.17391 9.08619 2.14105C8.95197 2.21902 8.92712 2.32728 8.97794 2.46389C8.97738 2.46453 8.97959 2.46324 8.97959 2.46324Z" fill="white"/>
<path d="M4.37365 3.80707C4.36592 3.80836 4.35487 3.81416 4.35156 3.81094C4.25932 3.71621 4.17039 3.70332 4.07484 3.8438C4.13836 3.6827 4.11847 3.56671 3.97266 3.48874C4.11847 3.51194 4.2085 3.46941 4.22452 3.28125C4.24993 3.4591 4.32946 3.51839 4.4797 3.48617C4.34548 3.56414 4.32063 3.67239 4.37144 3.809L4.37365 3.80707Z" fill="white"/>
<path d="M5.52404 3.80772C5.51631 3.80901 5.50526 3.8148 5.50195 3.81094C5.40971 3.71557 5.32078 3.70397 5.22523 3.8438C5.28875 3.6827 5.26886 3.56736 5.12305 3.48874C5.26886 3.51194 5.35834 3.46941 5.37546 3.28125C5.40087 3.45975 5.48041 3.51839 5.63064 3.48617C5.49642 3.56414 5.47157 3.67239 5.52238 3.80901L5.52404 3.80772Z" fill="white"/>
<path d="M6.67534 3.80635C6.6676 3.80764 6.65656 3.81344 6.65324 3.80957C6.56045 3.71098 6.47263 3.70905 6.37597 3.83792C6.44004 3.68134 6.42016 3.56599 6.25391 3.49769C6.45772 3.46804 6.45772 3.46804 6.54001 3.27344C6.55161 3.45838 6.6317 3.51766 6.78138 3.4848C6.64717 3.56277 6.62231 3.67103 6.67313 3.80764L6.67534 3.80635Z" fill="white"/>
<path d="M7.82768 3.80635C7.81995 3.80764 7.8089 3.81344 7.80559 3.80957C7.7128 3.71098 7.62497 3.70905 7.52832 3.83792C7.59239 3.68134 7.5725 3.56599 7.40625 3.49769C7.61006 3.46804 7.61006 3.46804 7.69236 3.27344C7.70396 3.45838 7.78405 3.51766 7.93373 3.4848C7.79951 3.56277 7.77466 3.67103 7.82547 3.80764L7.82768 3.80635Z" fill="white"/>
<path d="M8.98003 3.80635C8.97229 3.80764 8.96125 3.81344 8.95793 3.80957C8.86514 3.71098 8.77732 3.70905 8.68066 3.83792C8.74473 3.68134 8.72485 3.56599 8.55859 3.49769C8.76241 3.46804 8.76241 3.46804 8.8447 3.27344C8.8563 3.45838 8.93639 3.51766 9.08607 3.4848C8.95186 3.56277 8.927 3.67103 8.97782 3.80764L8.98003 3.80635Z" fill="white"/>
<path d="M6.67324 1.12303C6.6771 1.12883 6.68042 1.13463 6.68428 1.13978C6.66937 1.14107 6.66992 1.13334 6.67545 1.12109C6.67545 1.12174 6.67324 1.12303 6.67324 1.12303Z" fill="white"/>
<path d="M7.82558 1.12303C7.82945 1.12883 7.83276 1.13463 7.83663 1.13978C7.82171 1.14107 7.82227 1.13334 7.82779 1.12109C7.82779 1.12174 7.82558 1.12303 7.82558 1.12303Z" fill="white"/>
<path d="M8.97792 1.12303C8.98179 1.12883 8.98511 1.13463 8.98897 1.13978C8.97406 1.14107 8.97461 1.13334 8.98013 1.12109C8.98013 1.12174 8.97792 1.12303 8.97792 1.12303Z" fill="white"/>
<path d="M5.52285 2.46287C5.52671 2.46867 5.53003 2.47447 5.53389 2.47962C5.51898 2.48091 5.51953 2.47318 5.52506 2.46094C5.52506 2.46158 5.52285 2.46287 5.52285 2.46287Z" fill="white"/>
<path d="M6.67324 2.46287C6.6771 2.46867 6.68042 2.47447 6.68428 2.47962C6.66937 2.48091 6.66992 2.47318 6.67545 2.46094C6.67545 2.46158 6.67324 2.46287 6.67324 2.46287Z" fill="white"/>
<path d="M7.82558 2.46287C7.82945 2.46867 7.83276 2.47447 7.83663 2.47962C7.82171 2.48091 7.82227 2.47318 7.82779 2.46094C7.82779 2.46158 7.82558 2.46287 7.82558 2.46287Z" fill="white"/>
<path d="M8.97792 2.46287C8.98179 2.46867 8.98511 2.47447 8.98897 2.47962C8.97406 2.48091 8.97461 2.47318 8.98013 2.46094C8.98013 2.46158 8.97792 2.46287 8.97792 2.46287Z" fill="white"/>
<path d="M4.37105 3.81001C4.37437 3.81581 4.37824 3.82161 4.38155 3.82741C4.36664 3.8287 4.36719 3.82032 4.37271 3.80873C4.37326 3.80808 4.37105 3.81001 4.37105 3.81001Z" fill="white"/>
<path d="M5.52285 3.80662C5.52671 3.81242 5.53003 3.81822 5.53389 3.82337C5.51898 3.82466 5.51953 3.81693 5.52506 3.80469L5.52285 3.80662Z" fill="white"/>
<path d="M6.67324 3.80662C6.6771 3.81242 6.68042 3.81822 6.68428 3.82337C6.66937 3.82466 6.66992 3.81693 6.67545 3.80469L6.67324 3.80662Z" fill="white"/>
<path d="M7.82558 3.80662C7.82945 3.81242 7.83276 3.81822 7.83663 3.82337C7.82171 3.82466 7.82227 3.81693 7.82779 3.80469L7.82558 3.80662Z" fill="white"/>
<path d="M8.97792 3.80662C8.98179 3.81242 8.98511 3.81822 8.98897 3.82337C8.97406 3.82466 8.97461 3.81693 8.98013 3.80469L8.97792 3.80662Z" fill="white"/>
</svg>
