<svg width="12" height="8" viewBox="0 0 12 8" fill="none" xmlns="http://www.w3.org/2000/svg">
<path d="M0.666016 0.666667C0.666016 0.298477 0.964492 0 1.33268 0H10.666C11.0342 0 11.3327 0.298477 11.3327 0.666667C11.3327 1.03486 11.0342 1.33333 10.666 1.33333H1.33268C0.964492 1.33333 0.666016 1.03486 0.666016 0.666667ZM0.666016 4C0.666016 3.63181 0.964492 3.33333 1.33268 3.33333H10.666C11.0342 3.33333 11.3327 3.63181 11.3327 4C11.3327 4.36819 11.0342 4.66667 10.666 4.66667H1.33268C0.964492 4.66667 0.666016 4.36819 0.666016 4ZM0.666016 7.33333C0.666016 6.96514 0.964492 6.66667 1.33268 6.66667H10.666C11.0342 6.66667 11.3327 6.96514 11.3327 7.33333C11.3327 7.70152 11.0342 8 10.666 8H1.33268C0.964492 8 0.666016 7.70152 0.666016 7.33333Z" fill="url(#paint0_linear_770_67311)"/>
<defs>
<linearGradient id="paint0_linear_770_67311" x1="11.3327" y1="4" x2="0.666016" y2="4" gradientUnits="userSpaceOnUse">
<stop stop-color="#222222"/>
<stop offset="1" stop-color="#414141"/>
</linearGradient>
</defs>
</svg>
