<svg width="198" height="48" viewBox="0 0 198 48" fill="none" xmlns="http://www.w3.org/2000/svg">
<path d="M183.929 0.90625H14.0725C6.80744 0.90625 0.917969 6.73827 0.917969 13.9324V34.0638C0.917969 41.258 6.80744 47.09 14.0725 47.09H183.929C191.194 47.09 197.084 41.258 197.084 34.0638V13.9324C197.084 6.73827 191.194 0.90625 183.929 0.90625Z" fill="white"/>
<path fill-rule="evenodd" clip-rule="evenodd" d="M14.0708 1.68735C7.22931 1.68735 1.69577 7.1774 1.69577 13.9343V34.0657C1.69577 40.8226 7.22931 46.3127 14.0708 46.3127H183.928C190.769 46.3127 196.303 40.8226 196.303 34.0657V13.9343C196.303 7.1774 190.769 1.68735 183.928 1.68735H14.0708ZM0.136719 13.9343C0.136719 6.3029 6.38213 0.128906 14.0708 0.128906H183.928C191.616 0.128906 197.862 6.3029 197.862 13.9343V34.0657C197.862 41.6971 191.616 47.8711 183.928 47.8711H14.0708C6.38213 47.8711 0.136719 41.6971 0.136719 34.0657V13.9343Z" fill="#FF6600"/>
<path d="M184.166 35.4374H187.236L187.049 36.2838H186.825C186.701 36.2776 186.577 36.2949 186.459 36.3346C186.389 36.3668 186.33 36.4186 186.29 36.4835C186.23 36.6169 186.188 36.7573 186.165 36.9013L185.387 40.3158C185.366 40.3885 185.35 40.4625 185.34 40.5374C185.339 40.5725 185.35 40.6068 185.369 40.636C185.389 40.6651 185.417 40.6877 185.45 40.7009C185.569 40.7366 185.693 40.7501 185.817 40.7408H186.084L185.883 41.5908H182.842L183.043 40.7408H183.271C183.395 40.7475 183.519 40.7328 183.638 40.6972C183.705 40.6697 183.762 40.6229 183.803 40.5628C183.864 40.4364 183.906 40.3018 183.927 40.1633L184.694 36.8032C184.717 36.7187 184.731 36.6324 184.738 36.5453C184.741 36.5076 184.734 36.4697 184.718 36.4354C184.702 36.401 184.677 36.3714 184.646 36.3491C184.531 36.2993 184.405 36.2781 184.28 36.2874H184.012L184.166 35.4374ZM178.297 35.2376H178.858L178.891 35.4337H182.24L182.313 35.234H182.875L183.293 37.457L182.394 37.6278L182.357 37.497C182.269 37.1337 182.207 36.9231 182.174 36.8432C182.112 36.6803 182.011 36.5346 181.881 36.4182C181.792 36.3246 181.672 36.2664 181.543 36.2547C181.52 36.2535 181.496 36.2582 181.475 36.2683C181.454 36.2785 181.436 36.2938 181.422 36.3128C181.378 36.3986 181.355 36.4929 181.352 36.5889L180.523 40.1742C180.483 40.3848 180.465 40.4975 180.465 40.5193C180.463 40.5563 180.473 40.593 180.493 40.6247C180.512 40.6563 180.541 40.6816 180.575 40.6972C180.668 40.7313 180.769 40.745 180.868 40.7372H181.154L180.956 41.5872H177.952L178.154 40.7372H178.487C178.553 40.7439 178.619 40.7377 178.682 40.719C178.745 40.7003 178.803 40.6694 178.854 40.6282C178.956 40.4929 179.022 40.3342 179.045 40.1669L179.856 36.6071C179.875 36.5333 179.886 36.4578 179.889 36.3818C179.89 36.3637 179.886 36.3457 179.878 36.3293C179.871 36.3128 179.859 36.2985 179.845 36.2874C179.803 36.2578 179.752 36.2448 179.702 36.251C179.561 36.2499 179.421 36.281 179.294 36.3419C179.062 36.4618 178.851 36.6189 178.671 36.8068C178.412 37.0925 178.178 37.3986 177.97 37.7222L177.046 37.3226L178.297 35.2376ZM170.593 36.2801L170.784 35.4301H175.802L176.4 37.2791L175.516 37.5442C175.462 37.3668 175.381 37.1988 175.274 37.0466C175.162 36.8877 175.018 36.753 174.852 36.6506C174.683 36.5511 174.496 36.4834 174.302 36.4508C174.097 36.4154 173.89 36.3996 173.682 36.4036H172.794L172.427 37.9765H172.629C172.809 37.9827 172.989 37.9668 173.165 37.9293C173.274 37.9044 173.374 37.8504 173.454 37.7731C173.539 37.6798 173.601 37.5695 173.638 37.4498C173.679 37.3319 173.709 37.2102 173.726 37.0865H174.559L173.964 39.6983H173.161C173.207 39.5393 173.238 39.3763 173.253 39.2116C173.255 39.148 173.24 39.085 173.21 39.0289C173.179 38.9728 173.135 38.9256 173.08 38.8919C172.906 38.8229 172.717 38.7956 172.53 38.812H172.27L171.939 40.265L171.899 40.4103C171.886 40.4477 171.879 40.4869 171.877 40.5265C171.877 40.5506 171.885 40.5741 171.9 40.5927C171.916 40.6113 171.938 40.6239 171.961 40.6282C172.06 40.6355 172.16 40.6355 172.259 40.6282H172.772C173.129 40.6393 173.485 40.5977 173.829 40.5047C174.174 40.3992 174.489 40.2122 174.746 39.9599C175.01 39.6965 175.217 39.3826 175.355 39.0372L176.22 39.375L175.024 41.5872H169.372L169.573 40.7372H169.794C169.95 40.7527 170.108 40.7156 170.241 40.6319C170.355 40.4922 170.426 40.3234 170.446 40.1451L171.202 36.8323C171.226 36.7331 171.242 36.6323 171.25 36.5308C171.252 36.4805 171.238 36.4307 171.209 36.3891C171.187 36.351 171.152 36.3216 171.11 36.3055C171.036 36.2834 170.957 36.2748 170.879 36.2801H170.593ZM163.348 35.4265H166.393L166.195 36.2765H165.953C165.835 36.2684 165.716 36.2845 165.604 36.3237C165.537 36.36 165.481 36.4141 165.443 36.4799C165.384 36.594 165.343 36.7166 165.322 36.8432L165.039 38.0782L166.833 36.7596C167.009 36.6107 167.094 36.5017 167.094 36.4218C167.096 36.3944 167.089 36.3669 167.075 36.3435C167.06 36.32 167.039 36.3016 167.013 36.291C166.929 36.2634 166.841 36.2523 166.752 36.2583L166.958 35.4083H169.893L169.687 36.2583C169.512 36.2524 169.337 36.2757 169.17 36.3273C168.977 36.4094 168.794 36.5117 168.623 36.6325L166.789 37.9583L168.157 40.196C168.243 40.3648 168.369 40.5106 168.524 40.621C168.699 40.6932 168.889 40.7255 169.078 40.7154L168.891 41.5618H165.795L165.989 40.7118H166.191C166.301 40.7214 166.411 40.7026 166.51 40.6573C166.536 40.6391 166.556 40.615 166.569 40.5871C166.583 40.5592 166.589 40.5283 166.587 40.4975C166.572 40.3882 166.535 40.2832 166.477 40.1887L165.615 38.7793L164.75 39.346L164.544 40.2614C164.52 40.3443 164.505 40.4295 164.5 40.5156C164.499 40.5471 164.508 40.5781 164.525 40.6047C164.542 40.6313 164.566 40.6521 164.596 40.6646C164.731 40.7049 164.873 40.7209 165.014 40.7118H165.234L165.028 41.5618H161.976L162.167 40.7118H162.409C162.533 40.7199 162.658 40.7051 162.776 40.6682C162.841 40.642 162.897 40.5978 162.937 40.541C162.996 40.4328 163.038 40.3165 163.062 40.196L163.847 36.7305C163.867 36.6545 163.88 36.5766 163.884 36.4981C163.886 36.4614 163.879 36.4248 163.863 36.3918C163.847 36.3587 163.823 36.3303 163.792 36.3092C163.677 36.2602 163.55 36.2414 163.425 36.2547H163.143L163.348 35.4265ZM158.051 38.0274H158.785C159.075 38.0416 159.365 38.0059 159.643 37.922C159.82 37.8592 159.972 37.7437 160.08 37.5914C160.184 37.4419 160.239 37.2644 160.238 37.0829C160.247 36.9758 160.224 36.8684 160.171 36.7741C160.119 36.6798 160.04 36.6027 159.944 36.5526C159.647 36.4344 159.328 36.3835 159.009 36.4036H158.433L158.051 38.0274ZM156.342 35.4265H159.328C159.838 35.4041 160.348 35.463 160.839 35.6008C161.13 35.7002 161.385 35.8821 161.573 36.1239C161.746 36.355 161.837 36.6357 161.833 36.9231C161.833 37.385 161.65 37.8283 161.323 38.1581C160.932 38.5393 160.426 38.784 159.882 38.8556L160.766 40.2722C160.847 40.4254 160.963 40.5583 161.103 40.6609C161.294 40.7229 161.494 40.7476 161.694 40.7336L161.503 41.5799H159.816L158.348 38.9318H157.828L157.505 40.3267C157.487 40.3906 157.477 40.4565 157.475 40.5229C157.474 40.5595 157.485 40.5955 157.505 40.6261C157.525 40.6566 157.555 40.6802 157.589 40.6936C157.699 40.7249 157.813 40.7372 157.927 40.7299H158.191L158.004 41.5799H154.952L155.139 40.7299H155.351C155.518 40.7461 155.686 40.7146 155.836 40.6391C155.938 40.5425 156.006 40.4147 156.026 40.2759L156.815 36.8068C156.839 36.7216 156.853 36.6338 156.855 36.5453C156.857 36.4934 156.842 36.4423 156.811 36.4C156.799 36.3784 156.782 36.3595 156.762 36.3445C156.742 36.3295 156.719 36.3187 156.694 36.3128C156.6 36.2959 156.504 36.2898 156.408 36.2946H156.122L156.342 35.4265ZM152.406 38.7321L152.156 36.8649L151.096 38.7284L152.406 38.7321ZM151.951 35.4228H153.352L154.159 40.2177C154.172 40.3429 154.204 40.4654 154.255 40.581C154.284 40.6319 154.331 40.6706 154.387 40.69C154.506 40.7237 154.63 40.7372 154.753 40.7299L154.541 41.5799H151.558L151.756 40.7299H152.046C152.184 40.7384 152.322 40.7212 152.453 40.6791C152.507 40.6569 152.552 40.6195 152.584 40.5716C152.616 40.5238 152.633 40.4677 152.633 40.4103C152.627 40.2887 152.615 40.1674 152.597 40.047L152.527 39.5566H150.601L150.186 40.265C150.125 40.3573 150.082 40.4611 150.062 40.5701C150.062 40.6008 150.073 40.6305 150.091 40.6552C150.109 40.6799 150.135 40.6984 150.164 40.7082C150.284 40.7403 150.408 40.7514 150.531 40.7408H150.784L150.59 41.5908H147.919L148.129 40.7408C148.252 40.7476 148.376 40.7353 148.495 40.7045C148.574 40.6759 148.646 40.6327 148.708 40.5774C148.816 40.4531 148.914 40.3207 149.002 40.1814L151.951 35.4228ZM141.526 35.4228H144.024L144.082 38.921L146.016 35.4228H148.95L148.763 36.2692H148.528C148.423 36.2643 148.318 36.2753 148.217 36.3019C148.154 36.3221 148.098 36.3585 148.055 36.4072C147.999 36.4673 147.956 36.5377 147.927 36.6143C147.927 36.6361 147.901 36.716 147.875 36.8541L147.116 40.2977C147.095 40.3727 147.081 40.4492 147.072 40.5265C147.072 40.5551 147.079 40.5831 147.093 40.608C147.108 40.6329 147.128 40.6536 147.153 40.6682C147.225 40.7131 147.31 40.7335 147.395 40.7263H147.718L147.516 41.5763H144.633L144.823 40.7263H145.014C145.181 40.7425 145.349 40.7069 145.495 40.6246C145.612 40.512 145.688 40.3636 145.711 40.2032L146.599 36.3092L143.928 41.5763H143.217L143.107 36.1893L142.171 40.2977C142.148 40.3672 142.133 40.4391 142.127 40.512C142.126 40.5434 142.132 40.5746 142.146 40.603C142.159 40.6315 142.179 40.6563 142.204 40.6754C142.268 40.7147 142.342 40.7337 142.417 40.7299H142.784L142.582 41.5799H140.11L140.308 40.7299H140.48C140.614 40.7369 140.748 40.7222 140.876 40.6864C140.948 40.6577 141.011 40.6115 141.06 40.552C141.125 40.4397 141.168 40.3166 141.188 40.1887L141.973 36.7487C141.992 36.6712 142.004 36.5922 142.01 36.5126C142.012 36.4477 141.99 36.3842 141.947 36.3346C141.914 36.3057 141.875 36.284 141.833 36.2708C141.79 36.2577 141.746 36.2534 141.702 36.2583H141.372L141.526 35.4228ZM136.144 38.0201H136.878C137.168 38.0351 137.458 38.0007 137.736 37.9184C137.914 37.8551 138.066 37.7381 138.173 37.5842C138.279 37.4356 138.334 37.2575 138.331 37.0756C138.34 36.9684 138.318 36.8606 138.266 36.7661C138.213 36.6716 138.134 36.5947 138.037 36.5453C137.741 36.4265 137.421 36.3756 137.102 36.3964H136.529L136.144 38.0201ZM134.431 35.4192H137.417C137.927 35.3969 138.437 35.4557 138.928 35.5936C139.22 35.692 139.475 35.874 139.662 36.1166C139.838 36.3463 139.929 36.6279 139.923 36.9158C139.924 37.3781 139.741 37.8222 139.413 38.1509C139.021 38.532 138.515 38.7768 137.971 38.8483L138.855 40.265C138.936 40.4193 139.053 40.5524 139.196 40.6537C139.386 40.716 139.587 40.7407 139.787 40.7263L139.592 41.5763H137.945L136.478 38.9282H135.957L135.634 40.3231C135.616 40.387 135.607 40.4529 135.605 40.5193C135.604 40.5564 135.614 40.593 135.635 40.6237C135.657 40.6544 135.687 40.6776 135.722 40.69C135.831 40.7213 135.944 40.7336 136.056 40.7263H136.324L136.133 41.5763H133.081L133.272 40.7263H133.485C133.65 40.743 133.817 40.7115 133.965 40.6355C134.071 40.5413 134.139 40.4122 134.156 40.2722L134.948 36.8032C134.97 36.7175 134.982 36.6299 134.985 36.5416C134.987 36.4902 134.973 36.4393 134.945 36.3964C134.917 36.3544 134.876 36.3235 134.827 36.3092C134.732 36.2987 134.636 36.2987 134.541 36.3092H134.255L134.431 35.4192ZM127.505 36.2656L127.696 35.4156H132.7L133.298 37.2645L132.414 37.5333C132.36 37.3556 132.279 37.1876 132.171 37.0357C132.06 36.8749 131.917 36.7387 131.75 36.6361C131.58 36.5366 131.394 36.4689 131.199 36.4363C130.995 36.4025 130.787 36.3879 130.579 36.3927H129.699L129.332 37.9656H129.534C129.714 37.971 129.894 37.9539 130.07 37.9147C130.178 37.8896 130.278 37.837 130.359 37.7622C130.442 37.6678 130.504 37.5578 130.543 37.4389C130.583 37.3207 130.613 37.1991 130.631 37.0756H131.463L130.869 39.6874H130.037C130.083 39.5285 130.114 39.3655 130.128 39.2006C130.13 39.1371 130.115 39.0741 130.085 39.018C130.055 38.9619 130.01 38.9147 129.956 38.881C129.781 38.8138 129.593 38.7865 129.406 38.8011H129.145L128.815 40.2541L128.775 40.3958C128.762 40.4333 128.754 40.4724 128.753 40.512C128.752 40.5361 128.76 40.5596 128.776 40.5782C128.791 40.5968 128.813 40.6094 128.837 40.6137C128.936 40.6199 129.035 40.6199 129.134 40.6137H129.648C130.004 40.623 130.36 40.5814 130.704 40.4902C131.05 40.3833 131.365 40.1951 131.621 39.9417C131.885 39.6791 132.092 39.3665 132.23 39.0227L133.096 39.3568L131.9 41.5727H126.284L126.486 40.7227H126.706C126.863 40.7399 127.021 40.7027 127.153 40.6173C127.268 40.4786 127.34 40.3093 127.359 40.1306L128.114 36.8214C128.138 36.7209 128.154 36.619 128.162 36.5162C128.165 36.467 128.151 36.4182 128.122 36.3782C128.098 36.34 128.064 36.3097 128.023 36.291C127.947 36.2725 127.869 36.2652 127.792 36.2692L127.505 36.2656ZM123.213 38.1618H123.54C123.787 38.1732 124.034 38.1487 124.274 38.0891C124.479 38.0229 124.66 37.8962 124.791 37.7258C124.926 37.5574 125 37.3488 125 37.1337C125.006 36.9892 124.965 36.8465 124.883 36.7269C124.803 36.6132 124.69 36.5259 124.56 36.4763C124.343 36.4152 124.117 36.3895 123.892 36.4H123.639L123.213 38.1618ZM121.53 35.4119H124.274C124.736 35.392 125.199 35.4561 125.638 35.6008C125.923 35.7122 126.169 35.9011 126.35 36.1457C126.52 36.3954 126.607 36.6912 126.599 36.9921C126.601 37.223 126.558 37.4522 126.475 37.6677C126.39 37.8913 126.266 38.0979 126.108 38.278C125.946 38.4664 125.754 38.6272 125.539 38.7539C125.32 38.8803 125.08 38.9699 124.831 39.019C124.461 39.096 124.083 39.135 123.705 39.1353H122.997L122.74 40.2614C122.716 40.3452 122.702 40.4319 122.7 40.5193C122.699 40.5489 122.706 40.5784 122.72 40.6046C122.734 40.6307 122.755 40.6527 122.781 40.6682C122.879 40.7103 122.986 40.7278 123.092 40.719H123.43L123.221 41.5654H120.161L120.356 40.7154H120.591C120.748 40.7313 120.907 40.6983 121.046 40.621C121.151 40.5185 121.219 40.3844 121.24 40.2396L122.036 36.7342C122.054 36.6591 122.065 36.5825 122.069 36.5053C122.072 36.4555 122.059 36.406 122.032 36.3637C122.005 36.3233 121.963 36.2947 121.915 36.2838C121.828 36.2641 121.739 36.2567 121.651 36.262H121.339L121.53 35.4119ZM117.495 34.7218C117.769 34.3006 118.082 33.9054 118.43 33.5412C118.573 33.3974 118.766 33.3129 118.969 33.3051C119.126 33.2994 119.279 33.3555 119.395 33.4613C119.447 33.5116 119.489 33.5721 119.516 33.639C119.544 33.7059 119.558 33.7777 119.556 33.85C119.552 33.9819 119.506 34.1091 119.424 34.2132C119.284 34.3649 119.116 34.4882 118.929 34.5765L117.869 35.0995L117.495 34.7218ZM115.092 35.4083H118.005L117.817 36.2583H117.513C117.417 36.2505 117.32 36.2641 117.23 36.2983C117.196 36.3198 117.167 36.3498 117.148 36.3855C117.129 36.4212 117.119 36.4612 117.12 36.5017C117.125 36.5794 117.144 36.6556 117.175 36.7269L117.704 38.1799L118.694 36.8432C118.754 36.7623 118.808 36.6774 118.856 36.5889C118.875 36.5506 118.887 36.5084 118.889 36.4654C118.889 36.4366 118.883 36.4082 118.869 36.3827C118.856 36.3572 118.836 36.3357 118.812 36.3201C118.711 36.2736 118.599 36.2548 118.489 36.2656H118.287L118.489 35.4192H121.082L120.891 36.2692C120.768 36.2635 120.645 36.2745 120.525 36.3019C120.445 36.3312 120.369 36.3715 120.301 36.4218C120.202 36.5055 120.112 36.5993 120.033 36.7015L118.082 39.1135L117.828 40.2396C117.808 40.3159 117.793 40.3936 117.784 40.472C117.782 40.5132 117.791 40.5541 117.811 40.5905C117.83 40.627 117.859 40.6576 117.894 40.6791C117.996 40.7168 118.105 40.7317 118.214 40.7227H118.503L118.302 41.5727H115.305L115.499 40.7263H115.679C115.812 40.7321 115.946 40.7187 116.075 40.6864C116.144 40.6613 116.204 40.6187 116.251 40.5628C116.31 40.4647 116.348 40.3561 116.365 40.2432L116.614 39.128L115.627 36.7959C115.577 36.669 115.515 36.5473 115.44 36.4327C115.39 36.3756 115.325 36.3319 115.253 36.3055C115.144 36.272 115.03 36.2572 114.916 36.262L115.092 35.4083ZM113.669 35.4083L113.841 37.5406L112.935 37.675C112.791 37.2651 112.523 36.9088 112.168 36.6543C111.827 36.4 111.411 36.2635 110.983 36.2656C110.791 36.2599 110.599 36.2907 110.418 36.3564C110.281 36.4016 110.159 36.4863 110.07 36.5998C109.998 36.6887 109.957 36.7983 109.953 36.9122C109.956 36.9879 109.976 37.0619 110.012 37.129C110.047 37.1962 110.097 37.2548 110.158 37.3009C110.41 37.4794 110.698 37.6032 111.002 37.6641C111.544 37.802 112.072 37.9855 112.583 38.2126C112.882 38.3491 113.143 38.5561 113.342 38.8156C113.519 39.065 113.611 39.3644 113.603 39.6693C113.6 39.9547 113.529 40.2355 113.395 40.4883C113.261 40.741 113.068 40.9584 112.832 41.1223C112.319 41.5025 111.69 41.6962 111.049 41.6708C110.663 41.6761 110.279 41.6185 109.912 41.5C109.57 41.3808 109.254 41.1984 108.98 40.9624L108.599 41.5581H107.957V39.0844L108.863 39.019C108.973 39.3386 109.145 39.6336 109.369 39.8873C109.594 40.141 109.867 40.3483 110.173 40.4975C110.46 40.6311 110.773 40.7017 111.09 40.7045C111.375 40.7225 111.658 40.6486 111.897 40.4938C111.984 40.4385 112.055 40.3628 112.105 40.2734C112.155 40.1841 112.182 40.0838 112.183 39.9816C112.182 39.9059 112.166 39.831 112.135 39.7616C112.104 39.6923 112.059 39.63 112.003 39.5784C111.793 39.4206 111.55 39.3103 111.292 39.2551C110.558 39.0372 110.033 38.8628 109.736 38.7393C109.488 38.6421 109.258 38.5032 109.058 38.3289C108.9 38.1797 108.776 38.0005 108.691 37.8021C108.604 37.6075 108.559 37.3972 108.559 37.1846C108.56 36.8565 108.661 36.5364 108.848 36.2656C109.068 35.9575 109.37 35.717 109.721 35.5718C110.132 35.3893 110.578 35.2987 111.027 35.3066C111.378 35.3053 111.726 35.3618 112.058 35.4737C112.308 35.5586 112.543 35.6811 112.755 35.8369L113.034 35.3938L113.669 35.4083Z" fill="#FF6600"/>
<path fill-rule="evenodd" clip-rule="evenodd" d="M46.8845 4.74219H47.3394L47.4825 4.76035C47.8148 4.79748 48.1244 4.94595 48.3599 5.18113C48.5954 5.41632 48.7427 5.7241 48.7774 6.05352V6.44584C48.7774 6.49306 48.7774 6.54029 48.759 6.59115C48.5426 7.82983 47.5118 8.57085 46.3673 7.8952C45.6593 7.4702 45.8097 7.24498 45.4099 7.3031C45.2411 7.32853 45.1054 7.33217 44.9403 7.3576C44.1333 7.47666 43.3732 7.80782 42.7394 8.31659C41.8606 9.07735 41.2234 10.0742 40.9052 11.1863C40.6818 11.8807 40.5126 12.5912 40.399 13.3113C40.2963 13.9216 40.2412 14.5391 40.1715 15.1711C40.1532 15.3455 40.1495 15.5126 40.1312 15.6724C40.1146 15.8378 40.1073 16.0039 40.1092 16.1701L40.0285 18.1716C40.0285 19.1923 39.9661 20.2276 39.9661 21.2592L39.9441 21.7605C39.9571 21.9298 39.9571 22.0998 39.9441 22.2691C39.9001 22.5669 39.9441 22.9701 39.9074 23.2753L39.8744 23.762C39.8744 23.9255 39.8744 24.0998 39.8377 24.2488C39.7864 24.7319 39.7534 25.1823 39.6837 25.6582L39.4305 26.9695C39.5223 27.0167 39.6176 27.0385 39.7093 27.093C40.0304 27.2758 40.3091 27.5233 40.5274 27.8195C40.6375 27.9686 40.7368 28.1252 40.8245 28.2881C40.8795 28.3826 40.9015 28.4516 40.9492 28.546C41.6829 29.999 41.7783 32.2948 41.4665 33.8277C41.3491 34.4243 41.1504 35.0023 40.8759 35.5459C40.7878 35.7166 40.6704 35.8655 40.5861 36.029L40.3953 35.5459C40.1983 35.1171 39.9387 34.7193 39.625 34.3653C38.7959 33.4063 37.3873 32.658 35.9897 32.8324C35.4875 32.8938 35.017 33.1083 34.6434 33.4463L34.3316 33.7768C34.208 33.7584 34.0855 33.733 33.9648 33.7006L33.6163 33.6243C33.3705 33.5771 33.1651 33.5298 32.9083 33.4826C32.4204 33.3954 31.9619 33.3192 31.441 33.2429C31.1329 33.1993 29.8636 33.0467 29.5261 33.0358C29.4124 33.0358 29.2474 33.0358 29.1226 33.0104L28.3413 32.9668C28.2033 32.9557 28.0647 32.9557 27.9268 32.9668C27.7874 32.9668 27.6847 32.945 27.5233 32.945H26.6722C26.3714 32.945 26.133 32.9668 25.8432 32.9668L24.2438 33.0649C23.9467 33.0649 23.0553 33.1993 22.7251 33.2429L22.395 33.3264L22.0722 33.3845C21.9988 33.3845 21.6283 33.1738 21.5073 33.123C21.3066 33.0447 21.1007 32.9804 20.891 32.9305C20.4028 32.8113 19.8937 32.8026 19.4016 32.9051C19.5548 32.7921 19.7167 32.6913 19.8859 32.6035C20.4136 32.3329 20.9618 32.1033 21.5256 31.917C22.3366 31.6557 23.1652 31.4518 24.0054 31.3067C24.4492 31.2268 24.9004 31.1578 25.3553 31.1033L26.0449 31.0234C26.265 30.998 26.4998 30.998 26.7529 30.9653L27.1197 30.9398H27.3252C27.4095 30.9398 27.3985 30.9399 27.4866 30.9181C27.5746 30.8963 27.747 30.9181 27.8534 30.9181C28.1542 30.8817 29.4858 30.8854 29.7572 30.8999L30.8577 30.958C30.9804 30.9592 31.1029 30.9677 31.2246 30.9834C32.5737 31.0863 33.9115 31.3038 35.223 31.6337C36.4005 31.9243 37.9962 32.5418 38.95 33.3119L39.3645 33.6751C39.3235 33.567 39.2731 33.4624 39.2141 33.3627C39.1811 33.2973 39.1664 33.2792 39.1334 33.2211L38.8033 32.6653C38.6056 32.3541 38.3849 32.0578 38.143 31.779C38.0733 31.6954 37.9999 31.6264 37.9302 31.5465L37.7101 31.3067L37.4864 31.0852C37.26 30.8634 37.0145 30.6616 36.7527 30.4822L36.4959 30.2969C35.5518 29.664 34.5007 29.2039 33.3925 28.9383C32.633 28.7513 31.8586 28.6297 31.0778 28.5751C30.7844 28.5751 30.5276 28.5351 30.2305 28.5351C30.0778 28.5461 29.9246 28.5461 29.7719 28.5351H28.9135C28.5174 28.5351 27.6333 28.6005 27.2371 28.6405L26.8373 28.6841C26.5548 28.724 26.3017 28.7422 26.0266 28.7821L24.4822 29.0183C23.7266 29.1418 22.9599 29.2834 22.2299 29.4542C21.2688 29.6794 20.2857 29.8937 19.3356 30.1334L16.5037 30.8599C16.335 30.9035 16.3093 30.9289 16.1882 30.82C14.842 29.5559 18.5799 28.1319 19.3576 27.874L20.7002 27.4381C20.9313 27.3691 21.1698 27.2928 21.4045 27.2347C21.6393 27.1766 21.8704 27.1075 22.1089 27.0494C24.1312 26.5529 26.1891 26.2104 28.2643 26.0251C28.532 26.0033 28.8255 25.9669 29.0933 25.9633C29.1997 25.9633 29.207 25.9451 29.295 25.9415C29.3831 25.9379 29.4418 25.9415 29.5151 25.9415C29.5885 25.9415 29.8086 25.9415 29.937 25.9197C30.0654 25.8979 30.2305 25.9197 30.3882 25.9197C30.755 25.8907 32.292 25.8761 32.5892 25.9197C32.7322 25.9379 32.8863 25.9197 33.0294 25.9197C33.2972 25.9197 33.6053 25.9815 33.8584 25.9815C34.1115 25.9815 34.8232 26.0723 35.0653 26.1086C35.3074 26.1449 35.5788 26.1813 35.8393 26.2249C36.0997 26.2684 36.3932 26.3556 36.5729 26.3629C36.5859 26.2871 36.6068 26.2128 36.6353 26.1413C36.7826 25.6635 36.905 25.1785 37.0021 24.6883C37.0278 24.5321 37.0608 24.4013 37.0865 24.2524L37.2919 22.8939C37.3506 22.5015 37.523 20.9105 37.534 20.5037C37.534 20.1404 37.6331 19.3304 37.6331 19.0507L37.6954 18.0481C37.7285 17.7502 37.7505 17.3869 37.7725 17.0855C37.7945 16.784 37.7945 16.4498 37.8422 16.1083L37.9339 15.1602C38.0604 13.3837 38.4306 11.6324 39.0344 9.95483C39.308 9.23008 39.6781 8.54475 40.1349 7.917C40.2156 7.80802 40.2779 7.72448 40.3623 7.62277L41.4298 6.59476C41.7322 6.3555 42.0593 6.14853 42.4055 5.97725L42.7724 5.80287C43.1446 5.62778 43.5327 5.48792 43.9316 5.38515C44.5159 5.24041 45.1089 5.13243 45.707 5.06185C46.0969 4.94423 46.4939 4.85081 46.8955 4.78214" fill="#FF6600"/>
<path fill-rule="evenodd" clip-rule="evenodd" d="M9.92188 14.6568C9.92584 15.4691 10.0916 16.2727 10.4098 17.0215C10.5253 17.3181 10.6575 17.6079 10.8059 17.8897C11.3019 18.8412 11.8865 19.7448 12.552 20.5887L12.8382 20.9519C13.0839 21.268 13.3554 21.613 13.6305 21.9073L13.8616 22.1579C13.8983 22.1979 13.8946 22.2051 13.935 22.2487L14.9218 23.3167C15.0685 23.5056 16.0663 24.4646 16.3634 24.7515L18.0508 26.2663C18.0875 26.2953 18.1022 26.3172 18.1352 26.3426C18.2714 26.4786 18.4214 26.6003 18.5827 26.7058L18.2526 26.1319C18.2159 26.0629 18.1755 26.0047 18.1389 25.943C17.9151 25.5543 17.0164 23.9524 16.8036 23.64L17.783 23.066C18.0251 22.9244 18.5534 22.6519 18.8138 22.543L21.0148 21.6167C21.1149 21.8067 21.2276 21.99 21.3523 22.1652C21.4697 22.3613 21.5761 22.5284 21.6971 22.7246L23.5313 26.012L23.5716 26.0919L23.6193 26.1646C23.5838 25.947 23.5285 25.733 23.4542 25.5253L22.9003 23.6509C22.7242 23.0442 22.4968 22.4522 22.2804 21.8601C22.2474 21.7583 22.2143 21.6712 22.174 21.5622C22.1249 21.4637 22.0867 21.3601 22.0603 21.2534L23.601 20.832C23.8687 20.7667 24.1145 20.7049 24.4006 20.6468C24.67 20.5742 24.943 20.516 25.2187 20.4724C25.356 20.7541 25.4785 21.0427 25.5855 21.337C25.9523 22.1906 26.2201 23.0733 26.5136 23.9487L26.5613 24.0614V23.5601C26.5613 23.2804 26.5246 22.612 26.4879 22.3323L26.3412 21.1735C26.2972 20.872 26.2421 20.5705 26.1761 20.2944L27.9149 20.0692C28.3551 20.0147 29.2831 19.9312 29.749 19.9312C29.749 20.0365 29.9911 20.9229 30.0241 21.1045C30.0572 21.2861 30.1012 21.4968 30.1379 21.7111C30.1379 21.8092 30.1709 21.9182 30.1855 22.0235C30.2002 22.1289 30.1855 22.2596 30.2552 22.3359C30.2552 21.8383 30.2773 21.2861 30.2369 20.7921C30.2369 20.5923 30.2369 20.3816 30.2076 20.1818C30.2076 20.0983 30.1819 19.9603 30.1745 19.8912C30.5084 19.8912 30.7835 19.8912 31.1246 19.8912H32.0747C32.3792 19.8912 32.757 19.8658 33.0468 19.8912C33.3366 19.9167 33.6704 19.9312 34.0006 19.9312C33.862 19.849 33.7173 19.7773 33.5677 19.7169C33.2009 19.5316 32.801 19.4045 32.4159 19.2555C31.7385 19.0201 31.0412 18.845 30.3323 18.7325C30.2332 18.7108 30.1327 18.6963 30.0315 18.6889C29.9361 18.2711 29.8884 17.7989 29.7894 17.3848L29.4849 16.1243C29.8517 16.0371 30.523 16.0662 30.9522 16.0081L33.2743 15.9427C33.7805 15.9427 34.3234 15.9827 34.8333 15.9827C34.8943 15.9776 34.9557 15.9776 35.0167 15.9827C35.0839 15.9863 35.1513 15.9863 35.2185 15.9827H35.5853C35.3381 15.9583 35.093 15.917 34.8516 15.8591C34.184 15.7502 32.3535 15.4959 31.7482 15.4632C31.6272 15.4632 31.4731 15.4378 31.3631 15.4269L30.7578 15.3833C30.6844 15.3833 30.6111 15.3833 30.5377 15.3833C30.4643 15.3833 30.2479 15.3833 30.1232 15.3542L29.2611 15.3252C29.1437 14.8275 28.8943 14.1991 28.7402 13.6942C28.6632 13.4617 28.1753 12.1976 28.168 12.0995C28.9493 12.0995 29.6867 12.1503 30.4533 12.1612C30.5707 12.1612 30.5964 12.1612 30.7174 12.1612L31.2824 12.183C31.6492 12.183 32.038 12.223 32.4159 12.223C32.5443 12.223 32.5736 12.223 32.6983 12.2448L33.531 12.2811C33.6264 12.2811 33.7365 12.2811 33.8318 12.2811L34.3821 12.3174L35.5046 12.3683C35.595 12.3738 35.6856 12.3738 35.776 12.3683L37.115 12.4446C37.2287 12.4446 37.0489 12.4446 37.1443 12.4446L36.1465 12.2484C35.7797 12.1867 35.4826 12.1213 35.1267 12.0523C33.0652 11.6672 31.0109 11.3258 28.9347 11.0315C28.223 10.9262 27.5334 10.8499 26.807 10.7518C26.4659 10.7082 26.1027 10.6792 25.7396 10.632C25.0059 10.5303 24.0338 10.483 23.2561 10.4031C22.9663 10.3704 22.6839 10.4031 22.4014 10.3486L21.8218 10.3196C21.6971 10.3196 21.6678 10.2978 21.543 10.2978C21.0442 10.2978 20.5856 10.2578 20.0757 10.2578H18.6084L17.2071 10.3341C17.1374 10.3341 17.064 10.3341 16.9907 10.3341L16.6239 10.3741C15.3205 10.468 14.0365 10.7406 12.8088 11.1841L12.2256 11.4457C10.9637 12.0704 9.94388 13.1384 9.94388 14.6386L9.92188 14.6568ZM22.2694 12.0341L25.7102 12.016C25.868 12.016 25.9413 12.0341 26.0771 12.0341C26.1578 12.154 26.2311 12.292 26.3082 12.4228C26.741 13.1493 27.2876 14.1155 27.6618 14.8529C27.7351 15.0019 27.8012 15.1399 27.8782 15.2816H27.4307C27.1885 15.2816 27.1335 15.2816 27.0088 15.3034C26.7926 15.2906 26.5757 15.2906 26.3595 15.3034L24.8592 15.3796C24.7124 15.3796 24.562 15.4051 24.4153 15.4051L23.9238 14.5079C23.6486 14.0138 23.3002 13.5053 22.9847 13.0331C22.9297 12.9568 22.8856 12.8986 22.8343 12.8224C22.7352 12.6952 22.3354 12.1867 22.262 12.0523L22.2694 12.0341ZM17.0677 12.4954L17.761 12.3828C18.2232 12.3138 19.5952 12.154 20.0024 12.154C20.3849 12.5336 20.7346 12.9443 21.0478 13.3818C21.1065 13.4617 21.1615 13.5198 21.2202 13.5961C21.5504 14.0066 22.207 14.9365 22.4931 15.3615C22.5458 15.4377 22.5924 15.5179 22.6325 15.6012L19.5585 16.0626C19.5007 15.9967 19.4503 15.9248 19.4081 15.8483C19.3567 15.7611 19.3164 15.6993 19.2614 15.6121C18.8432 14.9401 18.4947 14.4388 18.0508 13.7959L17.4015 12.9168L17.2365 12.6988C17.1704 12.6516 17.1117 12.5899 17.0604 12.5136L17.0677 12.4954ZM14.3238 13.4944C14.4816 13.5997 15.7141 14.8384 15.8315 14.991C15.8877 15.0551 15.9477 15.1157 16.0112 15.1726L16.9063 16.1497C17.0054 16.2732 17.1814 16.444 17.2731 16.5602C17.1265 16.6079 16.977 16.6468 16.8256 16.6765C16.2754 16.7891 14.6246 17.2577 14.0744 17.4393C13.935 17.4865 13.7699 17.5519 13.6305 17.5846C13.5828 17.3775 13.3958 16.9453 13.3077 16.4948C13.1096 15.5213 13.128 14.6314 13.8396 13.894C13.9727 13.7303 14.1373 13.5944 14.3238 13.4944ZM25.0316 16.6619C25.3984 16.582 27.1299 16.3386 27.4783 16.2987L28.3294 16.197C28.3771 16.2841 28.4101 16.375 28.4578 16.4694L28.8246 17.3521C29.0011 17.7536 29.1541 18.1647 29.2831 18.5835L28.5495 18.5218H27.1115C27.0345 18.5218 26.9501 18.5218 26.8694 18.5218C26.7887 18.5218 26.7594 18.5218 26.6493 18.5218C26.3412 18.5218 26.033 18.6017 25.7359 18.6017C25.6956 18.431 25.6259 18.2675 25.5745 18.104L25.0316 16.6619ZM20.3949 17.6027C21.3229 17.3884 22.1153 17.2068 23.0617 17.0179C23.1971 16.9848 23.3343 16.9594 23.4726 16.9416C23.5477 17.1032 23.6335 17.2598 23.7293 17.4102C23.8174 17.5773 23.9018 17.7081 23.9861 17.8788L24.353 18.5835C24.3933 18.6707 24.4263 18.7615 24.474 18.8451C24.2833 18.8451 23.0764 19.132 22.8856 19.1793L21.7375 19.4844C21.6187 19.5296 21.4959 19.5637 21.3706 19.5861L20.9011 18.5908C20.7287 18.253 20.5599 17.9297 20.3985 17.6027H20.3949ZM14.3862 19.3064L18.2562 18.1476C18.3466 18.1171 18.4401 18.0964 18.535 18.0859C18.535 18.1404 19.4741 19.3355 19.6355 19.5389L20.0024 20.0474L15.7251 21.7729C15.6816 21.6673 15.6275 21.5663 15.5637 21.4714L14.3862 19.3064Z" fill="#FF6600"/>
<path fill-rule="evenodd" clip-rule="evenodd" d="M19.871 33.1211C19.4793 33.1268 19.0972 33.2424 18.7693 33.4546C18.4413 33.6668 18.181 33.9669 18.0185 34.3198C17.593 35.2825 17.9635 36.4703 18.521 37.2259C18.7293 37.525 18.9759 37.7961 19.2547 38.0323C20.0001 38.7382 20.9966 39.1246 22.0279 39.1075C23.4952 39.0167 24.1886 37.9088 24.0235 36.5865C23.8955 35.8278 23.5476 35.1224 23.022 34.556C22.6353 34.1043 22.1536 33.7419 21.6105 33.494C21.0675 33.2461 20.4763 33.1189 19.8783 33.1211H19.871ZM20.7294 34.6867C21.1761 34.6322 21.6269 34.7506 21.9876 35.0173C23.3082 35.9763 23.1798 37.6981 21.9876 37.9233C21.0412 38.0904 20.2745 37.3058 19.9957 36.7464C19.5995 35.9436 19.7132 34.9011 20.722 34.6867H20.7294Z" fill="#FF6600"/>
<path fill-rule="evenodd" clip-rule="evenodd" d="M36.1509 33.1289C35.7452 33.1553 35.355 33.2937 35.0247 33.5285C34.8783 33.6333 34.7453 33.7552 34.6285 33.8917C34.5145 34.0412 34.4207 34.2048 34.3498 34.3785C33.9132 35.5227 34.4745 36.9212 35.2668 37.7059C35.5129 37.9719 35.7886 38.2095 36.0885 38.4142C37.0716 39.0354 38.4546 39.4713 39.5771 38.6903C39.8823 38.4765 40.1171 38.1783 40.252 37.833C40.6812 36.7033 40.186 35.5554 39.5184 34.7054C39.4657 34.6327 39.4068 34.5647 39.3423 34.502C39.2102 34.3857 39.1039 34.2441 38.9498 34.1387C38.9198 34.109 38.8879 34.0811 38.8544 34.0552C38.1068 33.422 37.1449 33.0924 36.1619 33.1325L36.1509 33.1289ZM37.101 34.6909C37.5485 34.6335 38.0008 34.7536 38.3592 35.0251C38.6716 35.2448 38.9238 35.5382 39.0929 35.8787C39.5184 36.7687 39.2543 37.7495 38.3592 37.9093C37.4641 38.0691 36.6351 37.2736 36.371 36.7251C35.9198 35.8387 36.1766 34.8616 37.09 34.6872L37.101 34.6909Z" fill="#FF6600"/>
<path d="M55.9389 17.8065C55.9389 20.589 56.5882 22.6982 57.8868 24.1343C58.5145 24.8104 59.2771 25.3502 60.1264 25.7194C60.9757 26.0887 61.8931 26.2793 62.8206 26.2793C63.7482 26.2793 64.6656 26.0887 65.5149 25.7194C66.3641 25.3502 67.1268 24.8104 67.7545 24.1343C69.0335 22.7079 69.673 20.5708 69.673 17.7229C69.673 14.9077 69.0531 12.8045 67.7985 11.4241C66.544 10.0438 64.9006 9.34268 62.828 9.34268C61.8909 9.30857 60.9577 9.47935 60.0948 9.84286C59.2319 10.2064 58.4605 10.7537 57.8354 11.4459C56.5735 12.8505 55.9414 14.9646 55.9389 17.7883V17.8065ZM50.7813 17.9554C50.7813 15.4514 51.1603 13.3494 51.9185 11.6493C52.4786 10.3996 53.26 9.25916 54.2258 8.282C55.1296 7.33657 56.2178 6.58274 57.4246 6.06617C59.1237 5.39107 60.9425 5.06122 62.773 5.09628C66.4266 5.09628 69.3502 6.21873 71.5438 8.46362C73.7375 10.7085 74.838 13.8349 74.8453 17.8428C74.8453 21.8095 73.7571 24.9141 71.5805 27.1565C69.404 29.399 66.495 30.5202 62.8536 30.5202C59.1707 30.5202 56.236 29.4038 54.0497 27.1711C51.8634 24.9383 50.774 21.8724 50.7813 17.9735V17.9554Z" fill="#FF6600"/>
<path d="M188.863 12.3114V16.0457H185.613V23.2453C185.583 24.094 185.613 24.9437 185.704 25.7881C185.769 26.0321 185.92 26.245 186.13 26.3874C186.366 26.5466 186.647 26.6279 186.933 26.6199C187.592 26.5727 188.238 26.4206 188.848 26.1695L189.244 29.8238C188.059 30.3094 186.785 30.5492 185.503 30.5285C184.712 30.5392 183.928 30.3935 183.195 30.0998C182.6 29.8843 182.079 29.5065 181.691 29.0101C181.332 28.4521 181.102 27.8217 181.02 27.1648C180.892 26.0592 180.842 24.9462 180.869 23.8338V16.0457H178.691V12.3114H180.866V8.78063L185.609 6.00539V12.3114H188.863ZM172.062 19.7109C172.028 18.345 171.674 17.3074 171.002 16.5978C170.692 16.2558 170.311 15.9836 169.886 15.7994C169.461 15.6151 169.001 15.5232 168.537 15.5298C168.051 15.5191 167.57 15.6144 167.126 15.809C166.682 16.0037 166.287 16.2928 165.969 16.6559C165.294 17.4042 164.967 18.425 164.978 19.7109H172.062ZM171.787 24.4731L176.526 25.2613C176.018 26.8439 175.008 28.2221 173.647 29.1917C172.333 30.0853 170.69 30.5394 168.724 30.5394C165.603 30.5394 163.295 29.5283 161.798 27.5062C160.613 25.8825 160.019 23.841 160.019 21.3673C160.019 18.4201 160.797 16.111 162.352 14.4401C163.092 13.6248 164.002 12.9784 165.019 12.5457C166.037 12.1129 167.137 11.9041 168.243 11.9336C170.909 11.9336 173.014 12.8067 174.56 14.5527C176.106 16.2987 176.839 18.9771 176.761 22.5878H164.912C164.949 23.9827 165.332 25.0724 166.061 25.8571C166.403 26.2336 166.823 26.5327 167.293 26.7339C167.763 26.9352 168.271 27.0338 168.782 27.0231C169.458 27.0456 170.119 26.8336 170.653 26.4237C171.231 25.907 171.632 25.2254 171.801 24.4731H171.787ZM142.004 30.0926V5.55859H146.751V18.5739L152.304 12.3114H158.152L152.018 18.7955L158.592 30.078H153.456L148.952 22.0647L146.751 24.3968V30.0926H142.004ZM133.244 30.0926H128.501V12.2933H132.903V14.8142C133.658 13.6228 134.34 12.8406 134.946 12.4676C135.565 12.0944 136.279 11.9029 137.004 11.9155C138.11 11.9237 139.192 12.2287 140.137 12.7982L138.669 16.8993C138.015 16.436 137.239 16.1687 136.435 16.1292C135.824 16.1114 135.226 16.3026 134.741 16.6705C134.278 17.0337 133.915 17.6875 133.64 18.6356C133.365 19.5837 133.244 21.5707 133.244 24.593V30.0926ZM119.363 21.5961C118.754 21.7959 117.793 22.0357 116.473 22.3226C115.152 22.6096 114.294 22.8748 113.905 23.14C113.621 23.3161 113.387 23.5602 113.224 23.8498C113.061 24.1393 112.975 24.4649 112.973 24.7964C112.969 25.1157 113.033 25.4324 113.159 25.7263C113.285 26.0202 113.472 26.2849 113.707 26.5036C113.957 26.7446 114.253 26.9331 114.578 27.0579C114.904 27.1828 115.251 27.2413 115.599 27.2301C116.486 27.2192 117.345 26.9263 118.05 26.3947C118.591 26.014 118.988 25.4657 119.18 24.8363C119.336 24.084 119.399 23.3154 119.367 22.5479L119.363 21.5961ZM113.002 17.7929L108.71 17.0373C109.199 15.301 110.035 14.0163 111.216 13.1832C112.397 12.3502 114.153 11.9336 116.484 11.9336C118.6 11.9336 120.181 12.177 121.219 12.6601C122.136 13.0451 122.907 13.7076 123.42 14.5527C123.842 15.3155 124.055 16.714 124.055 18.7592L123.963 24.2442C123.933 25.4001 124.008 26.5562 124.187 27.6988C124.367 28.5253 124.651 29.326 125.034 30.0817H120.339C120.218 29.7729 120.06 29.3152 119.88 28.7122C119.807 28.4325 119.748 28.2473 119.715 28.1637C118.969 28.9097 118.088 29.5099 117.118 29.9327C116.192 30.3299 115.193 30.5327 114.183 30.5285C112.349 30.5285 110.882 30.0308 109.829 29.0355C109.309 28.5581 108.898 27.9765 108.623 27.3295C108.348 26.6825 108.215 25.9849 108.234 25.2831C108.221 24.3382 108.476 23.4086 108.967 22.5987C109.45 21.8073 110.158 21.1752 111.003 20.7824C112.21 20.2662 113.476 19.9002 114.774 19.6927C116.975 19.2822 118.53 18.8935 119.385 18.5375V18.069C119.385 17.1536 119.158 16.5033 118.71 16.111C118.263 15.7187 117.401 15.5262 116.142 15.5262C115.445 15.4846 114.752 15.6613 114.161 16.0311C113.599 16.4845 113.194 17.1004 113.002 17.7929ZM78.3589 12.3114H82.7205V14.738C84.2832 12.8708 86.1455 11.9361 88.3073 11.9336C89.3484 11.9072 90.3785 12.1487 91.297 12.6347C92.1762 13.1368 92.8955 13.8731 93.3732 14.7598C94.0752 13.8867 94.9488 13.1638 95.941 12.6347C96.8465 12.1666 97.8543 11.9258 98.8757 11.9336C100.042 11.8968 101.198 12.1702 102.221 12.7255C103.139 13.2645 103.855 14.0842 104.261 15.0612C104.591 15.8168 104.752 17.0446 104.752 18.741V30.0926H99.9798V19.9433C99.9798 18.1816 99.8184 17.0373 99.4883 16.5361C99.27 16.2059 98.9674 15.9388 98.611 15.762C98.2547 15.5853 97.8575 15.5052 97.4597 15.5298C96.7851 15.5332 96.128 15.7425 95.5779 16.1292C94.9721 16.5652 94.5264 17.185 94.3087 17.8946C94.0519 18.672 93.9235 19.8925 93.9235 21.5671V30.0926H89.1841V20.3611C89.1841 18.6356 89.096 17.5168 88.9309 17.0228C88.8021 16.5719 88.526 16.1759 88.1459 15.8967C87.7147 15.6313 87.2112 15.5044 86.7043 15.5335C86.0017 15.525 85.3131 15.729 84.7307 16.1183C84.1327 16.5265 83.6898 17.1211 83.4725 17.8074C83.228 18.5339 83.1057 19.7544 83.1057 21.469V30.0926H78.3516L78.3589 12.3114Z" fill="#00953F"/>
</svg>
