<svg width="16" height="16" viewBox="0 0 16 16" fill="none" xmlns="http://www.w3.org/2000/svg">
<path fill-rule="evenodd" clip-rule="evenodd" d="M3.55947 0.0672091C3.32555 0.211286 3.08366 0.588233 2.98793 0.957921C2.96092 1.06229 2.93882 1.26328 2.93882 1.40458C2.93882 1.8634 3.08188 2.24176 3.39509 2.61122C3.62409 2.88139 3.68769 3.02687 3.68816 3.2818C3.68859 3.5051 3.62372 3.66829 3.42257 3.95019C3.29535 4.12846 3.28338 4.25677 3.37692 4.44024C3.4477 4.57906 3.62782 4.68972 3.78295 4.68972C3.93448 4.68972 4.10494 4.58328 4.24297 4.40247C4.51131 4.05093 4.62708 3.71312 4.62708 3.2818C4.62708 2.81725 4.48792 2.44922 4.17081 2.07515C3.9418 1.80499 3.87821 1.6595 3.87774 1.40458C3.87733 1.1896 3.96834 0.933674 4.07727 0.843504C4.1588 0.775987 4.25191 0.574717 4.25191 0.465963C4.25191 0.310716 4.14133 0.130472 4.00261 0.0596376C3.84213 -0.022272 3.70088 -0.0198629 3.55947 0.0672091ZM6.37324 0.0672091C6.13932 0.211286 5.89743 0.588233 5.8017 0.957921C5.77468 1.06229 5.75258 1.26328 5.75258 1.40458C5.75258 1.8634 5.89565 2.24176 6.20885 2.61122C6.43786 2.88139 6.50145 3.02687 6.50192 3.2818C6.50236 3.5051 6.43748 3.66829 6.23633 3.95019C6.10912 4.12846 6.09714 4.25677 6.19068 4.44024C6.26147 4.57906 6.44158 4.68972 6.59671 4.68972C6.74825 4.68972 6.9187 4.58328 7.05673 4.40247C7.32069 4.05663 7.44084 3.70615 7.44084 3.2818C7.44084 2.82298 7.29777 2.44462 6.98457 2.07515C6.75556 1.80499 6.69197 1.6595 6.6915 1.40458C6.6911 1.1896 6.78211 0.933674 6.89103 0.843504C6.97257 0.775987 7.06567 0.574717 7.06567 0.465963C7.06567 0.310716 6.95509 0.130472 6.81637 0.0596376C6.65589 -0.022272 6.51464 -0.0198629 6.37324 0.0672091ZM9.187 0.0672091C8.95308 0.211286 8.71119 0.588233 8.61546 0.957921C8.58845 1.06229 8.56634 1.26328 8.56634 1.40458C8.56634 1.8634 8.70941 2.24176 9.02261 2.61122C9.25162 2.88139 9.31521 3.02687 9.31568 3.2818C9.31612 3.5051 9.25124 3.66829 9.05009 3.95019C8.92288 4.12846 8.9109 4.25677 9.00445 4.44024C9.07523 4.57906 9.25534 4.68972 9.41047 4.68972C9.56201 4.68972 9.73246 4.58328 9.87049 4.40247C10.1345 4.05663 10.2546 3.70615 10.2546 3.2818C10.2546 2.82298 10.1115 2.44462 9.79833 2.07515C9.56933 1.80499 9.50573 1.6595 9.50527 1.40458C9.50486 1.1896 9.59587 0.933674 9.70479 0.843504C9.78633 0.775987 9.87943 0.574717 9.87943 0.465963C9.87943 0.310716 9.76885 0.130472 9.63013 0.0596376C9.46966 -0.022272 9.3284 -0.0198629 9.187 0.0672091ZM0.24264 5.72413C0.168388 5.76337 0.101139 5.8342 0.0582762 5.91827C-0.00540868 6.0432 -0.00809738 6.07871 0.0107548 6.55127C0.045114 7.41204 0.147566 8.15107 0.34503 8.96197C0.726951 10.5304 1.40995 11.9052 2.33761 12.973L2.53467 13.1998H1.45137C0.395553 13.1998 0.364976 13.2015 0.246548 13.2681C0.11477 13.3423 0 13.5339 0 13.6798C0 13.9075 0.41997 14.529 0.85479 14.9447C1.38744 15.454 2.00162 15.7769 2.75123 15.9416C3.00207 15.9967 3.21801 16 6.59671 16C9.97541 16 10.1914 15.9967 10.4422 15.9416C11.2153 15.7717 11.8855 15.4106 12.4043 14.8845C12.833 14.4497 13.1934 13.8933 13.1934 13.6663C13.1934 13.5249 13.0796 13.3428 12.9432 13.2661C12.8295 13.2021 12.7876 13.1998 11.7411 13.1998H10.6567L10.8543 12.9725C10.9629 12.8475 11.1362 12.6297 11.2394 12.4886L11.427 12.232L11.724 12.2303C12.9061 12.2238 13.9444 11.7964 14.7592 10.981C15.4703 10.2693 15.8814 9.39996 15.9808 8.39752C16.0259 7.94211 15.9946 7.69353 15.854 7.39286C15.676 7.01228 15.2813 6.7113 14.8538 6.63018C14.7613 6.61259 14.3498 6.59823 13.9395 6.59823H13.1934V6.3154C13.1934 5.96689 13.1308 5.8179 12.9441 5.7226C12.8217 5.66009 12.7743 5.65962 6.59014 5.661C0.448545 5.66237 0.357879 5.66328 0.24264 5.72413ZM12.2362 6.77813C12.1391 7.96094 11.9606 8.82459 11.613 9.79499C11.1503 11.0862 10.3823 12.2558 9.5199 12.9826L9.26216 13.1998H6.59824H3.93436L3.70582 13.0129C3.09276 12.5116 2.44485 11.6567 1.99799 10.7594C1.39706 9.5527 1.06885 8.29021 0.95893 6.76249L0.947113 6.59823H6.59905H12.251L12.2362 6.77813ZM14.82 7.59983C15.0626 7.72372 15.1167 7.97214 15.0216 8.52611C14.9412 8.99416 14.7885 9.39805 14.5568 9.75588C14.0153 10.5921 13.1909 11.1223 12.2242 11.256C12.1125 11.2715 12.0166 11.2801 12.0112 11.2752C12.0057 11.2703 12.0427 11.1839 12.0934 11.0833C12.3645 10.5443 12.6578 9.73119 12.8335 9.03162C12.9439 8.59181 13.0996 7.76199 13.0996 7.61315V7.53684H13.8981C14.6367 7.53684 14.7058 7.54157 14.82 7.59983ZM11.6658 14.2973C11.3053 14.6337 10.8256 14.8877 10.3328 15.0029C10.0964 15.0582 9.89153 15.0614 6.59671 15.0614C3.30999 15.0614 3.09661 15.0581 2.863 15.0033C2.37441 14.8887 1.88297 14.6296 1.53194 14.3015L1.35999 14.1408H6.59671H11.8334L11.6658 14.2973Z" fill="url(#paint0_linear_770_67316)"/>
<defs>
<linearGradient id="paint0_linear_770_67316" x1="16" y1="8" x2="-4.61516e-09" y2="8" gradientUnits="userSpaceOnUse">
<stop stop-color="#222222"/>
<stop offset="1" stop-color="#414141"/>
</linearGradient>
</defs>
</svg>
