<svg width="16" height="16" viewBox="0 0 16 16" fill="none" xmlns="http://www.w3.org/2000/svg">
<g clip-path="url(#clip0_770_67329)">
<path d="M15.9988 1.84982C15.9988 0.839387 15.1598 0.000897068 14.1494 0.000480737C10.049 -0.000351924 5.94853 6.44066e-05 1.84809 0.000480737C1.01793 0.000480737 0.277692 0.564193 0.0532903 1.36313C0.0366371 1.42308 0.0179022 1.48262 0 1.54215C0 5.85118 0 10.1602 0 14.4692C0.134058 15.0105 0.411751 15.4505 0.895943 15.7469C1.09328 15.8677 1.31144 15.933 1.53001 15.9992C5.83904 15.9992 10.1481 15.9992 14.4571 15.9992C14.9188 15.8827 15.3201 15.6687 15.6124 15.2802C15.8639 14.9463 16 14.5741 16 14.1511C15.9983 10.0507 15.9996 5.95026 15.9988 1.84982ZM14.7248 14.0883C14.7006 14.4838 14.4629 14.7182 14.0661 14.7373C14.0195 14.7394 13.9725 14.7386 13.9258 14.7386C9.97195 14.7386 6.01764 14.7386 2.06375 14.7386C2.01171 14.7386 1.95967 14.7403 1.90763 14.7369C1.51877 14.7119 1.28646 14.4792 1.26273 14.0904C1.2594 14.0383 1.26107 13.9863 1.26107 13.9342C1.26107 10.6307 1.26107 7.32665 1.26107 4.02307C1.26107 3.77161 1.26107 3.77161 1.50753 3.77161C3.67204 3.77161 5.83612 3.77161 8.00062 3.77161C10.1651 3.77161 12.3292 3.77161 14.4937 3.77161C14.726 3.77161 14.7264 3.77202 14.7264 4.006C14.7264 7.32541 14.7264 10.6448 14.7264 13.9642C14.726 14.005 14.7273 14.0467 14.7248 14.0883ZM14.7264 2.35816C14.7285 2.45725 14.6861 2.50305 14.5866 2.49847C14.5399 2.49638 14.4929 2.49847 14.4463 2.49847C12.2926 2.49847 10.1389 2.49847 7.98564 2.49847C5.82155 2.49847 3.65788 2.49847 1.49379 2.49847C1.26148 2.49847 1.26148 2.49805 1.26148 2.26407C1.26148 2.15499 1.25815 2.0455 1.26273 1.93642C1.2798 1.53299 1.52086 1.29236 1.92345 1.27445C1.97008 1.27237 2.01712 1.27362 2.06375 1.27362C6.01723 1.27362 9.9707 1.27362 13.9242 1.27362C13.9866 1.27362 14.0495 1.27071 14.1111 1.27737C14.4866 1.3165 14.7027 1.54215 14.7239 1.92185C14.7319 2.06631 14.7235 2.21245 14.7264 2.35816Z" fill="url(#paint0_linear_770_67329)"/>
<path d="M11.7919 7.86354C11.5625 7.80234 11.3377 7.72615 11.1087 7.66287C11.0184 7.63789 11.0005 7.59834 11.0288 7.51091C11.1 7.289 11.1574 7.06294 11.2299 6.84145C11.264 6.73653 11.2365 6.68824 11.1333 6.65909C10.8751 6.58665 10.6174 6.51213 10.3626 6.42928C10.249 6.39223 10.2074 6.42928 10.1774 6.53628C10.0866 6.86226 9.98503 7.18534 9.89136 7.51049C9.86929 7.58793 9.83016 7.64039 9.75813 7.67869C9.38926 7.8752 9.02081 8.07254 8.65569 8.27571C8.55827 8.32983 8.52954 8.32067 8.53079 8.2041C8.53537 7.79485 8.53495 7.38559 8.53079 6.97634C8.52954 6.87933 8.56285 6.81106 8.63029 6.74486C8.8726 6.50797 9.10866 6.26483 9.35096 6.02794C9.4209 5.95966 9.43548 5.9097 9.35679 5.83434C9.15653 5.64283 8.96086 5.44591 8.76851 5.24648C8.69899 5.17446 8.65069 5.18112 8.5845 5.24981C8.4292 5.41177 8.26142 5.56206 8.11196 5.72901C8.01829 5.83351 7.96042 5.82102 7.87299 5.72443C7.7281 5.56498 7.56657 5.42093 7.41919 5.26397C7.343 5.18278 7.28887 5.17154 7.20602 5.25897C7.02201 5.45423 6.83133 5.64325 6.6369 5.82851C6.5553 5.90637 6.56529 5.95799 6.64148 6.03168C6.8817 6.26441 7.11318 6.50588 7.3534 6.73861C7.42959 6.8123 7.46165 6.88974 7.45749 6.99466C7.45083 7.17493 7.45582 7.35562 7.45541 7.53589C7.45541 7.73406 7.45624 7.93182 7.45499 8.12999C7.45416 8.26696 7.44208 8.27363 7.32343 8.2016C6.99994 8.00509 6.67937 7.804 6.35379 7.61208C6.25388 7.55337 6.20433 7.47677 6.17935 7.36644C6.10566 7.04087 6.02198 6.71738 5.94579 6.39223C5.92664 6.31146 5.8925 6.28356 5.80674 6.30563C5.52988 6.37599 5.25135 6.4401 4.97324 6.50505C4.88623 6.52545 4.86333 6.56917 4.88706 6.65785C4.94493 6.87434 4.98948 7.09416 5.04735 7.31065C5.07816 7.42514 5.06525 7.48718 4.93036 7.51174C4.71886 7.55046 4.51236 7.61624 4.3017 7.65829C4.17638 7.68327 4.14724 7.73614 4.18055 7.85813C4.24841 8.10376 4.30961 8.35148 4.35957 8.60128C4.38497 8.72909 4.44034 8.75532 4.55941 8.72493C4.8829 8.64208 5.2093 8.56964 5.53279 8.4872C5.6173 8.46555 5.68517 8.47846 5.75719 8.52301C6.09359 8.73159 6.43248 8.93684 6.76971 9.14417C6.88878 9.21745 6.8892 9.22952 6.76929 9.2953C6.41791 9.48765 6.06528 9.67666 5.71473 9.86984C5.64395 9.90897 5.57817 9.91439 5.50115 9.89066C5.1735 9.7899 4.84376 9.69581 4.51611 9.59464C4.41452 9.56342 4.36623 9.5859 4.3375 9.69331C4.26798 9.95227 4.18929 10.2087 4.10811 10.4644C4.07605 10.5651 4.09353 10.6151 4.20303 10.6442C4.42826 10.7033 4.64892 10.7804 4.87374 10.8411C4.97033 10.8674 4.98948 10.9078 4.95909 11.001C4.88748 11.2225 4.82919 11.4486 4.758 11.6705C4.72636 11.7683 4.7505 11.8166 4.84917 11.8445C5.11146 11.9186 5.37333 11.9944 5.63271 12.0781C5.73971 12.1126 5.78134 12.0785 5.81007 11.9777C5.90249 11.6522 6.00408 11.3291 6.0965 11.0035C6.11982 10.9207 6.16145 10.8661 6.23722 10.8257C6.60609 10.6296 6.97413 10.4315 7.34008 10.2291C7.43167 10.1783 7.45957 10.1875 7.45874 10.2966C7.45499 10.7058 7.45457 11.1151 7.45915 11.5243C7.4604 11.6259 7.42626 11.6979 7.35507 11.7671C7.11568 12.0006 6.88337 12.2413 6.64314 12.474C6.56737 12.5477 6.55613 12.5993 6.63815 12.6772C6.83549 12.8653 7.02825 13.0589 7.21726 13.2554C7.29137 13.3325 7.34175 13.3229 7.41086 13.2509C7.56573 13.0885 7.73143 12.9361 7.88423 12.7721C7.96416 12.6863 8.01787 12.6726 8.10405 12.7675C8.25476 12.9332 8.42254 13.0839 8.57659 13.2467C8.65028 13.3246 8.70273 13.3308 8.77975 13.25C8.96502 13.056 9.15445 12.8649 9.34971 12.6813C9.43839 12.5981 9.42257 12.5452 9.34347 12.4686C9.09991 12.2329 8.86385 11.9902 8.6228 11.7521C8.56701 11.6971 8.53204 11.6405 8.53245 11.5568C8.53578 11.1609 8.53329 10.7645 8.53454 10.3686C8.53495 10.2433 8.55202 10.2341 8.6611 10.3003C8.98834 10.4993 9.31224 10.7029 9.64198 10.8973C9.73815 10.954 9.78519 11.0277 9.80934 11.1334C9.88345 11.459 9.96713 11.7825 10.0425 12.1076C10.0629 12.195 10.0987 12.2229 10.1899 12.1996C10.4621 12.1301 10.7365 12.0672 11.0105 12.0044C11.1037 11.9827 11.1266 11.9369 11.1016 11.8428C11.0404 11.6134 10.9926 11.3811 10.9339 11.1509C10.911 11.061 10.9401 11.0231 11.0275 11.0035C11.2507 10.954 11.4713 10.894 11.6949 10.8466C11.8111 10.822 11.844 10.7733 11.8111 10.6542C11.7419 10.4044 11.6803 10.1521 11.6287 9.89815C11.6037 9.77575 11.5509 9.75243 11.4376 9.78116C11.1141 9.86359 10.7877 9.9352 10.4638 10.0181C10.3743 10.041 10.3031 10.026 10.2273 9.97892C9.89469 9.77242 9.55954 9.56966 9.22606 9.36483C9.10075 9.28781 9.10075 9.27698 9.22773 9.20787C9.57911 9.01636 9.93216 8.82693 10.2827 8.63375C10.3547 8.5942 10.4201 8.5942 10.4967 8.61752C10.8202 8.7166 11.1466 8.80695 11.4693 8.90936C11.5812 8.94475 11.625 8.91478 11.6549 8.80528C11.7249 8.54632 11.8036 8.28986 11.8843 8.03424C11.9131 7.93931 11.8956 7.89143 11.7919 7.86354Z" fill="url(#paint1_linear_770_67329)"/>
</g>
<defs>
<linearGradient id="paint0_linear_770_67329" x1="16" y1="7.99962" x2="-4.61516e-09" y2="7.99962" gradientUnits="userSpaceOnUse">
<stop stop-color="#222222"/>
<stop offset="1" stop-color="#414141"/>
</linearGradient>
<linearGradient id="paint1_linear_770_67329" x1="11.8967" y1="9.25224" x2="4.09375" y2="9.25224" gradientUnits="userSpaceOnUse">
<stop stop-color="#222222"/>
<stop offset="1" stop-color="#414141"/>
</linearGradient>
<clipPath id="clip0_770_67329">
<rect width="16" height="15.9992" fill="white"/>
</clipPath>
</defs>
</svg>
