<svg width="12" height="16" viewBox="0 0 12 16" fill="none" xmlns="http://www.w3.org/2000/svg">
<path d="M11.9155 1.20615C11.7275 0.572923 11.3878 0.180308 10.8771 0.00584615L10.8598 0H10.3636L10.3494 0.004C9.76351 0.163385 9.3922 0.609231 9.13442 0.979692C8.76224 1.51415 8.48709 2.12215 8.24438 2.65846L8.19803 2.76123C8.0538 2.428 7.83483 2.16738 7.54607 1.98554C7.49075 1.95077 7.46063 1.91108 7.43948 1.84492C7.29206 1.38769 6.99924 1.07692 6.56826 0.920923C6.51207 0.900615 6.4889 0.876 6.46573 0.812C6.25951 0.242154 5.69299 -0.0326154 5.1479 0.172923C5.08273 0.197538 5.03436 0.198462 4.97528 0.176C4.41281 -0.0369231 3.81616 0.243692 3.58735 0.828923C3.56186 0.894462 3.53377 0.925538 3.47671 0.951385C3.03675 1.152 2.77232 1.50308 2.69093 1.99477C2.67558 2.08769 2.65009 2.12277 2.57218 2.15723C1.90486 2.45415 1.56136 3.18554 1.73688 3.93631C1.75541 4.01569 1.75078 4.06092 1.71834 4.11569C1.59843 4.31785 1.54369 4.54154 1.55267 4.79385C1.292 4.60123 1.04204 4.51169 0.777318 4.51231C0.534025 4.51323 0.365458 4.66308 0.34837 4.89354C0.339391 5.01323 0.369803 5.12 0.436129 5.20215C0.505351 5.28831 0.607882 5.33908 0.732135 5.34954C0.883614 5.36215 1.01742 5.41631 1.13907 5.51508C0.928507 5.59262 0.760519 5.67631 0.613675 5.77662C0.178644 6.07415 -0.0269961 6.48369 0.00283617 6.99415C0.0138423 7.18154 0.0109459 7.36461 0.00775995 7.55815C0.00718068 7.59938 0.00660141 7.64061 0.00602214 7.68185C0.0022569 7.98738 0.0248484 8.29538 0.0465709 8.59354C0.0538118 8.69138 0.060763 8.78954 0.0671349 8.88738C0.0798789 9.08708 0.0952295 9.28985 0.110001 9.48585C0.121586 9.63846 0.132882 9.79138 0.143598 9.94431C0.199498 10.7618 0.244391 11.4283 0.284361 12.0418C0.302028 12.3114 0.318537 12.5809 0.335047 12.8508C0.348949 13.0766 0.362562 13.3022 0.377044 13.528C0.383126 13.6212 0.38776 13.7166 0.392104 13.8092C0.4034 14.0415 0.414986 14.2818 0.448873 14.5178C0.555169 15.2575 0.95805 15.7443 1.64622 15.964C1.66765 15.9708 1.6888 15.9778 1.71023 15.9846L1.75918 16.0003H9.66851L9.68212 15.9966C10.414 15.8043 10.8502 15.3255 10.9779 14.5735C11.0156 14.352 11.0272 14.1252 11.0382 13.9062C11.0422 13.8246 11.0466 13.7406 11.0521 13.6588C11.1042 12.8898 11.15 12.1985 11.192 11.5455C11.2073 11.3055 11.2215 11.0655 11.2357 10.8252C11.2519 10.5492 11.269 10.2637 11.2873 9.98308C11.3148 9.56492 11.3446 9.13969 11.3736 8.72831C11.3901 8.49354 11.4066 8.25877 11.4228 8.02431L11.426 7.97846C11.4376 7.812 11.4495 7.64 11.4573 7.46985C11.4671 7.25261 11.3843 7.08246 11.2233 6.99108C11.205 6.98092 11.1978 6.97354 11.1952 6.97077C11.1949 6.96523 11.196 6.94985 11.207 6.91108C11.4107 6.19046 11.5757 5.47385 11.698 4.78154C11.8523 3.90492 11.9471 3.08308 11.9873 2.26923C12.0041 1.92246 12.0218 1.56431 11.9155 1.20615ZM6.76058 15.1886C6.41418 15.1883 6.06778 15.1883 5.72137 15.1883H4.83799C3.97922 15.1883 3.09121 15.1883 2.21767 15.1895C2.10297 15.1905 1.98451 15.1772 1.86692 15.152C1.52544 15.0791 1.25956 14.7523 1.23436 14.3748C1.19178 13.7326 1.14921 13.0908 1.10663 12.4486L1.00787 10.9551C0.967028 10.3335 0.9259 9.712 0.883903 9.09046C0.871449 8.908 0.857257 8.72277 0.843644 8.54338C0.83119 8.38246 0.818736 8.21631 0.80715 8.05231C1.40177 8.41046 1.99928 8.404 2.58406 8.03354C2.86616 7.85477 3.12857 7.85538 3.38634 8.03508C3.97053 8.44215 4.57935 8.44215 5.1954 8.03508C5.47055 7.85323 5.73672 7.85569 6.0084 8.04246C6.59375 8.44462 7.19358 8.44492 7.79139 8.04338C8.07813 7.85046 8.3443 7.852 8.62901 8.04769C9.16223 8.41415 9.71311 8.44277 10.2663 8.13262C10.3431 8.08954 10.423 8.05354 10.5076 8.01538C10.5464 7.99785 10.5861 7.98 10.6257 7.96123C10.6223 8.02769 10.6191 8.09446 10.6156 8.16092C10.6095 8.28369 10.6034 8.41046 10.5953 8.53446C10.5394 9.40154 10.4957 10.0677 10.4531 10.6935C10.4262 11.0898 10.3984 11.4858 10.3709 11.8822C10.3428 12.2822 10.315 12.6822 10.2877 13.0822C10.2779 13.2262 10.2709 13.372 10.264 13.5132C10.251 13.7828 10.2373 14.0615 10.2046 14.3308C10.1348 14.9055 9.82839 15.1858 9.26765 15.1874C8.43235 15.1895 7.58256 15.1889 6.76058 15.1886ZM2.49543 4.43077C2.68717 4.27138 2.72598 4.19446 2.61505 3.99138C2.60491 3.97292 2.59332 3.95169 2.58087 3.92708C2.48616 3.74277 2.4627 3.53969 2.51454 3.35569C2.56262 3.18492 2.67355 3.04277 2.82677 2.956C2.96029 2.88031 3.10829 2.86985 3.24877 2.86985C3.24877 2.86985 3.24877 2.86985 3.24906 2.86985C3.34029 2.86954 3.44166 2.86985 3.50075 2.788C3.55983 2.70585 3.5329 2.60092 3.50915 2.50862C3.43558 2.22062 3.45672 2.03815 3.583 1.87969C3.67424 1.76492 3.80052 1.70215 3.99226 1.67631C4.25524 1.64062 4.29898 1.58769 4.30448 1.29692C4.30825 1.09385 4.39108 0.983077 4.56486 0.948308C4.65523 0.930154 4.73633 0.964308 4.84494 1.06646C5.04276 1.25231 5.11198 1.25077 5.30806 1.05508C5.39003 0.973231 5.483 0.935385 5.56323 0.951385C5.62753 0.964 5.67909 1.01046 5.71297 1.08585C5.75265 1.17415 5.74165 1.27508 5.72369 1.37108C5.71703 1.40769 5.69618 1.51877 5.7625 1.60369C5.82854 1.68831 5.93628 1.68738 5.97191 1.68708C6.0223 1.68677 6.07299 1.68831 6.11122 1.68985C6.46457 1.70462 6.67659 1.90646 6.71221 2.26C6.58188 2.20092 6.43098 2.184 6.27515 2.21877C5.75497 2.33477 5.22697 2.45723 4.70592 2.58338C4.40759 2.65569 4.21528 2.86615 4.1782 3.16123C4.12694 3.56862 4.23787 3.87385 4.50781 4.06831L4.51215 4.07138C4.53532 4.088 4.56023 4.10585 4.57877 4.12062C4.56457 4.14123 4.54517 4.16677 4.52953 4.18769C4.34358 4.43354 4.15011 4.73354 4.0638 5.13292C3.9856 5.04369 3.91058 4.96369 3.82572 4.89169C3.55462 4.66185 3.27136 4.54677 2.97883 4.54677C2.77377 4.54677 2.56436 4.60338 2.35119 4.71661C2.34742 4.71846 2.34395 4.72061 2.34047 4.72246C2.34134 4.71692 2.34221 4.71169 2.34308 4.70708L2.34337 4.70585C2.3648 4.588 2.41462 4.49785 2.49543 4.43077ZM7.08207 2.68708C7.08092 2.68369 7.07976 2.68031 7.0786 2.67692C7.3888 2.84677 7.56576 3.15354 7.55736 3.51815C7.55678 3.54892 7.55563 3.57846 7.55099 3.60277C7.54665 3.62523 7.54259 3.64892 7.53883 3.67262C7.52608 3.74985 7.5116 3.83723 7.47656 3.86308C7.46381 3.85415 7.44354 3.83385 7.42935 3.81938C7.39256 3.78246 7.35114 3.74092 7.29438 3.71785C7.24224 3.69662 7.19069 3.66431 7.13624 3.62985C7.1009 3.60769 7.0647 3.58461 7.02617 3.56338C7.01604 3.55785 7.00938 3.55323 7.00503 3.54954C7.00706 3.54554 7.00996 3.54031 7.01459 3.53354C7.22313 3.22708 7.15303 2.90369 7.08207 2.68708ZM6.35104 3.23108C6.0113 3.31231 5.66634 3.39292 5.33239 3.47108L5.0723 3.532C5.03784 3.48246 4.98889 3.38492 4.98165 3.35169C4.97528 3.30708 4.98165 3.21723 4.99265 3.17015C5.26346 3.10585 5.53832 3.04185 5.80479 2.98L6.07907 2.916C6.10166 2.91077 6.12425 2.90523 6.14685 2.9C6.18421 2.89108 6.21983 2.88246 6.25575 2.87446C6.28558 2.91846 6.32729 3.00492 6.33627 3.03785C6.34467 3.07015 6.35307 3.16985 6.35104 3.23108ZM4.95239 3.17969C4.95239 3.17969 4.9521 3.17969 4.95182 3.17969C4.9521 3.18 4.9521 3.18 4.95239 3.17969ZM6.5225 6.86092C6.47906 7.00431 6.43561 7.148 6.39275 7.29169C6.24851 7.19723 6.09616 7.13169 5.9331 7.09477C6.17957 6.99477 6.39043 6.85815 6.5616 6.73138C6.54857 6.77446 6.53553 6.81785 6.5225 6.86092ZM6.97896 5.51292C6.95377 5.57723 6.93899 5.58615 6.92104 5.59169C6.57 5.69969 6.27486 5.91261 5.98957 6.11877L6.05242 6.22215L5.98726 6.12031C5.71645 6.316 5.46823 6.40123 5.20582 6.38923H5.20177C5.19279 6.38923 5.18381 6.38892 5.17483 6.38862C5.14935 6.388 5.12067 6.38708 5.09084 6.38954C4.99613 6.39723 4.97296 6.37785 4.9605 6.27938C4.94197 6.13538 4.91011 5.99385 4.87941 5.85723C4.86869 5.80954 4.85797 5.76185 4.84784 5.71415C4.79078 5.44646 4.83017 5.20862 4.96832 4.98677C5.03755 4.87538 5.11546 4.76523 5.19076 4.65846L5.23566 4.59508C5.31038 4.48892 5.40915 4.32308 5.40451 4.11015C5.40422 4.09538 5.40596 4.08861 5.40567 4.088C5.40799 4.08615 5.41784 4.07938 5.45056 4.072C5.70052 4.01477 5.95916 3.95569 6.21317 3.89508C6.23692 3.88923 6.2488 3.88923 6.25343 3.88954C6.25488 3.89169 6.25749 3.896 6.26067 3.90338C6.35191 4.11908 6.52424 4.23538 6.66413 4.31231C6.86456 4.42277 7.05717 4.53661 7.20604 4.71538C7.2573 4.77692 7.26252 4.81354 7.23008 4.88523C7.16028 5.03969 7.09916 5.19938 7.04008 5.35385C7.0198 5.40738 6.99953 5.46031 6.97896 5.51292ZM2.69412 5.48C2.7952 5.42 2.89194 5.39015 2.98375 5.39015C3.10105 5.39015 3.21024 5.43908 3.31075 5.53661C3.84657 6.05815 4.09276 6.58369 4.08465 7.19231C4.08465 7.21692 4.08494 7.24123 4.08523 7.26585C4.08581 7.31846 4.08639 7.368 4.08436 7.41723C4.08378 7.43323 4.08262 7.44585 4.08175 7.456C4.0722 7.45262 4.06032 7.44769 4.04555 7.44092C3.97488 7.40892 3.90653 7.36708 3.83441 7.32277C3.81529 7.31108 3.79646 7.29938 3.77735 7.288C3.24326 6.96585 2.7141 6.96585 2.20435 7.288C1.83043 7.52431 1.49416 7.52031 1.14631 7.27569C1.09186 7.23754 1.03625 7.20277 0.982089 7.16923L0.943278 7.14492C0.778766 7.04185 0.748644 6.94615 0.819894 6.75138C0.854361 6.65754 0.916632 6.58 1.01598 6.50769C1.15326 6.408 1.31401 6.33292 1.52226 6.27077C1.81566 6.18338 2.07459 6.02615 2.29239 5.80277C2.42302 5.66831 2.5548 5.56277 2.69412 5.48ZM10.3155 7.11538C10.2967 7.176 10.2817 7.19262 10.2585 7.20338C10.1817 7.23877 10.105 7.27661 10.0308 7.31292C9.93758 7.35877 9.84084 7.40585 9.74555 7.44862C9.5654 7.52892 9.38756 7.51938 9.21726 7.42031C9.18974 7.40431 9.16252 7.388 9.135 7.372C8.88418 7.22369 8.62496 7.07077 8.28261 7.05877L8.26784 7.05846L8.25364 7.06185C8.22931 7.06154 8.20412 7.06246 8.17892 7.06338C8.13924 7.06461 8.10188 7.06615 8.06741 7.06338L8.05814 7.06277L8.04887 7.06369C7.82614 7.08492 7.60631 7.16646 7.37692 7.31354C7.31494 7.35323 7.25064 7.38831 7.18779 7.42031C7.31755 6.96646 7.46903 6.52062 7.61384 6.10154C7.87654 5.34062 8.22468 4.60338 8.56124 3.89077C8.72951 3.53446 8.90358 3.16585 9.0652 2.79785C9.26823 2.33569 9.52427 1.80031 9.88139 1.332C10.0158 1.156 10.1412 1.03262 10.2759 0.944C10.5774 0.745846 10.8276 0.808923 11.0194 1.13138C11.2207 1.47015 11.2259 1.84554 11.2041 2.16831C11.1688 2.69538 11.1236 3.30831 11.0353 3.91323C10.8737 5.02031 10.6315 6.09785 10.3155 7.11538Z" fill="url(#paint0_linear_770_67321)"/>
<path d="M10.5821 3.78974C10.4427 3.72082 10.3182 3.7802 10.2345 3.95497C10.1224 4.18974 9.95702 4.26974 9.7172 4.20205C9.57673 4.16236 9.43539 4.14297 9.29144 4.1722C8.9517 4.24174 8.71623 4.44759 8.59516 4.79159C8.54274 4.94051 8.60269 5.08113 8.72781 5.1399C8.85178 5.19805 8.98211 5.14328 9.05568 5.00143C9.06611 4.98113 9.07393 4.95959 9.08435 4.93897C9.18196 4.7442 9.35284 4.66297 9.55385 4.71497C9.65522 4.74113 9.75602 4.7719 9.81916 4.7722C10.2191 4.76943 10.5629 4.52513 10.693 4.18082C10.7599 4.00605 10.7173 3.85651 10.5821 3.78974Z" fill="url(#paint1_linear_770_67321)"/>
<path d="M10.0684 5.35224C9.92907 5.28332 9.80453 5.3427 9.72082 5.51747C9.60873 5.75224 9.44335 5.83224 9.20353 5.76455C9.06306 5.72486 8.92172 5.70547 8.77777 5.7347C8.43803 5.80424 8.20256 6.01009 8.08149 6.35409C8.02907 6.50301 8.08902 6.64363 8.21414 6.7024C8.33811 6.76055 8.46844 6.70578 8.54201 6.56393C8.55244 6.54363 8.56026 6.52209 8.57068 6.50147C8.66829 6.3067 8.83917 6.22547 9.04018 6.27747C9.14155 6.30363 9.24235 6.3344 9.30549 6.3347C9.70547 6.33193 10.0493 6.08763 10.1793 5.74332C10.2462 5.56855 10.2036 5.41901 10.0684 5.35224Z" fill="url(#paint2_linear_770_67321)"/>
<path d="M10.8666 2.18972C10.7467 2.13033 10.6129 2.17649 10.5385 2.30295C10.3884 2.55833 10.3542 2.57402 10.0858 2.51249C9.68577 2.42079 9.28115 2.64848 9.15603 3.03587C9.11172 3.17279 9.14474 3.29772 9.24408 3.36879C9.3385 3.43648 9.47752 3.42633 9.55688 3.33895C9.58932 3.30325 9.61134 3.25587 9.6348 3.21218C9.71821 3.05741 9.83262 3.00264 9.9951 3.04756C10.0803 3.07125 10.1657 3.08295 10.2216 3.0811C10.5932 3.07925 10.8927 2.85556 10.9926 2.52818C11.036 2.38664 10.9845 2.24818 10.8666 2.18972Z" fill="url(#paint3_linear_770_67321)"/>
<defs>
<linearGradient id="paint0_linear_770_67321" x1="12" y1="8.00015" x2="-3.46137e-09" y2="8.00015" gradientUnits="userSpaceOnUse">
<stop stop-color="#222222"/>
<stop offset="1" stop-color="#414141"/>
</linearGradient>
<linearGradient id="paint1_linear_770_67321" x1="10.7241" y1="4.46227" x2="8.57617" y2="4.46227" gradientUnits="userSpaceOnUse">
<stop stop-color="#222222"/>
<stop offset="1" stop-color="#414141"/>
</linearGradient>
<linearGradient id="paint2_linear_770_67321" x1="10.2105" y1="6.02477" x2="8.0625" y2="6.02477" gradientUnits="userSpaceOnUse">
<stop stop-color="#222222"/>
<stop offset="1" stop-color="#414141"/>
</linearGradient>
<linearGradient id="paint3_linear_770_67321" x1="11.0079" y1="2.78853" x2="9.13672" y2="2.78853" gradientUnits="userSpaceOnUse">
<stop stop-color="#222222"/>
<stop offset="1" stop-color="#414141"/>
</linearGradient>
</defs>
</svg>
