<svg width="16" height="14" viewBox="0 0 16 14" fill="none" xmlns="http://www.w3.org/2000/svg">
<path d="M15.5361 5.93428C14.5721 5.10474 13.6074 4.2448 12.6746 3.41362C12.3048 3.0841 11.9349 2.75459 11.5642 2.42589C11.3128 2.20279 11.0618 1.97928 10.8109 1.75577C10.3699 1.36298 9.91407 0.956637 9.46217 0.560561C8.63559 -0.163385 7.49794 -0.188448 6.63187 0.498932C6.45506 0.639448 6.28571 0.791879 6.12206 0.93938C6.06239 0.993204 6.00272 1.04703 5.94262 1.10044C5.55653 1.4431 5.17044 1.78577 4.78435 2.12843C4.3987 2.47109 4.01261 2.81375 3.62652 3.15642C3.28957 3.45512 2.95174 3.7534 2.61435 4.05169C1.88342 4.69758 1.12791 5.36523 0.390393 6.02837C0.13066 6.26215 -0.00798083 6.57482 0.000355184 6.90927C0.0086912 7.24947 0.173657 7.57611 0.453132 7.80496C0.789205 8.08065 1.19284 8.09667 1.46706 8.08517C1.50084 8.08353 1.56007 8.08147 1.58639 8.08476C1.59078 8.10777 1.59078 8.15913 1.59078 8.20555V13.336C1.59078 13.7827 1.82243 14 2.2989 14C3.68268 14 5.0669 14 6.45068 14H9.5644C10.0904 14 10.6169 14 11.143 14C12.0007 14 12.8584 14 13.7162 14C14.1926 14 14.4243 13.7827 14.4243 13.336V8.23637C14.4243 8.17433 14.4243 8.11023 14.4313 8.08763C14.4568 8.08147 14.5313 8.08353 14.5822 8.08517C14.8214 8.09215 15.1329 8.07777 15.4202 7.9048C15.751 7.70553 15.9608 7.37684 15.995 7.00212C16.0318 6.60646 15.8647 6.21696 15.5361 5.93428ZM10.7358 11.7772C10.7336 11.3462 10.7319 10.9004 10.7424 10.4633C10.7582 9.803 10.4814 9.16698 9.96233 8.6723C9.4376 8.17227 8.72421 7.88672 8.00293 7.89001C7.41283 7.89247 6.82009 8.08681 6.33309 8.43728C5.8224 8.80501 5.46659 9.32475 5.33102 9.9012C5.29241 10.0647 5.27398 10.2151 5.27442 10.361C5.2753 10.6592 5.2753 10.9571 5.27486 11.2554C5.27442 11.7398 5.27442 12.2411 5.27881 12.7337C5.27925 12.799 5.26784 12.8151 5.26433 12.8183C5.26082 12.8216 5.24371 12.834 5.17044 12.8319C4.35219 12.8249 3.62564 12.8253 2.94823 12.8327C2.87672 12.8344 2.85873 12.8216 2.85478 12.8179C2.84864 12.8122 2.83811 12.7916 2.83855 12.7197C2.84294 12.0685 2.8425 11.4066 2.84206 10.7669C2.84206 10.55 2.84162 10.333 2.84162 10.1161V9.32722C2.84162 8.73269 2.84162 8.13817 2.84118 7.54365C2.84074 7.13812 2.60031 6.9142 2.16377 6.91338C2.08919 6.91338 2.01416 6.91297 1.93958 6.91297C1.89614 6.91297 1.85271 6.91297 1.80927 6.91297C1.67502 6.91297 1.5412 6.91297 1.40739 6.91256C1.39817 6.91256 1.38852 6.91256 1.37931 6.91297C1.30253 6.9142 1.29288 6.90886 1.28542 6.89283C1.27971 6.88092 1.27752 6.87599 1.33105 6.83285C1.34114 6.82463 1.35167 6.81641 1.36088 6.80779C1.96458 6.2716 2.56873 5.73583 3.17287 5.20006L4.98661 3.59152C5.79608 2.87374 6.60555 2.15596 7.41502 1.43858C7.79146 1.10496 8.22274 1.10455 8.5983 1.43694C9.43365 2.17691 10.2686 2.91729 11.1035 3.65767L14.6059 6.76259C14.6292 6.78313 14.6524 6.80409 14.6761 6.82586C14.7283 6.87435 14.7279 6.88133 14.7218 6.89407C14.7156 6.90721 14.7068 6.91215 14.6371 6.91215H14.6314C14.3738 6.91256 14.1159 6.91215 13.8583 6.91256C13.4099 6.91338 13.1726 7.13401 13.1726 7.55022C13.1721 8.68051 13.1721 9.81081 13.1726 10.9411V12.6951C13.1726 12.7477 13.1726 12.8019 13.1673 12.8237C13.1436 12.8286 13.0831 12.8286 13.0247 12.8286C12.8295 12.8282 12.6351 12.8282 12.4403 12.8282C11.92 12.8274 11.3821 12.8266 10.8525 12.8319C10.7762 12.8331 10.756 12.8216 10.7512 12.8171C10.7472 12.8134 10.7345 12.7962 10.7349 12.7267C10.7389 12.4095 10.7371 12.0882 10.7358 11.7772ZM9.4885 12.7933C9.48893 12.8142 9.48586 12.8229 9.48674 12.8241C9.47446 12.8294 9.43234 12.8294 9.41786 12.8294C9.07038 12.8282 8.7229 12.8286 8.37542 12.8286H8.00468C7.87745 12.8286 7.75022 12.8282 7.62298 12.8282C7.28998 12.8274 6.94557 12.827 6.60643 12.8311C6.5472 12.8323 6.53535 12.822 6.53535 12.822C6.53535 12.822 6.52438 12.8114 6.52482 12.7559C6.52702 12.4243 6.52658 12.0878 6.52614 11.762C6.5257 11.3614 6.52482 10.9473 6.52921 10.5401C6.53711 9.81738 6.97848 9.27175 7.68133 9.11562C7.79014 9.09138 7.9007 9.07946 8.01127 9.07946C8.31663 9.07946 8.61936 9.17068 8.8747 9.34489C9.21385 9.5762 9.42663 9.92667 9.4591 10.3071C9.50341 10.8269 9.49683 11.3585 9.49025 11.8725C9.4863 12.1741 9.48235 12.486 9.4885 12.7933Z" fill="url(#paint0_linear_791_67342)"/>
<defs>
<linearGradient id="paint0_linear_791_67342" x1="16" y1="7" x2="-4.61516e-09" y2="7" gradientUnits="userSpaceOnUse">
<stop stop-color="#222222"/>
<stop offset="1" stop-color="#414141"/>
</linearGradient>
</defs>
</svg>
