<svg width="14" height="16" viewBox="0 0 14 16" fill="none" xmlns="http://www.w3.org/2000/svg">
<path fill-rule="evenodd" clip-rule="evenodd" d="M2.97255 0.025293C2.82854 0.0658798 2.62247 0.272472 2.58074 0.418153C2.55953 0.49204 2.54646 0.971452 2.54637 1.67784L2.54617 2.81827L1.30691 4.02299C0.0693923 5.22605 0.0676173 5.22799 0.0302116 5.39972C0.00245589 5.52723 -0.00464433 6.86159 0.00271416 10.5591C0.0136874 16.0665 -0.00403119 15.62 0.211495 15.8183C0.423343 16.0133 -0.0825867 15.9998 7 15.9998C14.0826 15.9998 13.5767 16.0133 13.7885 15.8183C14.004 15.62 13.9863 16.0665 13.9973 10.5591C14.0046 6.86159 13.9975 5.52723 13.9698 5.39972C13.9324 5.22799 13.9305 5.22596 12.6943 4.0239L11.4564 2.82006L11.4471 1.61387L11.4377 0.407678L11.3511 0.280977C11.3035 0.21131 11.2091 0.120881 11.1413 0.0800757L11.0181 0.00587519L7.04841 0.000622051C4.60123 -0.00259862 3.038 0.00684452 2.97255 0.025293ZM10.1629 1.85073V2.46047H7H3.83714V1.85073V1.24099H7H10.1629V1.85073ZM11.1795 4.30532L11.7921 4.89942H8.88739H5.98272L5.37016 4.30532L4.75759 3.71121H7.66226H10.5669L11.1795 4.30532ZM4.15255 4.87719L5.09583 5.79302V10.271V14.7491H3.19165H1.28748V10.271V5.79302L2.23076 4.87719C2.74956 4.37348 3.18197 3.96136 3.19165 3.96136C3.20134 3.96136 3.63374 4.37348 4.15255 4.87719ZM12.7046 10.4574L12.7127 14.7491H9.54978H6.38679V10.4495V6.14986L9.54159 6.15783L12.6964 6.1658L12.7046 10.4574Z" fill="url(#paint0_linear_791_67347)"/>
<defs>
<linearGradient id="paint0_linear_791_67347" x1="14" y1="8" x2="-4.03826e-09" y2="8" gradientUnits="userSpaceOnUse">
<stop stop-color="#222222"/>
<stop offset="1" stop-color="#414141"/>
</linearGradient>
</defs>
</svg>
