<svg width="16" height="16" viewBox="0 0 16 16" fill="none" xmlns="http://www.w3.org/2000/svg">
<path fill-rule="evenodd" clip-rule="evenodd" d="M11.0255 0.0217207C10.319 0.138479 9.79323 0.665499 9.64817 1.40221C9.60281 1.63251 9.59411 2.27855 9.63414 2.44321C9.65457 2.52732 9.64838 2.53818 9.59046 2.51971C9.20092 2.39549 8.9925 2.36912 8.414 2.37096C7.91009 2.37251 7.75877 2.38622 7.53128 2.45075C6.80253 2.65741 6.36827 2.93263 5.56543 3.69656C4.36135 4.84232 3.17273 6.26569 2.32671 7.57497C0.95149 9.70333 0.120211 11.9813 0.00569854 13.9356C-0.0611272 15.076 0.463212 15.8458 1.39823 15.98C1.86548 16.047 2.76752 15.9424 3.6595 15.7178C5.88493 15.1574 8.21549 13.8058 10.3418 11.8426C10.8579 11.3661 12.0796 10.0913 12.3771 9.71892C12.782 9.21203 13.1064 8.43269 13.1925 7.75966C13.2338 7.43679 13.2194 6.7512 13.1674 6.563C13.1446 6.4803 13.1498 6.47627 13.2469 6.5022C13.9813 6.69849 14.7026 6.66716 15.1802 6.41821C15.8875 6.04954 16.206 5.03177 15.8589 4.24907C15.7489 4.00096 15.4584 3.69693 15.1932 3.5524C15.0849 3.49341 14.9922 3.44196 14.987 3.438C14.9818 3.43409 15.017 3.32287 15.0651 3.19089C15.3653 2.36723 15.0573 1.50866 14.3288 1.13833C13.8431 0.891481 13.3426 0.881581 12.8264 1.10863C12.7797 1.12917 12.7392 1.07982 12.6358 0.876595C12.3082 0.233001 11.7002 -0.0897927 11.0255 0.0217207ZM11.483 1.24338C11.6599 1.32664 11.7589 1.66088 11.7589 2.17531C11.7589 2.52532 11.8215 2.68692 12.008 2.81842C12.3046 3.02752 12.5897 2.95043 12.8669 2.58616C13.1188 2.25531 13.2896 2.1452 13.5513 2.1452C13.8035 2.1452 13.9362 2.23308 14.0101 2.44905C14.0896 2.68142 13.9978 2.88361 13.6517 3.2381C13.346 3.55122 13.2768 3.70251 13.3297 3.94179C13.3911 4.21982 13.6413 4.41684 13.9327 4.41684C14.2993 4.41684 14.752 4.59355 14.8283 4.76638C14.9367 5.01194 14.8287 5.29879 14.5967 5.38149C14.416 5.44591 13.9193 5.43719 13.5833 5.36365C13.0677 5.25077 12.5918 5.07861 12.5531 4.99099C12.4875 4.84236 11.9841 4.17952 11.736 3.9152C11.601 3.77133 11.3822 3.5664 11.2497 3.4598C11.028 3.28143 11.0031 3.24697 10.9376 3.02804C10.805 2.58494 10.7481 2.20715 10.7636 1.87272C10.7798 1.52381 10.8406 1.3696 11.0031 1.26551C11.1112 1.19618 11.3584 1.1848 11.483 1.24338ZM9.27258 3.65808C10.4664 4.07055 11.5913 5.2552 11.9748 6.50379C12.0828 6.85525 12.1102 7.5134 12.0314 7.86049C11.9574 8.18587 11.7989 8.54191 11.5994 8.83061C11.5109 8.9586 11.0922 9.42608 10.6689 9.8694L9.89934 10.6755L8.90625 9.65476C7.82917 8.54771 7.83801 8.55429 7.49068 8.60238C7.30265 8.62842 7.08958 8.84694 7.05231 9.05198C6.99714 9.35567 7.04297 9.42035 8.06378 10.4801L9.01204 11.4644L8.64743 11.7544C8.10806 12.1834 7.50488 12.6245 7.13315 12.8619C6.67761 13.1529 5.9832 13.5511 5.75528 13.652L5.565 13.7363L4.71784 12.866C3.80357 11.9267 3.73238 11.8748 3.43771 11.9319C3.25805 11.9667 3.04452 12.1857 3.01114 12.3694C2.95411 12.6832 2.98223 12.7275 3.7351 13.5094L4.43444 14.2356L4.08257 14.352C2.97891 14.717 1.69358 14.9126 1.40553 14.7593C1.19443 14.6469 1.15132 14.5357 1.15726 14.1191C1.17654 12.7705 1.83207 10.7528 2.81352 9.02125L3.04054 8.6207L3.83158 9.43683C4.68808 10.3205 4.74321 10.3601 5.01351 10.286C5.43006 10.1717 5.6075 9.8469 5.44126 9.50309C5.40982 9.43808 5.0045 8.99118 4.54051 8.50996L3.69689 7.63499L3.79931 7.48241C4.17858 6.9173 5.06685 5.87091 5.84583 5.07148L6.37768 4.52566L7.53422 5.72752C8.19371 6.41285 8.7281 6.93902 8.77765 6.95188C8.9998 7.00942 9.39804 6.84812 9.49073 6.66299C9.56134 6.522 9.55301 6.28483 9.47177 6.12371C9.43377 6.04836 8.93473 5.50475 8.36277 4.91571C7.79086 4.32671 7.3229 3.83416 7.3229 3.82115C7.3229 3.78846 7.68822 3.63835 7.90959 3.58003C8.02865 3.54867 8.24744 3.5367 8.53921 3.54557C8.90539 3.55672 9.03822 3.57711 9.27258 3.65808Z" fill="url(#paint0_linear_791_67336)"/>
<defs>
<linearGradient id="paint0_linear_791_67336" x1="16" y1="8" x2="-4.61516e-09" y2="8" gradientUnits="userSpaceOnUse">
<stop stop-color="#222222"/>
<stop offset="1" stop-color="#414141"/>
</linearGradient>
</defs>
</svg>
