<svg width="14" height="12" viewBox="0 0 14 12" fill="none" xmlns="http://www.w3.org/2000/svg">
<path d="M2.13775 0.195262C1.8774 -0.0650874 1.45529 -0.0650874 1.19494 0.195262C0.934587 0.455612 0.934587 0.877722 1.19494 1.13807L2.81105 2.75418C1.85727 3.47158 1.02584 4.45695 0.40339 5.70186C0.309547 5.88954 0.309547 6.11046 0.40339 6.29814C1.8422 9.17577 4.39759 10.6667 6.99967 10.6667C8.03644 10.6667 9.0658 10.43 10.0201 9.96321L11.8616 11.8047C12.122 12.0651 12.5441 12.0651 12.8044 11.8047C13.0648 11.5444 13.0648 11.1223 12.8044 10.8619L2.13775 0.195262ZM9.00885 8.95199C8.35585 9.20744 7.67526 9.33334 6.99967 9.33334C5.02048 9.33334 2.99838 8.25281 1.75278 6C2.29782 5.01424 2.99153 4.25293 3.76526 3.70839L5.19459 5.13772C5.06964 5.39882 4.99967 5.69124 4.99967 6.00001C4.99967 7.10458 5.8951 8.00001 6.99967 8.00001C7.30844 8.00001 7.60086 7.93004 7.86196 7.80509L9.00885 8.95199Z" fill="#0D0D0D"/>
<path d="M11.3679 7.26365C11.6899 6.89344 11.9853 6.47251 12.2465 6C11.0009 3.74719 8.97884 2.66667 6.99965 2.66667C6.92498 2.66667 6.85025 2.6682 6.7755 2.67129L5.58594 1.48172C6.05128 1.38301 6.52469 1.33333 6.99965 1.33333C9.60173 1.33333 12.1571 2.82423 13.5959 5.70186C13.6898 5.88954 13.6898 6.11046 13.5959 6.29814C13.2333 7.02344 12.7997 7.66065 12.3123 8.20809L11.3679 7.26365Z" fill="#0D0D0D"/>
</svg>
