<svg width="14" height="10" viewBox="0 0 14 10" fill="none" xmlns="http://www.w3.org/2000/svg">
<path d="M8.99967 4.9987C8.99967 6.10327 8.10424 6.9987 6.99967 6.9987C5.8951 6.9987 4.99967 6.10327 4.99967 4.9987C4.99967 3.89413 5.8951 2.9987 6.99967 2.9987C8.10424 2.9987 8.99967 3.89413 8.99967 4.9987Z" fill="#0D0D0D"/>
<path d="M13.596 4.70056C12.1571 1.82293 9.60176 0.332031 6.99967 0.332031C4.39759 0.332031 1.8422 1.82293 0.40339 4.70056C0.309547 4.88824 0.309547 5.10916 0.40339 5.29684C1.8422 8.17447 4.39759 9.66537 6.99967 9.66537C9.60176 9.66537 12.1571 8.17447 13.596 5.29684C13.6898 5.10916 13.6898 4.88824 13.596 4.70056ZM6.99967 8.33203C5.02048 8.33203 2.99838 7.25151 1.75278 4.9987C2.99838 2.74588 5.02048 1.66536 6.99967 1.66536C8.97887 1.66536 11.001 2.74588 12.2466 4.9987C11.001 7.25151 8.97887 8.33203 6.99967 8.33203Z" fill="#0D0D0D"/>
</svg>
